<svg xmlns="http://www.w3.org/2000/svg" viewBox="0 0 24 24" fill="currentColor" width="16" height="16">
  <path d="M12 2C11.5 2 11 2.2 10.6 2.6L8.8 4.4C8.4 4.8 8.2 5.3 8.2 5.8V7.6C8.2 8.1 8.4 8.6 8.8 9L10.6 10.8C11 11.2 11.5 11.4 12 11.4C12.5 11.4 13 11.2 13.4 10.8L15.2 9C15.6 8.6 15.8 8.1 15.8 7.6V5.8C15.8 5.3 15.6 4.8 15.2 4.4L13.4 2.6C13 2.2 12.5 2 12 2ZM12 4.2L13.8 6V7.8L12 9.6L10.2 7.8V6L12 4.2ZM6 8C5.4 8 5 8.4 5 9V11C5 11.6 5.4 12 6 12C6.6 12 7 11.6 7 11V9C7 8.4 6.6 8 6 8ZM18 8C17.4 8 17 8.4 17 9V11C17 11.6 17.4 12 18 12C18.6 12 19 11.6 19 11V9C19 8.4 18.6 8 18 8ZM12 14C11.4 14 11 14.4 11 15V17C11 17.6 11.4 18 12 18C12.6 18 13 17.6 13 17V15C13 14.4 12.6 14 12 14ZM8 14C7.4 14 7 14.4 7 15V17C7 17.6 7.4 18 8 18C8.6 18 9 17.6 9 17V15C9 14.4 8.6 14 8 14ZM16 14C15.4 14 15 14.4 15 15V17C15 17.6 15.4 18 16 18C16.6 18 17 17.6 17 17V15C17 14.4 16.6 14 16 14ZM12 20C11.4 20 11 20.4 11 21V23C11 23.6 11.4 24 12 24C12.6 24 13 23.6 13 23V21C13 20.4 12.6 20 12 20ZM4 18C3.4 18 3 18.4 3 19V21C3 21.6 3.4 22 4 22C4.6 22 5 21.6 5 21V19C5 18.4 4.6 18 4 18ZM20 18C19.4 18 19 18.4 19 19V21C19 21.6 19.4 22 20 22C20.6 22 21 21.6 21 21V19C21 18.4 20.6 18 20 18Z"/>
</svg>