<?xml version="1.0" encoding="UTF-8"?>
<svg version="1.1" xmlns="http://www.w3.org/2000/svg" width="512" height="512">
<path d="M0 0 C4.26739918 1.5403732 7.96411078 3.7413079 11.8125 6.125 C13.42354614 7.07463623 13.42354614 7.07463623 15.06713867 8.04345703 C17.29908717 9.36170518 19.52412737 10.69171828 21.7421875 12.03320312 C25.76545479 14.46211809 29.82645339 16.82197081 33.8918457 19.17944336 C36.85355134 20.89883194 39.80788352 22.63041267 42.76171875 24.36328125 C48.92586921 27.96880207 55.12649026 31.5088367 61.33258057 35.04138184 C65.43157618 37.37652661 69.52490639 39.72158658 73.61865234 42.06591797 C75.84386534 43.33870767 78.07071311 44.60864423 80.29931641 45.87548828 C83.35212686 47.61387476 86.3957872 49.36728681 89.4375 51.125 C90.78642334 51.88695679 90.78642334 51.88695679 92.16259766 52.66430664 C98.32347918 56.25308278 102.56702898 59.54784255 105.375 66.3125 C106.78610221 74.63800301 105.10629459 79.74231733 100.375 86.69140625 C99.58634769 87.79642839 98.794288 88.89902181 98 90 C97.48695313 90.71526855 96.97390625 91.43053711 96.4453125 92.16748047 C94.1521962 95.3594825 91.85577386 98.54856122 89.53222656 101.71850586 C88.00680724 103.80223229 86.50026303 105.89812504 85 108 C84.00226563 109.38058594 84.00226563 109.38058594 82.984375 110.7890625 C81.7083383 112.95768309 81.7083383 112.95768309 82.77734375 115.05859375 C83.18082031 115.69925781 83.58429688 116.33992188 84 117 C85.28969124 122.7636644 83.92228127 126.71019351 80.8125 131.625 C79.56256514 133.4313083 78.29261778 135.2239859 77 137 C76.47921875 137.74378906 75.9584375 138.48757812 75.421875 139.25390625 C74.30018261 140.84941697 73.15336357 142.4272315 72 144 C72.40992188 144.6290625 72.81984375 145.258125 73.2421875 145.90625 C77.99272315 153.45255544 80.80187812 159.85858942 80 169 C78.26560764 176.21608502 75.68479373 182.19480302 69.390625 186.4296875 C67.00277152 188.45475416 66.10753377 189.54543698 65.37988281 192.62133789 C65.20924797 195.76489714 65.30566772 198.79579473 65.5 201.9375 C65.50386719 202.99646484 65.50773437 204.05542969 65.51171875 205.14648438 C65.79011561 211.1833037 65.79011561 211.1833037 68.96923828 216.12182617 C70.54424363 217.30671183 72.15678739 218.44342331 73.80371094 219.52612305 C81.02191122 224.37008426 84.74012541 234.73143353 86.6875 242.875 C87.93194162 255.31941625 85.97555466 266.44125768 79 277 C78.175 277.99 77.35 278.98 76.5 280 C74.73803435 282.77632577 74.73803435 282.77632577 75.38671875 285.15625 C76.15208858 287.48979885 76.15208858 287.48979885 77.10546875 289.65625 C81.15955153 300.27830095 79.64952026 313.49962593 76 324 C73.5289106 329.00319334 70.5599621 333.62136328 67.50390625 338.28125 C61.96582689 346.82665435 61.11647737 354.89612582 62 365 C63.70552363 372.38340609 68.09467335 378.42871602 72.09765625 384.75 C79.85848292 398.00874289 80.674707 412.53109007 77.15625 427.2890625 C71.96668089 443.94477416 62.47496655 456.68348058 47.19921875 465.37890625 C39.24315199 469.41036865 31.92565093 471.61277002 23 472 C23.144375 472.56847656 23.28875 473.13695312 23.4375 473.72265625 C25.69938971 483.13148916 25.5366219 491.3024413 20.93359375 500.01953125 C16.74566302 506.36362434 11.27527572 509.97786807 4 512 C1.08484208 512.28369081 -1.81324931 512.28294259 -4.74053955 512.27415466 C-5.60840709 512.27939134 -6.47627464 512.28462802 -7.3704412 512.29002339 C-10.27207283 512.30499842 -13.17352772 512.30572799 -16.07519531 512.30639648 C-18.15835364 512.31401966 -20.24150917 512.32244744 -22.32466125 512.33161926 C-27.97976116 512.35355597 -33.634807 512.36236212 -39.28994465 512.36744571 C-42.82485151 512.37109037 -46.35974423 512.37733103 -49.89464569 512.3844471 C-62.23201621 512.40893911 -74.5693447 512.42199288 -86.90673828 512.42553711 C-98.39817398 512.42917175 -109.88934249 512.45906284 -121.38069654 512.50094169 C-131.25351285 512.53565777 -141.12624068 512.55108578 -150.99911761 512.55178314 C-156.89264335 512.55257553 -162.78589689 512.56129677 -168.67935944 512.58978081 C-174.2247862 512.61598358 -179.76971552 512.61815396 -185.31517601 512.60212517 C-187.34603906 512.60031244 -189.37693086 512.60698539 -191.40773201 512.62294388 C-212.8205099 512.78089998 -212.8205099 512.78089998 -221.11243057 505.02382565 C-226.75863543 499.14944168 -230.0553294 492.25791358 -230 484 C-229.50343734 479.96294554 -228.80392698 475.98641477 -228 472 C-228.82177734 471.99613281 -228.82177734 471.99613281 -229.66015625 471.9921875 C-245.24290043 471.23205364 -258.54467716 462.82990615 -269.25 451.9375 C-278.96766993 440.2722386 -284.92901113 424.48117771 -284.21484375 409.2265625 C-284.14394531 408.49179687 -284.07304687 407.75703125 -284 407 C-283.91878906 406.07960938 -283.83757812 405.15921875 -283.75390625 404.2109375 C-282.33109348 392.85777166 -276.84968247 383.90020796 -270.515625 374.5703125 C-265.77281584 366.52709491 -265.64064448 356.18592796 -267.6171875 347.19140625 C-269.88895584 341.06969422 -273.62351478 335.73873082 -277.09765625 330.24609375 C-280.962223 323.65173036 -283.43353953 316.64721637 -284 309 C-284.0515625 308.36191406 -284.103125 307.72382813 -284.15625 307.06640625 C-284.49616483 299.34750691 -282.90241961 291.09177013 -280.203125 283.8671875 C-279.88496763 280.94258705 -281.39441935 279.68162361 -283.1875 277.4375 C-290.82396544 267.01166695 -293.22300171 255.2305277 -291.4375 242.4375 C-288.6679846 229.9837314 -281.60678694 220.07119129 -271 213 C-270.53831309 210.50312111 -270.53831309 210.50312111 -270.59375 207.56640625 C-270.57417236 206.45217285 -270.55459473 205.33793945 -270.53442383 204.18994141 C-270.52306396 202.99288574 -270.5117041 201.79583008 -270.5 200.5625 C-269.35281368 153.78313277 -250.40703728 112.3135321 -216.921875 79.6796875 C-189.24876016 54.30033352 -150.92285629 36.17535747 -112.93359375 35.76171875 C-112.18550446 35.75201553 -111.43741516 35.74231232 -110.66665649 35.73231506 C-108.25688238 35.70749275 -105.84738905 35.69479898 -103.4375 35.6875 C-102.61385956 35.68488159 -101.79021912 35.68226318 -100.94161987 35.67956543 C-83.38314411 35.67359309 -66.70336397 37.57780012 -50.03515625 43.36328125 C-46.17106612 44.17389475 -42.7226707 44.36570041 -39 43 C-37.14793509 40.35333172 -36.12992 38.43443336 -35 35.4921875 C-34.51273437 34.35392014 -34.51273437 34.35392014 -34.015625 33.19265747 C-32.97973702 30.76501291 -31.98688346 28.32293359 -31 25.875 C-19.51013173 -2.25498022 -19.51013173 -2.25498022 0 0 Z " fill="#020201" transform="translate(349,0)"/>
<path d="M0 0 C48.94993611 21.30601133 96.63622073 35.44854755 150.05453491 38.83468628 C151.88212431 47.8695816 152.44209254 56.62709102 152.42953491 65.83468628 C152.42871918 66.85131851 152.42871918 66.85131851 152.42788696 67.88848877 C152.38497338 79.57557394 151.27334959 90.56883491 148.05453491 101.83468628 C147.84022827 102.60022827 147.62592163 103.36577026 147.40512085 104.1545105 C141.59877793 124.34148295 131.6798219 141.87779938 118.05453491 157.83468628 C117.13994507 158.93490112 117.13994507 158.93490112 116.20687866 160.05734253 C112.18793629 164.80866619 107.91021489 168.94396655 103.05453491 172.83468628 C102.55486206 173.23558472 102.05518921 173.63648315 101.54037476 174.04953003 C88.05778376 184.73100676 72.58938798 193.84034015 56.05453491 198.83468628 C55.31477417 199.06027222 54.57501343 199.28585815 53.81283569 199.51828003 C41.04364856 203.24945416 28.65028128 204.29720273 15.42953491 204.27218628 C14.35235703 204.27238266 14.35235703 204.27238266 13.25341797 204.27258301 C-16.17352534 204.17617852 -45.96828639 195.34819432 -68.75991821 176.25192261 C-71.98241503 173.68967758 -73.5810691 172.82833922 -77.75796509 172.90109253 C-81.00643238 173.57575868 -81.00643238 173.57575868 -82.94546509 175.83468628 C-83.52961211 179.20775246 -83.52961211 179.20775246 -82.94546509 182.83468628 C-79.48631164 186.8339306 -75.50923637 189.75585541 -71.13296509 192.64718628 C-70.17184814 193.28696411 -70.17184814 193.28696411 -69.1913147 193.93966675 C-62.10087678 198.55003733 -54.58800696 202.23937749 -46.94546509 205.83468628 C-46.94546509 206.49468628 -46.94546509 207.15468628 -46.94546509 207.83468628 C-48.98239039 209.22419304 -51.02101818 210.50595568 -53.13296509 211.77218628 C-60.70030125 216.47482115 -67.34404652 221.86902438 -73.94546509 227.83468628 C-74.75757446 228.56300659 -75.56968384 229.2913269 -76.40640259 230.04171753 C-88.95161402 241.90464553 -97.39228053 257.49154022 -104.94546509 272.83468628 C-115.66002249 273.83138929 -125.64073469 269.26197254 -133.94546509 262.83468628 C-135.49234009 261.75187378 -135.49234009 261.75187378 -137.07046509 260.64718628 C-145.48282485 253.30973916 -150.39659941 241.64363205 -151.39468384 230.71749878 C-152.06042803 218.92469407 -148.73383713 211.11340713 -141.88296509 201.52218628 C-133.76759792 189.59538018 -132.09312785 175.71371169 -134.46890259 161.76046753 C-136.63540699 154.07044941 -140.94048477 147.29025213 -145.05996704 140.50704956 C-149.28357131 133.53357852 -151.28805842 128.03614102 -151.19546509 119.77218628 C-151.20319946 119.07802612 -151.21093384 118.38386597 -151.21890259 117.66867065 C-151.20350853 113.61618557 -150.73604322 110.47979176 -148.94546509 106.83468628 C-147.24390259 107.29874878 -147.24390259 107.29874878 -145.50796509 107.77218628 C-142.30771727 108.62482779 -139.49707078 108.86433448 -136.19546509 108.89718628 C-132.36965722 109.32155063 -132.36965722 109.32155063 -130.73452759 111.29953003 C-129.62670121 113.76610073 -128.79587093 116.26698801 -127.94546509 118.83468628 C-126.9029041 121.58057622 -125.8045683 124.30257531 -124.69546509 127.02218628 C-124.39608032 127.7571936 -124.09669556 128.49220093 -123.78823853 129.2494812 C-119.18383654 140.32352793 -113.06736472 150.11309688 -105.63296509 159.50656128 C-103.94546509 161.83468628 -103.94546509 161.83468628 -103.94546509 163.83468628 C-102.50906337 164.03042236 -101.07127004 164.21596444 -99.63296509 164.39718628 C-98.83245728 164.50160034 -98.03194946 164.6060144 -97.20718384 164.71359253 C-94.77729393 164.98223806 -94.77729393 164.98223806 -91.94546509 163.83468628 C-91.08672845 158.85401379 -91.12957195 156.16051262 -93.82046509 151.78781128 C-94.64143322 150.66925477 -95.47557613 149.56028611 -96.32046509 148.45968628 C-110.11464295 130.44827507 -117.75694432 110.0798453 -121.58560181 87.9057312 C-121.87584874 86.23533452 -122.20024858 84.57089269 -122.53530884 82.90890503 C-125.86001926 57.98940879 -122.27862103 34.03136336 -107.63296509 13.52218628 C-97.26744425 0.4634019 -85.6533019 -9.22011652 -69.94546509 -15.16531372 C-68.87296509 -15.57781372 -67.80046509 -15.99031372 -66.69546509 -16.41531372 C-44.0815549 -20.93809576 -20.2415353 -8.82839093 0 0 Z " fill="#FEF1DD" transform="translate(231.94546508789063,184.16531372070313)"/>
<path d="M0 0 C-0.59024148 1.65087847 -1.19766006 3.29562407 -1.8125 4.9375 C-2.14894531 5.85402344 -2.48539063 6.77054688 -2.83203125 7.71484375 C-4 10 -4 10 -7 11 C-9.22982486 10.96883345 -11.45923923 10.90163043 -13.6875 10.8125 C-19.82621275 10.76820001 -24.01982888 11.39021153 -29 15 C-30.24136719 15.88751953 -30.24136719 15.88751953 -31.5078125 16.79296875 C-36.43617319 21.1574261 -39.40901785 27.44457514 -40.484375 33.9140625 C-40.74378084 43.12296976 -38.36575118 50.11715492 -32.21948242 56.93237305 C-28.06060107 60.80670658 -23.14983023 63.35200835 -18.1875 66.0625 C-16.44398361 67.04107442 -14.70048016 68.01967285 -12.95779419 68.99972534 C-11.15978169 70.0084996 -9.35826371 71.01077685 -7.55615234 72.01220703 C-1.9992031 75.10813255 3.49667951 78.31007593 9 81.5 C11.16638715 82.75048436 13.33305465 84.00048317 15.5 85.25 C28.5 92.75 28.5 92.75 31.7512207 94.62573242 C33.91378583 95.8733474 36.07638339 97.12090616 38.23901367 98.3684082 C43.71870371 101.52943449 49.19779358 104.69149309 54.67578125 107.85546875 C65.0668909 113.85619378 75.46165441 119.85042428 85.875 125.8125 C86.74294189 126.31031982 87.61088379 126.80813965 88.50512695 127.32104492 C89.30523193 127.77842041 90.10533691 128.2357959 90.9296875 128.70703125 C91.96971924 129.30221558 91.96971924 129.30221558 93.03076172 129.90942383 C93.68061035 130.26931396 94.33045898 130.6292041 95 131 C95.5995752 131.35666748 96.19915039 131.71333496 96.81689453 132.08081055 C99.69534029 133.40149274 99.69534029 133.40149274 106 134 C106 139.28 106 144.56 106 150 C83.17387995 150.72746133 61.50289998 148.80034913 39 145 C38.00516602 144.83483887 37.01033203 144.66967773 35.98535156 144.49951172 C6.06862364 139.36946893 -22.37882166 127.32530145 -50.125 115.4375 C-93.68764674 95.35218327 -93.68764674 95.35218327 -139.89306641 99.13574219 C-159.04480142 106.99172619 -175.27804412 121.16514143 -185.43359375 139.22265625 C-186.020802 140.26232544 -186.020802 140.26232544 -186.61987305 141.32299805 C-187.35611549 142.65981328 -188.06624735 144.0114507 -188.74536133 145.37817383 C-189.734375 147.2109375 -189.734375 147.2109375 -192 150 C-195.765625 150.4140625 -195.765625 150.4140625 -199 150 C-199.60649402 124.96527476 -195.1501848 101.57956976 -184 79 C-183.70399902 78.38108887 -183.40799805 77.76217773 -183.10302734 77.12451172 C-166.15634596 41.90361313 -134.11207408 14.72962439 -97.75 1.0625 C-66.61373234 -9.10745251 -31.14571905 -11.38350028 0 0 Z " fill="#FDC146" transform="translate(293,58)"/>
<path d="M0 0 C0 0.33 0 0.66 0 1 C-1.65 1 -3.3 1 -5 1 C-5.38285156 2.04800781 -5.38285156 2.04800781 -5.7734375 3.1171875 C-7.13652947 6.32088773 -8.82311046 9.14578024 -10.625 12.125 C-23.77290502 34.70147638 -29.18831325 58.05069132 -29.18530273 84.00732422 C-29.18750392 86.1287807 -29.20577779 88.24972761 -29.22460938 90.37109375 C-29.25315879 97.52727045 -28.9478772 104.08619081 -27 111 C-26.01 110.67 -25.02 110.34 -24 110 C-21.66700175 109.96045766 -19.33291811 109.95598268 -17 110 C-17.33 109.01 -17.66 108.02 -18 107 C-18.17398206 104.35889523 -18.27679015 101.76752888 -18.3125 99.125 C-18.35600586 98.06345703 -18.35600586 98.06345703 -18.40039062 96.98046875 C-18.44474356 93.31623433 -18.11157733 91.18418731 -16.19921875 88.02734375 C-14 86 -14 86 -10.5 85.4375 C-7 86 -7 86 -4.80078125 87.4375 C-2.06699836 91.32765526 -2.53111851 94.9301327 -2.6875 99.5625 C-2.69716797 100.42552734 -2.70683594 101.28855469 -2.71679688 102.17773438 C-2.78061685 105.74887813 -2.86225906 108.58677717 -4 112 C-3.34 112.04125 -2.68 112.0825 -2 112.125 C4.56758783 114.04054645 9.81418856 118.81231566 13.15234375 124.73046875 C15.31389467 130.51784702 14.90958658 136.69119009 12.4375 142.3125 C8.3303094 149.33493428 1.66774094 153.59054351 -6 156 C-7.32 156 -8.64 156 -10 156 C-4.9140019 167.49877831 3.44563715 176.92092716 12 186 C12.54914063 186.60199219 13.09828125 187.20398438 13.6640625 187.82421875 C27.82681618 202.78929591 46.27352978 212.12758927 65 220 C65 220.33 65 220.66 65 221 C34.88369482 221.69588382 4.53674313 212.98234654 -18.81445312 193.41723633 C-22.03694994 190.8549913 -23.63560402 189.99365294 -27.8125 190.06640625 C-31.0609673 190.7410724 -31.0609673 190.7410724 -33 193 C-33.58414702 196.37306618 -33.58414702 196.37306618 -33 200 C-29.54084655 203.99924432 -25.56377128 206.92116913 -21.1875 209.8125 C-20.22638306 210.45227783 -20.22638306 210.45227783 -19.24584961 211.10498047 C-12.15541169 215.71535105 -4.64254187 219.40469121 3 223 C3 223.66 3 224.32 3 225 C0.9630747 226.38950676 -1.07555309 227.6712694 -3.1875 228.9375 C-10.75483616 233.64013487 -17.39858143 239.0343381 -24 245 C-24.81210938 245.72832031 -25.62421875 246.45664062 -26.4609375 247.20703125 C-39.00614893 259.06995925 -47.44681544 274.65685394 -55 290 C-65.7145574 290.99670301 -75.6952696 286.42728626 -84 280 C-85.546875 278.9171875 -85.546875 278.9171875 -87.125 277.8125 C-95.53735976 270.47505288 -100.45113433 258.80894577 -101.44921875 247.8828125 C-102.11496294 236.09000779 -98.78837204 228.27872085 -91.9375 218.6875 C-83.82213284 206.7606939 -82.14766276 192.87902541 -84.5234375 178.92578125 C-86.68994191 171.23576313 -90.99501968 164.45556585 -95.11450195 157.67236328 C-99.33810622 150.69889224 -101.34259333 145.20145474 -101.25 136.9375 C-101.25773437 136.24333984 -101.26546875 135.54917969 -101.2734375 134.83398438 C-101.25804344 130.78149929 -100.79057813 127.64510548 -99 124 C-97.2984375 124.4640625 -97.2984375 124.4640625 -95.5625 124.9375 C-92.36225219 125.79014151 -89.55160569 126.0296482 -86.25 126.0625 C-82.42419213 126.48686435 -82.42419213 126.48686435 -80.7890625 128.46484375 C-79.68123612 130.93141445 -78.85040584 133.43230173 -78 136 C-76.95743901 138.74588994 -75.85910321 141.46788903 -74.75 144.1875 C-74.45061523 144.92250732 -74.15123047 145.65751465 -73.84277344 146.41479492 C-69.23837145 157.48884165 -63.12189963 167.2784106 -55.6875 176.671875 C-54 179 -54 179 -54 181 C-52.56359829 181.19573608 -51.12580496 181.38127816 -49.6875 181.5625 C-48.88699219 181.66691406 -48.08648437 181.77132812 -47.26171875 181.87890625 C-44.83182884 182.14755178 -44.83182884 182.14755178 -42 181 C-41.14126336 176.01932751 -41.18410687 173.32582634 -43.875 168.953125 C-44.69596814 167.8345685 -45.53011104 166.72559983 -46.375 165.625 C-60.16917786 147.61358879 -67.81147923 127.24515902 -71.64013672 105.07104492 C-71.93038365 103.40064824 -72.25478349 101.73620641 -72.58984375 100.07421875 C-75.91455418 75.15472252 -72.33315594 51.19667708 -57.6875 30.6875 C-47.32197916 17.62871562 -35.70783681 7.9451972 -20 2 C-18.9275 1.5875 -17.855 1.175 -16.75 0.75 C-11.17582928 -0.36483414 -5.66479932 -0.15333291 0 0 Z " fill="#FDE2C0" transform="translate(182,167)"/>
<path d="M0 0 C1.7015625 0.4640625 1.7015625 0.4640625 3.4375 0.9375 C6.63774781 1.79014151 9.44839431 2.0296482 12.75 2.0625 C16.57580787 2.48686435 16.57580787 2.48686435 18.2109375 4.46484375 C19.31876388 6.93141445 20.14959416 9.43230173 21 12 C22.04256099 14.74588994 23.14089679 17.46788903 24.25 20.1875 C24.54938477 20.92250732 24.84876953 21.65751465 25.15722656 22.41479492 C29.76162855 33.48884165 35.87810037 43.2784106 43.3125 52.671875 C45 55 45 55 45 57 C46.43725871 57.16873478 47.87481838 57.33490737 49.3125 57.5 C50.51326172 57.63921875 50.51326172 57.63921875 51.73828125 57.78125 C54.11896555 58.04813463 54.11896555 58.04813463 57 58 C60.96647962 60.89779081 65.55854724 64.38912225 66.41015625 69.42578125 C66.25 71.75 66.25 71.75 65.828125 73.859375 C66.11371022 77.41620905 68.37677132 78.73907647 71 81 C73.20943346 82.70386757 75.48494224 84.27472065 77.8125 85.8125 C78.45324463 86.23901855 79.09398926 86.66553711 79.75415039 87.10498047 C86.84458831 91.71535105 94.35745813 95.40469121 102 99 C102 99.66 102 100.32 102 101 C99.9630747 102.38950676 97.92444691 103.6712694 95.8125 104.9375 C88.24516384 109.64013487 81.60141857 115.0343381 75 121 C74.18789062 121.72832031 73.37578125 122.45664062 72.5390625 123.20703125 C59.99385107 135.06995925 51.55318456 150.65685394 44 166 C33.2854426 166.99670301 23.3047304 162.42728626 15 156 C13.96875 155.278125 12.9375 154.55625 11.875 153.8125 C3.46264024 146.47505288 -1.45113433 134.80894577 -2.44921875 123.8828125 C-3.11496294 112.09000779 0.21162796 104.27872085 7.0625 94.6875 C15.17786716 82.7606939 16.85233724 68.87902541 14.4765625 54.92578125 C12.31005809 47.23576313 8.00498032 40.45556585 3.88549805 33.67236328 C-0.33810622 26.69889224 -2.34259333 21.20145474 -2.25 12.9375 C-2.25773437 12.24333984 -2.26546875 11.54917969 -2.2734375 10.83398438 C-2.25804344 6.78149929 -1.79057813 3.64510548 0 0 Z " fill="#FDAF3A" transform="translate(83,291)"/>
<path d="M0 0 C2.77668608 8.33005823 2.28213004 20.57595172 -1.5234375 28.515625 C-3.7832587 32.31786384 -6.1745083 36.04787543 -8.73803711 39.65332031 C-16.5178041 50.96752885 -16.24757547 64.80000668 -15 78 C-13.99265813 82.52573882 -12.37600981 86.03816713 -10 90 C-9.64099609 90.61343262 -9.28199219 91.22686523 -8.91210938 91.85888672 C-6.98353411 95.15393593 -5.01456874 98.41656007 -2.98828125 101.65234375 C2.46172642 110.82848633 2.23128086 121.09547566 0.3828125 131.4609375 C-3.34505955 144.03013442 -12.00137743 153.84694263 -23.28515625 160.30859375 C-30.13297569 163.605692 -37.41225322 165.16144142 -45 165 C-45.25579834 164.49251221 -45.51159668 163.98502441 -45.77514648 163.4621582 C-58.87404638 137.62910835 -76.33648098 113.33175951 -103 100 C-103 99.34 -103 98.68 -103 98 C-101.98421875 97.5153125 -100.9684375 97.030625 -99.921875 96.53125 C-64.57162537 79.42100475 -35.65566336 50.18291044 -22.29199219 12.80615234 C-21.5399167 10.61623092 -20.81225105 8.4198806 -20.09375 6.21875 C-19 3 -19 3 -18 2 C-16.04878907 1.62723135 -14.0885087 1.30135385 -12.125 1 C-1.78418451 -0.59472817 -1.78418451 -0.59472817 0 0 Z " fill="#FDAF3A" transform="translate(411,292)"/>
<path d="M0 0 C4.53124396 1.65412401 8.61864057 3.89701726 12.8125 6.25 C13.59238281 6.68546143 14.37226563 7.12092285 15.17578125 7.56958008 C23.73353842 12.37245415 32.19617718 17.33793988 40.6640625 22.296875 C50.29579239 27.93452427 59.97232871 33.49458498 69.64306641 39.06494141 C73.13192703 41.07604754 76.61894828 43.09030995 80.10546875 45.10546875 C81.28205212 45.78525786 82.45864705 46.46502695 83.63525391 47.14477539 C85.85268378 48.42598166 88.06982559 49.70768667 90.28662109 50.98999023 C96.16097076 54.38257007 102.05612428 57.73063416 108 61 C107.1558084 65.00709611 105.40136874 67.46484168 102.9375 70.75 C102.20402344 71.73484375 101.47054687 72.7196875 100.71484375 73.734375 C100.14894531 74.48203125 99.58304688 75.2296875 99 76 C93.67862574 75.37749961 89.71813651 72.57906114 85.34765625 69.70703125 C82.0409679 67.67941356 80.09405561 66.99826892 76.1796875 67.0703125 C72.72949272 67.70923541 72.72949272 67.70923541 71 71 C70.79544565 74.48969734 70.79544565 74.48969734 72 78 C74.26805732 79.85794284 76.07354596 81.05423239 78.625 82.375 C79.98712369 83.1377628 81.34909839 83.90079173 82.7109375 84.6640625 C83.41573242 85.04723633 84.12052734 85.43041016 84.84667969 85.82519531 C88.3516408 87.7374258 91.80396167 89.73407183 95.25 91.75 C95.88115723 92.10239746 96.51231445 92.45479492 97.16259766 92.81787109 C100.96777982 95.03124812 103.19848662 96.957735 105 101 C105.53635899 105.82723092 105.52017901 107.97890786 103.3125 112.3125 C100.11520841 116.02827131 97.88370902 117.73647594 92.984375 118.421875 C87.49353112 118.31184378 83.14354481 115.11683669 78.5625 112.375 C77.55678955 111.78960449 76.5510791 111.20420898 75.51489258 110.60107422 C72.33541648 108.74709909 69.16793752 106.87360597 66 105 C64.02454405 103.84706027 62.04800377 102.69597615 60.0703125 101.546875 C56.09647786 99.23687497 52.12673472 96.92009354 48.16015625 94.59765625 C38.56057762 88.98321325 28.91864049 83.4419968 19.28222656 77.89111328 C16.01825673 76.01051894 12.75505811 74.12859454 9.4921875 72.24609375 C7.8824707 71.3176062 7.8824707 71.3176062 6.24023438 70.37036133 C4.09238133 69.13055556 1.94523691 67.88952127 -0.20117188 66.6472168 C-5.26695217 63.71745587 -10.33922019 60.80132272 -15.43914795 57.93145752 C-17.84259235 56.57790558 -20.24175442 55.21686229 -22.640625 53.85522461 C-24.331815 52.89940706 -26.02912133 51.95443714 -27.7265625 51.00976562 C-28.75265625 50.42646484 -29.77875 49.84316406 -30.8359375 49.2421875 C-31.73876465 48.7354248 -32.6415918 48.22866211 -33.57177734 47.70654297 C-37.30430735 45.0833392 -39.5575852 42.32724439 -41 38 C-41.46995626 34.50889633 -41.67927049 32.05757191 -39.73046875 29.0234375 C-36.47504758 25.17396137 -34.67825834 23.17981339 -29.5 22.625 C-20.4491882 22.75464457 -11.55382793 29.90866446 -4 34.375 C-1.88836371 35.61516734 0.22362846 36.85472887 2.3359375 38.09375 C3.96934082 39.0528125 3.96934082 39.0528125 5.63574219 40.03125 C12.38583106 43.98137458 19.16202352 47.88651388 25.94433594 51.78100586 C30.49654699 54.3953014 35.04417381 57.01071952 39.5390625 59.72265625 C40.18278809 60.10631348 40.82651367 60.4899707 41.48974609 60.88525391 C43.08718708 61.84017355 44.67687132 62.80803937 46.265625 63.77734375 C49.4169109 65.18641873 51.58336607 65.31940204 55 65 C57.01951062 64.06402685 57.01951062 64.06402685 58 62 C58.66676878 58.54250051 58.66676878 58.54250051 58 55 C53.65284674 50.72484928 47.98202286 48.05422483 42.6875 45.125 C34.18180982 40.37043583 25.72283348 35.5464003 17.3125 30.625 C16.35883545 30.06699707 15.4051709 29.50899414 14.42260742 28.93408203 C12.57134786 27.85006475 10.7203486 26.76560279 8.86962891 25.68066406 C3.9171573 22.78013535 -1.04159256 19.89036619 -6 17 C-5.33795085 12.62356267 -4.34291714 9.13126169 -2.4375 5.125 C-1.98246094 4.15820312 -1.52742188 3.19140625 -1.05859375 2.1953125 C-0.53458984 1.10863281 -0.53458984 1.10863281 0 0 Z " fill="#7E7668" transform="translate(308,60)"/>
<path d="M0 0 C0 0.33 0 0.66 0 1 C-0.69480469 1.17273437 -1.38960937 1.34546875 -2.10546875 1.5234375 C-39.73077701 11.91927679 -71.88363831 39.53537477 -90.9921875 73.16015625 C-95.09289017 80.65186426 -98.82722488 87.85415715 -101.07958984 96.11547852 C-103.69272649 105.55950128 -103.69272649 105.55950128 -108.56640625 108.546875 C-111.9798652 110.30955281 -115.52344401 111.71619016 -119.08789062 113.140625 C-123.67007851 115.20003528 -127.28053949 118.69830498 -131 122 C-132.00546875 122.79277344 -132.00546875 122.79277344 -133.03125 123.6015625 C-140.59395047 129.69373788 -146.67408122 137.71913519 -151.390625 146.17578125 C-151.77742432 146.86478516 -152.16422363 147.55378906 -152.56274414 148.26367188 C-153.29857494 149.60404349 -154.0099596 150.95820206 -154.69311523 152.32617188 C-155.69921875 154.17578125 -155.69921875 154.17578125 -158 157 C-161.76953125 157.41796875 -161.76953125 157.41796875 -165 157 C-165.60649402 131.96527476 -161.1501848 108.57956976 -150 86 C-149.70399902 85.38108887 -149.40799805 84.76217773 -149.10302734 84.12451172 C-132.15634596 48.90361313 -100.11207408 21.72962439 -63.75 8.0625 C-42.61704822 1.15990273 -22.12002007 -0.34131782 0 0 Z " fill="#FDAF3A" transform="translate(259,51)"/>
<path d="M0 0 C1.05916626 -0.00671722 2.11833252 -0.01343445 3.20959473 -0.02035522 C6.71041561 -0.03934942 10.21104486 -0.04326038 13.71191406 -0.04541016 C16.14943521 -0.0518378 18.58695558 -0.05856614 21.0244751 -0.06558228 C26.13547554 -0.07755912 31.24640838 -0.08126274 36.35742188 -0.08007812 C42.89538086 -0.07987508 49.43290446 -0.1071608 55.97076035 -0.14162254 C61.00663225 -0.16390067 66.0423996 -0.16791535 71.07831573 -0.16685867 C73.48797351 -0.16921388 75.89763421 -0.17803278 78.30724335 -0.19352341 C81.6843021 -0.213198 85.06042501 -0.20733839 88.4375 -0.1953125 C89.42586853 -0.20655151 90.41423706 -0.21779053 91.43255615 -0.22937012 C98.85796791 -0.16244049 105.07978721 1.38627201 110.81738281 6.29052734 C111.34460938 6.95052734 111.87183594 7.61052734 112.41503906 8.29052734 C112.9603125 8.95052734 113.50558594 9.61052734 114.06738281 10.29052734 C118.16022902 16.0953397 118.17822288 21.31063852 117.47753906 28.29052734 C115.7243484 34.87054042 111.07426083 39.60585287 105.47753906 43.29052734 C99.95345339 45.68699214 94.7371205 45.5864426 88.82568359 45.58105469 C87.76476501 45.58777191 86.70384644 45.59448914 85.61077881 45.60140991 C82.11058849 45.62037685 78.61059004 45.62431338 75.11035156 45.62646484 C72.67186403 45.63289326 70.23337727 45.63962166 67.79489136 45.64663696 C62.6856711 45.65860618 57.57651844 45.6623181 52.46728516 45.66113281 C45.92813578 45.66092956 39.38942068 45.6882408 32.85037422 45.72267723 C27.81454486 45.74493916 22.77882016 45.74897057 17.74294662 45.74791336 C15.33246233 45.75027002 12.92197519 45.75909715 10.51153946 45.77457809 C7.13677991 45.79422444 3.76295901 45.78840468 0.38818359 45.77636719 C-1.09740555 45.79322571 -1.09740555 45.79322571 -2.61300659 45.8104248 C-9.71586912 45.74620795 -15.02603692 44.23741517 -20.51074219 39.61474609 C-25.50407066 33.44305101 -28.16768382 27.83691142 -27.86230469 19.77490234 C-26.87987923 12.59303352 -22.98388673 8.32116967 -17.62011719 3.73583984 C-11.95280859 -0.16900966 -6.66473487 -0.00606216 0 0 Z " fill="#FE876F" transform="translate(201.5224609375,451.70947265625)"/>
<path d="M0 0 C4.15850073 0.3322317 7.20227619 2.03866379 10.76953125 4.10546875 C11.89311035 4.75201416 13.01668945 5.39855957 14.17431641 6.06469727 C15.38714046 6.77213329 16.59986584 7.47973851 17.8125 8.1875 C19.07437253 8.91716408 20.33658429 9.64624177 21.59912109 10.37475586 C25.40487868 12.5738255 29.20285646 14.78610095 33 17 C34.06943848 17.62229492 35.13887695 18.24458984 36.24072266 18.88574219 C41.15501567 21.74574505 46.0652373 24.61259589 50.97265625 27.484375 C57.48523874 31.29063916 64.02396519 35.05105446 70.5625 38.8125 C79.76854012 44.1110089 88.92759944 49.47571649 98 55 C97.44168433 58.73340422 96.48241689 61.1955494 94.33984375 64.29296875 C93.79674561 65.08405029 93.25364746 65.87513184 92.6940918 66.69018555 C92.1144165 67.51429932 91.53474121 68.33841309 90.9375 69.1875 C90.35202393 70.03159424 89.76654785 70.87568848 89.16333008 71.74536133 C85.00518991 77.69366072 80.70550418 83.46996639 76 89 C72.51383846 88.32313971 69.82250989 86.93012425 66.73828125 85.19140625 C65.710979 84.61463135 64.68367676 84.03785645 63.62524414 83.44360352 C62.53203857 82.82283936 61.43883301 82.2020752 60.3125 81.5625 C59.18126709 80.9243335 58.05003418 80.28616699 56.88452148 79.62866211 C50.08363441 75.78135844 43.31657132 71.88189152 36.59594727 67.89624023 C18.85948437 57.37970553 0.9141858 47.20987354 -17 37 C-14.61264071 29.20572942 -11.37590581 21.94580733 -7.9375 14.5625 C-7.39544922 13.37978516 -6.85339844 12.19707031 -6.29492188 10.97851562 C-2.25544709 2.25544709 -2.25544709 2.25544709 0 0 Z " fill="#6F685A" transform="translate(341,15)"/>
<path d="M0 0 C1.12921875 -0.02449219 2.2584375 -0.04898437 3.421875 -0.07421875 C12.06795426 -0.10423986 19.20734471 1.21118282 26.125 6.625 C31.00904686 12.94553123 33.01512732 18.04114167 32.6875 26.16015625 C31.22965799 36.87269171 26.38542081 45.32430197 18.25 52.375 C10.70811555 57.36751506 3.09874697 58.15609998 -5.75 57.375 C-14.94092699 54.99482234 -21.85921614 48.48452346 -26.7421875 40.5625 C-29.43993438 34.70692538 -30.11373202 29.15073621 -30.125 22.8125 C-30.14949219 22.08353516 -30.17398438 21.35457031 -30.19921875 20.60351562 C-30.23228159 14.48137892 -28.25282538 11.04925178 -24.0390625 6.546875 C-23.48992187 6.07765625 -22.94078125 5.6084375 -22.375 5.125 C-21.83101562 4.64546875 -21.28703125 4.1659375 -20.7265625 3.671875 C-14.38236986 -0.4907178 -7.2816726 0.00820008 0 0 Z " fill="#030302" transform="translate(245.75,258.625)"/>
<path d="M0 0 C2.171875 1.421875 2.171875 1.421875 4 4 C4.63063852 7.2432838 4.69642414 10.45264938 4.75 13.75 C4.77964844 14.63816406 4.80929687 15.52632813 4.83984375 16.44140625 C4.91036918 18.62769449 4.96314637 20.81292768 5 23 C5.79664063 23.24234375 6.59328125 23.4846875 7.4140625 23.734375 C16.81451166 26.70775308 23.02045263 30.09219468 29 38 C31.56490412 43.12980825 30.57937544 50.95287344 29.0625 56.3125 C23.50489004 63.5542342 17.05076868 68.9126001 7.86450195 70.3293457 C-2.4904758 71.16565081 -11.37555622 70.32274335 -20 64 C-24.46139999 60.01098354 -27.57730927 55.80421657 -28.25 49.75 C-28.54646256 43.67251745 -27.79796818 38.86867197 -24 34 C-19.77182472 30.07158342 -15.0607493 26.77524962 -10 24 C-10.33 23.34 -10.66 22.68 -11 22 C-11.17743353 19.02726117 -11.27758855 16.09945569 -11.3125 13.125 C-11.34150391 12.30902344 -11.37050781 11.49304688 -11.40039062 10.65234375 C-11.46399227 4.65421904 -11.46399227 4.65421904 -9.19921875 1.4609375 C-5.97152367 -0.68321518 -3.78471038 -0.54067291 0 0 Z " fill="#FEA1AC" transform="translate(325,253)"/>
<path d="M0 0 C3.5 0.5625 3.5 0.5625 5.69921875 2 C8.43300164 5.89015526 7.96888149 9.4926327 7.8125 14.125 C7.79799805 15.41954102 7.79799805 15.41954102 7.78320312 16.74023438 C7.71938315 20.31137813 7.63774094 23.14927717 6.5 26.5625 C7.16 26.60375 7.82 26.645 8.5 26.6875 C15.06758783 28.60304645 20.31418856 33.37481566 23.65234375 39.29296875 C25.81389467 45.08034702 25.40958658 51.25369009 22.9375 56.875 C20.51385478 61.01892487 17.45078668 63.88104238 13.5 66.5625 C12.89929688 66.97757812 12.29859375 67.39265625 11.6796875 67.8203125 C3.65181126 72.32221957 -7.60279698 71.91294351 -16.3828125 69.90234375 C-23.06560206 67.21292844 -28.74280991 62.41793389 -32.5 56.3125 C-34.24689759 49.76163404 -34.95443833 43.34194868 -31.5 37.25 C-27.0251935 31.08134019 -20.68177422 26.91289884 -13.5 24.5625 C-9.5625 24.375 -9.5625 24.375 -6.5 24.5625 C-6.83 23.5725 -7.16 22.5825 -7.5 21.5625 C-7.67398206 18.92139523 -7.77679015 16.33002888 -7.8125 13.6875 C-7.84150391 12.97980469 -7.87050781 12.27210938 -7.90039062 11.54296875 C-7.94474356 7.87873433 -7.61157733 5.74668731 -5.69921875 2.58984375 C-3.5 0.5625 -3.5 0.5625 0 0 Z " fill="#FEA1AC" transform="translate(171.5,252.4375)"/>
<path d="M0 0 C5.61 0.66 11.22 1.32 17 2 C20.09696129 2.15789423 23.09687351 2.28432267 26.18359375 2.265625 C26.93488052 2.26753845 27.6861673 2.2694519 28.46022034 2.27142334 C30.01148829 2.27275716 31.56276854 2.26926281 33.11401367 2.26074219 C35.46103044 2.24989121 37.80730103 2.26078917 40.15429688 2.2734375 C47.22113581 2.27901739 54.0493671 2.20464627 60.94165039 0.42871094 C63 0 63 0 68 0 C68 12.21 68 24.42 68 37 C45.56 37 23.12 37 0 37 C0 24.79 0 12.58 0 0 Z " fill="#EECEA2" transform="translate(213,400)"/>
<path d="M0 0 C4.53124396 1.65412401 8.61864057 3.89701726 12.8125 6.25 C13.59238281 6.68546143 14.37226563 7.12092285 15.17578125 7.56958008 C23.73353842 12.37245415 32.19617718 17.33793988 40.6640625 22.296875 C50.29579239 27.93452427 59.97232871 33.49458498 69.64306641 39.06494141 C73.13192703 41.07604754 76.61894828 43.09030995 80.10546875 45.10546875 C81.28205212 45.78525786 82.45864705 46.46502695 83.63525391 47.14477539 C85.85268378 48.42598166 88.06982559 49.70768667 90.28662109 50.98999023 C96.16097076 54.38257007 102.05612428 57.73063416 108 61 C107.1558084 65.00709611 105.40136874 67.46484168 102.9375 70.75 C102.20402344 71.73484375 101.47054687 72.7196875 100.71484375 73.734375 C100.14894531 74.48203125 99.58304687 75.2296875 99 76 C93.67862574 75.37749961 89.71813651 72.57906114 85.34765625 69.70703125 C82.05353983 67.6871225 80.2028514 66.98927847 76.3046875 67.1953125 C73.17572243 67.90632513 73.17572243 67.90632513 70.88671875 68.71484375 C67.12428901 69.28349255 64.20770089 66.80964458 61.1328125 64.88671875 C59 63 59 63 58.3046875 60.95703125 C58.19295406 58.97190051 58.09609432 56.98594922 58 55 C53.71521048 50.69728249 47.95983153 48.04194735 42.6875 45.125 C34.18180982 40.37043583 25.72283348 35.5464003 17.3125 30.625 C16.35883545 30.06699707 15.4051709 29.50899414 14.42260742 28.93408203 C12.57134786 27.85006475 10.7203486 26.76560279 8.86962891 25.68066406 C3.9171573 22.78013535 -1.04159256 19.89036619 -6 17 C-5.33795085 12.62356267 -4.34291714 9.13126169 -2.4375 5.125 C-1.75494141 3.67480469 -1.75494141 3.67480469 -1.05859375 2.1953125 C-0.70925781 1.47085938 -0.35992187 0.74640625 0 0 Z " fill="#FB9885" transform="translate(308,60)"/>
<path d="M0 0 C1.01394333 0.0028299 2.02788666 0.00565979 3.07255554 0.00857544 C6.30239802 0.01974625 9.53196046 0.04484539 12.76171875 0.0703125 C14.95507411 0.0803463 17.14843383 0.08947145 19.34179688 0.09765625 C24.71103261 0.11967543 30.08010567 0.15312227 35.44921875 0.1953125 C34.78921875 0.5253125 34.12921875 0.8553125 33.44921875 1.1953125 C32.74384077 2.50857719 32.08327065 3.84616447 31.44921875 5.1953125 C31.02382812 5.88367188 30.5984375 6.57203125 30.16015625 7.28125 C25.96483814 14.46971904 25.41151431 20.98976074 26.44921875 29.1953125 C27.79311155 34.04190461 30.12727313 37.77923966 33.03442383 41.83032227 C33.48618484 42.46051773 33.93794586 43.0907132 34.40339661 43.74000549 C34.74851791 44.22025681 35.09363922 44.70050812 35.44921875 45.1953125 C29.04473535 45.29716527 22.64046268 45.36696708 16.23535156 45.41503906 C14.05883987 45.43509014 11.88238161 45.46233821 9.70605469 45.49707031 C6.56822482 45.54587462 3.4311104 45.56834688 0.29296875 45.5859375 C-0.67193481 45.60658264 -1.63683838 45.62722778 -2.63098145 45.64849854 C-9.7598664 45.65083874 -15.03705005 44.15678732 -20.5390625 39.51953125 C-25.53239098 33.34783617 -28.19600413 27.74169658 -27.890625 19.6796875 C-26.90819955 12.49781867 -23.01220705 8.22595483 -17.6484375 3.640625 C-11.95465501 -0.28246535 -6.69193883 -0.07045991 0 0 Z " fill="#FD6B51" transform="translate(201.55078125,451.8046875)"/>
<path d="M0 0 C0 11.55 0 23.1 0 35 C-4.455 35.495 -4.455 35.495 -9 36 C-19.00343584 38.7766662 -27.37332462 44.18697857 -32.91796875 53.07421875 C-37.80073763 62.50341377 -40.08548874 72.12616887 -36.91796875 82.56640625 C-35.68437376 85.74815701 -34.3711394 88.87560038 -33 92 C-32.67 92.99 -32.34 93.98 -32 95 C-35.70791544 95.14592789 -39.41508726 95.23427895 -43.125 95.3125 C-44.17171875 95.35439453 -45.2184375 95.39628906 -46.296875 95.43945312 C-55.02674641 95.577584 -55.02674641 95.577584 -58.65625 92.59375 C-62.54097451 88.29465488 -63.20004486 86.03556338 -63.14306641 80.16479492 C-61.48973543 55.14758365 -41.72555977 30.0386797 -23.8203125 14.23828125 C-18.5177164 10.02998822 -12.77771248 6.51318781 -7 3 C-6.07832031 2.41992188 -5.15664062 1.83984375 -4.20703125 1.2421875 C-2 0 -2 0 0 0 Z " fill="#EDB785" transform="translate(198,402)"/>
<path d="M0 0 C11.64708933 4.65883573 20.79698144 11.68328798 30 20 C30.72960937 20.64582031 31.45921875 21.29164063 32.2109375 21.95703125 C48.5674692 37.27876197 61.44483398 60.79302107 63.25 83.16015625 C62.85750999 87.61859741 60.88213722 89.96052769 58.05078125 93.296875 C53.26215854 95.97016501 48.56655625 95.42086801 43.1875 95.25 C42.11306641 95.23195313 41.03863281 95.21390625 39.93164062 95.1953125 C37.28684535 95.14829392 34.64388411 95.0825916 32 95 C32.34933594 94.18015625 32.69867188 93.3603125 33.05859375 92.515625 C33.51363281 91.43796875 33.96867187 90.3603125 34.4375 89.25 C34.88996094 88.18265625 35.34242188 87.1153125 35.80859375 86.015625 C39.12593096 77.61895509 39.58022906 67.16677643 36.4375 58.625 C31.24096857 47.72495846 23.69395682 41.26622755 12.375 37.1875 C8.19181517 35.82341799 4.57063494 35.57132937 0 35 C0 23.45 0 11.9 0 0 Z " fill="#EDCDA1" transform="translate(295,402)"/>
<path d="M0 0 C4.3624951 0.31532655 7.59645943 2.26341036 11.33203125 4.421875 C11.92747238 4.7637384 12.52291351 5.10560181 13.13639832 5.45782471 C15.03227927 6.54869942 16.92229263 7.64933015 18.8125 8.75 C20.07061211 9.47456888 21.32907274 10.19853297 22.58789062 10.921875 C28.79846186 14.50052639 34.95465189 18.14675428 41 22 C40.01 22.495 40.01 22.495 39 23 C38.29362845 24.98632416 37.63513334 26.98976367 37 29 C36.01371894 31.32143913 34.9985239 33.63072155 33.9609375 35.9296875 C33.67521881 36.56488312 33.38950012 37.20007874 33.09512329 37.85452271 C32.19112893 39.86258462 31.28313664 41.86880854 30.375 43.875 C29.7575463 45.24467169 29.14035619 46.61446225 28.5234375 47.984375 C27.01866963 51.32429612 25.51031328 54.66258221 24 58 C19.77321872 58 18.60735755 57.48347056 15.0703125 55.4375 C14.11584229 54.8911792 13.16137207 54.3448584 12.17797852 53.78198242 C11.17049561 53.19392822 10.1630127 52.60587402 9.125 52 C8.09882568 51.41001221 7.07265137 50.82002441 6.01538086 50.2121582 C3.96022339 49.029865 1.9070464 47.84412187 -0.14404297 46.65478516 C-3.29310037 44.83017317 -6.45273711 43.0249226 -9.61572266 41.22460938 C-12.08015444 39.82164687 -14.54020764 38.41107673 -17 37 C-14.61264071 29.20572942 -11.37590581 21.94580733 -7.9375 14.5625 C-7.39544922 13.37978516 -6.85339844 12.19707031 -6.29492188 10.97851562 C-2.25544709 2.25544709 -2.25544709 2.25544709 0 0 Z " fill="#625C4F" transform="translate(341,15)"/>
<path d="M0 0 C7.86989667 3.15762037 15.20429355 7.9093192 22.5 12.1875 C23.5828125 12.81591797 24.665625 13.44433594 25.78125 14.09179688 C26.8125 14.69443359 27.84375 15.29707031 28.90625 15.91796875 C30.30327148 16.73430786 30.30327148 16.73430786 31.72851562 17.56713867 C34 19 34 19 36 21 C34.4221875 21.7425 34.4221875 21.7425 32.8125 22.5 C28.39142338 25.0557948 25.95628162 28.30983527 24 33 C23.3690069 36.01474479 23.12634906 38.92983972 23 42 C19.33193508 40.00255676 15.66579306 38.00160918 12 36 C11.01016113 35.46101074 10.02032227 34.92202148 9.00048828 34.36669922 C6.01477325 32.73495408 3.03810816 31.08759231 0.0625 29.4375 C-0.95134766 28.88642578 -1.96519531 28.33535156 -3.00976562 27.76757812 C-13.73631544 21.79105367 -13.73631544 21.79105367 -16 15 C-16.46995626 11.50889633 -16.67927049 9.05757191 -14.73046875 6.0234375 C-10.31266644 0.79946689 -7.04616726 -1.03773262 0 0 Z " fill="#6E6759" transform="translate(283,83)"/>
<path d="M0 0 C0.0272415 1.41655793 0.04650467 2.83327045 0.0625 4.25 C0.07410156 5.03890625 0.08570312 5.8278125 0.09765625 6.640625 C0 9 0 9 -0.49780273 10.76928711 C-1.12899054 13.57296381 -1.1297705 16.17673991 -1.1328125 19.05078125 C-1.13410156 20.22447266 -1.13539062 21.39816406 -1.13671875 22.60742188 C-1.13091797 24.44143555 -1.13091797 24.44143555 -1.125 26.3125 C-1.12886719 27.52357422 -1.13273437 28.73464844 -1.13671875 29.98242188 C-1.13037722 35.77540992 -0.9590955 41.2907386 0 47 C0.06056151 48.64485066 0.08781955 50.29172957 0.0625 51.9375 C0.05347656 52.70964844 0.04445313 53.48179687 0.03515625 54.27734375 C0.02355469 54.84582031 0.01195313 55.41429687 0 56 C-7.28327754 55.16247609 -12.99521937 51.62525738 -17.68359375 45.96875 C-22.78174095 38.10217272 -24.04677698 30.26833785 -23 21 C-20.88009476 14.16709115 -16.8238742 8.19808905 -11 4 C-2.98813056 0 -2.98813056 0 0 0 Z " fill="#EECDA2" transform="translate(96,223)"/>
<path d="M0 0 C8.81596647 1.6444994 14.8700229 6.73931812 20 14 C23.63618377 20.1763547 23.81110352 27.00648524 23 34 C20.9730435 41.75910228 17.44522122 47.24382302 11.1875 52.25 C7.43179954 54.31195319 4.18386108 55.13437357 0 56 C0.0707373 55.23558594 0.14147461 54.47117187 0.21435547 53.68359375 C0.9484235 45.1069957 1.15134228 36.60514615 1.125 28 C1.12886719 26.73671875 1.13273437 25.4734375 1.13671875 24.171875 C1.1283831 16.06962168 0.74655987 8.06760825 0 0 Z " fill="#FBE1BF" transform="translate(397,223)"/>
<path d="M0 0 C4.68925657 1.69847088 8.91475806 4.06626173 13.25 6.5 C14.02907715 6.93489746 14.8081543 7.36979492 15.61083984 7.81787109 C23.81479248 12.41888133 31.91672793 17.19096472 40 22 C39.37954537 26.23322844 37.89476441 29.52290295 35.9375 33.3125 C35.11572266 34.91544922 35.11572266 34.91544922 34.27734375 36.55078125 C33.85582031 37.35902344 33.43429687 38.16726562 33 39 C5.3829849 24.03571429 5.3829849 24.03571429 -6 17 C-5.49487476 10.77012202 -2.67395877 5.54525767 0 0 Z " fill="#FA856E" transform="translate(308,60)"/>
<path d="M0 0 C1.55557617 -0.0299707 1.55557617 -0.0299707 3.14257812 -0.06054688 C7.68952178 -0.05762655 10.72132848 -0.0274122 14.75 2.19921875 C17.30645131 5.35621573 17.21920975 7.1394046 16.98046875 11.0625 C15.74908168 18.05954057 12.26873911 22.43099169 6.5625 26.4375 C2.83197433 27.68100856 -0.56302043 27.95948871 -4.4375 27.4375 C-10.17288439 24.56980781 -13.41637258 20.50088225 -15.4375 14.4375 C-15.60548795 12.60890987 -15.70312078 10.77319173 -15.75 8.9375 C-15.78738281 7.9784375 -15.82476562 7.019375 -15.86328125 6.03125 C-15.4375 3.4375 -15.4375 3.4375 -13.73876953 1.80249023 C-9.51487491 -0.70289857 -4.79056974 -0.03262927 0 0 Z " fill="#524D42" transform="translate(246.4375,273.5625)"/>
<path d="M0 0 C2.1953125 1.5 2.1953125 1.5 4 4 C4.34612503 6.98019513 4.4705768 9.53711928 4.375 12.5 C4.37371094 13.25925781 4.37242187 14.01851563 4.37109375 14.80078125 C4.31072486 18.63085217 4.23934573 21.80208541 2 25 C-0.54269034 26.90701775 -1.85599893 27.00587759 -5.0625 26.875 C-8 26 -8 26 -9.65625 24.5078125 C-11.67758152 20.73544379 -11.47452606 17.2142394 -11.4375 13 C-11.45748047 12.19304687 -11.47746094 11.38609375 -11.49804688 10.5546875 C-11.49488266 6.71965499 -11.46521931 4.65110607 -9.19140625 1.46875 C-5.97077196 -0.68982129 -3.78532019 -0.54076003 0 0 Z " fill="#070605" transform="translate(325,253)"/>
<path d="M0 0 C3.5 0.5625 3.5 0.5625 5.68359375 2.00390625 C8.42854212 5.87044643 8.12185261 9.43299608 8.0625 14.0625 C8.08634766 14.91714844 8.11019531 15.77179688 8.13476562 16.65234375 C8.12019893 22.87718019 8.12019893 22.87718019 5.15625 26.15234375 C2.5 27.5625 2.5 27.5625 -0.5625 27.625 C-4.32244584 26.26501959 -5.3744365 24.93733761 -7.5 21.5625 C-7.89483767 18.7289591 -8.06233548 16.37798571 -8 13.5625 C-8.02320313 12.51449219 -8.02320313 12.51449219 -8.046875 11.4453125 C-8.01964383 7.83718213 -7.57921805 5.69208298 -5.6875 2.59765625 C-3.5 0.5625 -3.5 0.5625 0 0 Z " fill="#080706" transform="translate(171.5,252.4375)"/>
<path d="M0 0 C5.61 0.66 11.22 1.32 17 2 C15.02 2.99 15.02 2.99 13 4 C11.10572882 5.32707537 9.23188602 6.68359947 7.375 8.0625 C2.19444444 11.90277778 2.19444444 11.90277778 0 13 C0 8.71 0 4.42 0 0 Z " fill="#ECB785" transform="translate(213,400)"/>
<path d="M0 0 C0.33 0 0.66 0 1 0 C1 1.98 1 3.96 1 6 C-0.65 6 -2.3 6 -4 6 C-2.69593116 3.98079663 -1.36176581 1.98075027 0 0 Z " fill="#F2CFA3" transform="translate(196,431)"/>
</svg>
