<?xml version="1.0" encoding="UTF-8"?>
<svg version="1.1" xmlns="http://www.w3.org/2000/svg" width="512" height="512">
<path d="M0 0 C1.75763672 0.47566406 1.75763672 0.47566406 3.55078125 0.9609375 C20.13733836 5.90012346 35.0943323 14.53767381 48 26 C49.33417969 27.18335938 49.33417969 27.18335938 50.6953125 28.390625 C69.94480697 46.61428434 83.86094607 73.59761929 85.16113281 100.31054688 C85.52964671 130.22016283 85.52964671 130.22016283 82 142 C81.68289063 143.17175781 81.36578125 144.34351563 81.0390625 145.55078125 C76.65287172 160.28029425 69.34691958 174.58976062 59 186 C58.32710938 186.80179688 57.65421875 187.60359375 56.9609375 188.4296875 C38.54289648 209.92856447 12.91274173 222.89890323 -15 227 C-35.77180772 228.17331987 -55.31065796 227.12339052 -74.62890625 218.953125 C-76.88336582 217.87567619 -76.88336582 217.87567619 -79 218 C-80.56864082 219.5507907 -80.56864082 219.5507907 -82.1875 221.5625 C-88.79281268 229.29356413 -96.04036913 235.67391429 -104 242 C-104.95519531 242.78375 -105.91039062 243.5675 -106.89453125 244.375 C-143.87830529 274 -143.87830529 274 -161 274 C-160.95359375 274.92039062 -160.9071875 275.84078125 -160.859375 276.7890625 C-160.31238879 295.97265014 -167.19608516 312.52873149 -180.33984375 326.484375 C-183.4382365 329.63800651 -186.31393212 332.54262142 -190 335 C-190.29693633 337.86265993 -190.39891387 340.50925757 -190.37231445 343.37426758 C-190.37596512 344.24125275 -190.37961578 345.10823792 -190.38337708 346.00149536 C-190.39151487 348.88270368 -190.37783372 351.76335468 -190.36328125 354.64453125 C-190.36276251 356.65077209 -190.36328074 358.65701345 -190.36479187 360.66325378 C-190.36470197 364.88096653 -190.35424576 369.09848888 -190.33618164 373.31616211 C-190.31365417 378.69123627 -190.31291938 384.06602817 -190.31969929 389.44113636 C-190.32306426 393.5927526 -190.3163593 397.744306 -190.30657005 401.89591026 C-190.30274904 403.87520708 -190.30155682 405.85451094 -190.3031559 407.83381081 C-190.30571799 426.8265726 -189.93710326 445.40959502 -176 460 C-162.66476265 472.77960246 -143.39007106 476.60091615 -126.22583008 482.06152344 C-123.00145577 483.0899364 -119.78370948 484.13720883 -116.56640625 485.1875 C-115.57991592 485.49598877 -114.5934256 485.80447754 -113.57704163 486.12231445 C-108.15290627 487.90988733 -104.54512702 489.44309695 -101 494 C-100.3359375 496.5 -100.3359375 496.5 -100.375 499 C-100.36210937 499.825 -100.34921875 500.65 -100.3359375 501.5 C-101.33661995 505.26727509 -102.91641923 506.61932956 -106 509 C-109.35021213 509.73943749 -112.6388797 509.67486758 -116.05859375 509.63491821 C-117.08022614 509.64271817 -118.10185852 509.65051812 -119.15444946 509.65855443 C-122.5824983 509.67852002 -126.00944265 509.66269113 -129.4375 509.64697266 C-131.89315439 509.6537467 -134.3488037 509.66264862 -136.80444336 509.67352295 C-142.78468968 509.69397669 -148.76450151 509.69095393 -154.74473095 509.67645974 C-159.60491193 509.66516786 -164.46500498 509.66363635 -169.32519531 509.66907883 C-170.01691456 509.66984499 -170.7086338 509.67061116 -171.42131424 509.67140054 C-172.82652794 509.67299917 -174.23174161 509.67462023 -175.63695526 509.6762635 C-188.81375004 509.69052132 -201.99037089 509.67412783 -215.16713715 509.64726166 C-226.47349103 509.62492278 -237.77958825 509.6288029 -249.0859375 509.65185547 C-262.21555813 509.67861298 -275.34502632 509.68914802 -288.47467041 509.67379415 C-289.87471515 509.6722014 -291.2747599 509.67062955 -292.67480469 509.66907883 C-293.36365376 509.66830745 -294.05250282 509.66753607 -294.7622261 509.66674132 C-299.61658639 509.66242415 -304.47085 509.66971119 -309.32519531 509.68147659 C-315.85879647 509.69696389 -322.39198748 509.68593802 -328.92556763 509.65700531 C-331.32617384 509.65038312 -333.72682078 509.65231135 -336.12741089 509.66331863 C-339.39929798 509.67694001 -342.6696195 509.65989763 -345.94140625 509.63491821 C-346.89616852 509.64607182 -347.85093079 509.65722543 -348.83462524 509.66871703 C-353.40369098 509.60084253 -355.36864626 509.487435 -359.0871582 506.61656761 C-361.16111303 503.77961422 -361.6792443 502.47163524 -361.625 499 C-361.64433594 497.7625 -361.64433594 497.7625 -361.6640625 496.5 C-360.72326137 492.95816046 -358.92621533 491.06380451 -356 489 C-352.13929862 487.2914714 -348.15078348 486.06758747 -344.12109375 484.8203125 C-342.37651634 484.25653397 -342.37651634 484.25653397 -340.59669495 483.68136597 C-336.88143664 482.48138261 -333.16041051 481.30101094 -329.4375 480.125 C-324.55577412 478.58145449 -319.68075313 477.0187575 -314.80859375 475.4453125 C-313.70503036 475.10339874 -312.60146698 474.76148499 -311.46446228 474.40921021 C-296.11276953 469.45047084 -285.36058455 462.1755915 -277.5078125 448.0546875 C-272.58324053 438.07796397 -271.89285701 427.72810836 -271.7277832 416.76757812 C-271.70346977 415.45592934 -271.70346977 415.45592934 -271.67866516 414.11778259 C-271.53935194 406.12328282 -271.46051515 398.12779414 -271.39974689 390.13234711 C-271.35868022 384.77532054 -271.29799813 379.42010875 -271.19067383 374.06396484 C-271.08679561 368.8597653 -271.03233045 363.65718651 -271.01228905 358.45201111 C-270.99639965 356.4775598 -270.96326747 354.50316518 -270.91213417 352.52931213 C-270.32770004 341.66528981 -270.32770004 341.66528981 -274.1499939 331.87744141 C-276.65557378 329.61020159 -279.16541954 327.82614235 -282 326 C-292.31305092 316.40594764 -300.33540488 301.24493753 -301.10693359 287.02978516 C-301.23309126 282.68087808 -301.16038465 278.34820619 -301 274 C-302.08414185 273.81908813 -302.08414185 273.81908813 -303.19018555 273.63452148 C-308.04075567 272.53914988 -312.3490155 270.21017597 -316.8125 268.0625 C-317.83843262 267.56886963 -318.86436523 267.07523926 -319.92138672 266.56665039 C-347.28382454 253.17647571 -372.33004879 233.08423706 -391 209 C-391.42925781 208.4524707 -391.85851562 207.90494141 -392.30078125 207.34082031 C-409.17699755 185.6862517 -426.34787892 155.62731567 -427.375 127.5 C-427.42398437 126.5821875 -427.47296875 125.664375 -427.5234375 124.71875 C-426.74418537 120.6712912 -425.29875775 119.46997063 -422 117 C-418.29789341 116.25954666 -414.64726428 116.34716054 -410.88273621 116.39872742 C-409.74732008 116.39445529 -408.61190395 116.39018317 -407.44208127 116.38578159 C-403.62920187 116.37753152 -399.81741711 116.40507222 -396.00463867 116.43237305 C-393.27486473 116.43656604 -390.54511232 116.43321272 -387.81533813 116.43016052 C-381.93413605 116.42753913 -376.05321139 116.44322236 -370.17207909 116.47134972 C-361.66900535 116.51199041 -353.16606571 116.52500749 -344.66290537 116.53128967 C-330.86707246 116.54223199 -317.0713874 116.57550441 -303.27563477 116.62280273 C-289.87460062 116.66869999 -276.47360664 116.70409107 -263.07250977 116.7253418 C-262.24642561 116.72665541 -261.42034145 116.72796903 -260.56922444 116.72932246 C-256.42499013 116.73584766 -252.28075553 116.74216619 -248.13652074 116.74838197 C-213.7575741 116.80021301 -179.37880299 116.88827652 -145 117 C-145.00621872 116.43505325 -145.01243744 115.87010651 -145.0188446 115.28804016 C-145.04377643 112.68813696 -145.05905554 110.08825906 -145.07421875 107.48828125 C-145.0841687 106.59983521 -145.09411865 105.71138916 -145.10437012 104.79602051 C-145.13903903 96.84954007 -144.07837905 89.69676145 -142 82 C-141.68289063 80.81535156 -141.36578125 79.63070312 -141.0390625 78.41015625 C-136.05226282 61.8405417 -127.46414273 46.90771298 -116 34 C-115.21109375 33.11054687 -114.4221875 32.22109375 -113.609375 31.3046875 C-98.93002402 15.79901543 -80.41174013 5.75715747 -60 0 C-58.9378125 -0.3196875 -57.875625 -0.639375 -56.78125 -0.96875 C-39.41267327 -5.35147497 -17.14390336 -5.13690649 0 0 Z " fill="#000000" transform="translate(427,3)"/>
<path d="M0 0 C114.18 0 228.36 0 346 0 C344.70637923 5.82129348 343.4481948 11.11557074 341.375 16.625 C340.92898438 17.85476562 340.48296875 19.08453125 340.0234375 20.3515625 C338.2785392 24.66073524 336.07633798 28.70352787 333.87353516 32.79052734 C333.50110184 33.48498459 333.12866852 34.17944183 332.74494934 34.89494324 C331.83158258 36.59749694 330.91601205 38.29886806 330 40 C329.40677602 40.00054477 328.81355204 40.00108953 328.20235157 40.00165081 C313.7632489 40.01662264 299.32442029 40.05908553 284.88549519 40.13209057 C277.90287602 40.16673366 270.92045413 40.19209516 263.93774414 40.19555664 C257.20076215 40.19892243 250.46435147 40.22821915 243.72749901 40.27343178 C241.15548783 40.28643553 238.58341736 40.29070436 236.01137733 40.28615379 C232.41239269 40.28126865 228.81486963 40.30725109 225.21606445 40.34057617 C224.14935516 40.33195053 223.08264587 40.32332489 221.98361206 40.31443787 C215.96058329 40.40026085 215.96058329 40.40026085 210.82463074 43.3964386 C208.84602452 46.21970726 208.41894156 47.21226288 208.9375 50.5625 C209.02902344 51.30628906 209.12054688 52.05007812 209.21484375 52.81640625 C210.3206916 55.89187366 211.34433313 57.03050024 214 59 C217.2348478 59.6151314 220.44072044 59.56366543 223.72558594 59.54589844 C225.20412804 59.56140495 225.20412804 59.56140495 226.71253967 59.57722473 C229.96998358 59.60671797 233.2268079 59.60815332 236.484375 59.609375 C238.74311513 59.62435219 241.00184429 59.64107836 243.26055908 59.65948486 C249.20518489 59.70322201 255.14966295 59.72317171 261.09442139 59.73822021 C267.16069295 59.75776825 273.22680441 59.79974087 279.29296875 59.83984375 C291.1952632 59.91521494 303.09752193 59.96546467 315 60 C313.22239614 63.0101381 311.52308637 65.73810907 309.14453125 68.3046875 C308.60892578 68.88444336 308.07332031 69.46419922 307.52148438 70.06152344 C306.67553711 70.95919434 306.67553711 70.95919434 305.8125 71.875 C305.22662109 72.49922852 304.64074219 73.12345703 304.03710938 73.76660156 C299.90271492 78.1316998 295.70712939 82.24995792 291 86 C289.66001953 87.09634766 289.66001953 87.09634766 288.29296875 88.21484375 C270.71513022 102.2107831 251.36800036 112.9380603 230.34765625 120.83203125 C227.4106821 122.29318811 225.8995753 123.28447077 224 126 C223.43835113 129.16288882 223.44814915 132.29401303 223.4375 135.5 C222.96220694 152.69388063 218.67769799 165.91243562 206 178 C195.22463509 187.50006443 182.11846575 191.12611581 168.01171875 190.4140625 C155.0661357 189.31817252 143.60101815 182.51186247 134.78125 173.16796875 C126.96585607 163.65581166 123.15533991 153.36415186 122.82421875 141.08203125 C122.78844727 139.78942383 122.78844727 139.78942383 122.75195312 138.47070312 C122.70870631 136.68709948 122.67760873 134.90316295 122.65820312 133.11914062 C122.51756649 128.13332588 122.51756649 128.13332588 120.5625 123.6484375 C116.69260338 121.15896132 112.57477472 119.51893281 108.3125 117.8125 C86.90400446 108.90565195 68.32926762 97.40924804 51 82 C50.47390137 81.54093262 49.94780273 81.08186523 49.40576172 80.60888672 C42.5674562 74.64026481 36.23303971 68.48016853 31 61 C31 60.67 31 60.34 31 60 C32.22917648 59.99191315 33.45835297 59.98382629 34.72477722 59.97549438 C46.30491866 59.8980317 57.88494263 59.81029193 69.46493053 59.71247292 C75.41840977 59.66251319 81.37187129 59.61618294 87.32543945 59.578125 C93.07024971 59.54126837 98.81491162 59.49490706 104.55959511 59.44193649 C106.7520214 59.42339462 108.9444795 59.4082859 111.13695335 59.39665604 C114.20628445 59.3797903 117.27527597 59.35075392 120.34448242 59.31884766 C121.25222916 59.31668747 122.15997589 59.31452728 123.0952301 59.31230164 C127.44309425 59.2545105 131.1157945 59.20009221 135 57 C137.10053204 53.39908794 137.52544593 50.11599315 137 46 C134.76793569 43.15219381 133.45007001 42.15002334 130 41 C128.43947264 40.8993308 126.87508029 40.8538235 125.31135559 40.84178162 C124.34801804 40.8319928 123.38468048 40.82220398 122.39215088 40.81211853 C121.33695251 40.80636307 120.28175415 40.8006076 119.19458008 40.79467773 C118.08223495 40.78477814 116.96988983 40.77487854 115.82383728 40.76467896 C112.13909042 40.73303614 108.45433065 40.70829543 104.76953125 40.68359375 C102.21790731 40.66302663 99.66628681 40.64203023 97.1146698 40.62062073 C91.07991078 40.57102484 85.04513423 40.52576599 79.01032704 40.48259836 C72.13974021 40.43321103 65.26920104 40.37829845 58.3986603 40.32291877 C44.26581801 40.20912559 30.13292996 40.10228075 16 40 C14.71111923 37.61428512 13.4257619 35.22678096 12.14233398 32.83813477 C11.77985313 32.16803627 11.41737228 31.49793777 11.04390717 30.80753326 C8.28017381 25.6542514 5.98646476 20.4635806 4.0625 14.9375 C3.77310547 14.14923828 3.48371094 13.36097656 3.18554688 12.54882812 C1.64351482 8.25342414 0.76663582 4.59981494 0 0 Z " fill="#FE7A78" transform="translate(23,140)"/>
<path d="M0 0 C20.09736076 15.07818433 33.25527654 37.07884883 37.7487793 61.85302734 C40.53061376 87.17821848 35.50294013 112.54387234 19.8503418 133.18505859 C18.63407607 134.67485133 17.40433067 136.15371888 16.1628418 137.62255859 C15.16124023 138.84265625 15.16124023 138.84265625 14.1394043 140.08740234 C-0.65761499 157.42181664 -22.39007969 168.32290577 -44.8371582 171.62255859 C-48.57163751 171.90498973 -52.28053127 171.95655839 -56.0246582 171.93505859 C-57.02770996 171.93086914 -58.03076172 171.92667969 -59.06420898 171.92236328 C-70.73894746 171.7462398 -81.33760088 169.96443864 -91.8371582 164.62255859 C-90.40917394 160.69022002 -88.53010893 157.39015043 -86.2746582 153.87255859 C-81.32953504 146.03852788 -77.09157855 137.84580162 -72.8371582 129.62255859 C-71.84586914 129.77982422 -70.85458008 129.93708984 -69.83325195 130.09912109 C-53.4023066 132.41635856 -38.06218677 130.1406923 -24.2277832 120.48974609 C-12.48930449 111.32145716 -5.41505489 99.35775507 -2.8371582 84.62255859 C-1.15961242 69.06579919 -4.74465681 55.48556156 -13.8371582 42.62255859 C-23.06522245 31.24719479 -36.29896126 23.97460107 -50.90649414 22.39941406 C-67.58097751 21.18665524 -81.24755138 26.03418537 -94.0246582 36.81005859 C-107.2915537 49.24386803 -110.57882599 64.00590758 -111.8371582 81.62255859 C-125.0371582 81.62255859 -138.2371582 81.62255859 -151.8371582 81.62255859 C-151.8371582 63.05062795 -151.8371582 63.05062795 -150.1496582 56.43505859 C-149.96741699 55.68369629 -149.78517578 54.93233398 -149.59741211 54.15820312 C-143.40668045 29.5787444 -128.66431604 8.64935366 -106.87866211 -4.56542969 C-97.53770788 -10.04221779 -88.45567811 -14.05125032 -77.8371582 -16.37744141 C-77.09723633 -16.55114258 -76.35731445 -16.72484375 -75.5949707 -16.90380859 C-49.31601949 -22.72627764 -21.63510601 -15.65719526 0 0 Z " fill="#77CEA7" transform="translate(453.837158203125,38.37744140625)"/>
<path d="M0 0 C114.18 0 228.36 0 346 0 C344.70637923 5.82129348 343.4481948 11.11557074 341.375 16.625 C340.92898438 17.85476562 340.48296875 19.08453125 340.0234375 20.3515625 C338.2785392 24.66073524 336.07633798 28.70352787 333.87353516 32.79052734 C333.50110184 33.48498459 333.12866852 34.17944183 332.74494934 34.89494324 C331.83158258 36.59749694 330.91601205 38.29886806 330 40 C329.40677602 40.00054477 328.81355204 40.00108953 328.20235157 40.00165081 C313.7632489 40.01662264 299.32442029 40.05908553 284.88549519 40.13209057 C277.90287602 40.16673366 270.92045413 40.19209516 263.93774414 40.19555664 C257.20076215 40.19892243 250.46435147 40.22821915 243.72749901 40.27343178 C241.15548783 40.28643553 238.58341736 40.29070436 236.01137733 40.28615379 C232.41239269 40.28126865 228.81486963 40.30725109 225.21606445 40.34057617 C224.14935516 40.33195053 223.08264587 40.32332489 221.98361206 40.31443787 C217.2252842 40.38844509 214.78528998 40.42671178 210.86149597 43.29121399 C208.74366187 46.0349111 208.74366187 46.0349111 208 50 C199.75 50 191.5 50 183 50 C182.01 47.69 181.02 45.38 180 43 C176.46550288 40.80288017 173.09750076 40.40244781 169 41 C165.32721245 43.93823004 164.15417451 45.38330197 163 50 C154.75 50 146.5 50 138 50 C137.01 47.69 136.02 45.38 135 43 C131.72573279 41.04584458 128.83744629 40.74644397 125.07084656 40.7215271 C124.10475967 40.71036362 123.13867279 40.69920013 122.14331055 40.68769836 C120.57129883 40.68445808 120.57129883 40.68445808 118.9675293 40.68115234 C117.85489212 40.67110672 116.74225494 40.6610611 115.59590149 40.65071106 C111.92201245 40.61984562 108.2481964 40.60283431 104.57421875 40.5859375 C102.02545034 40.56722859 99.47668815 40.54765539 96.92793274 40.5272522 C90.90740921 40.48114367 84.88689263 40.44374594 78.86628896 40.41057932 C72.010139 40.37232288 65.15408342 40.322922 58.29801309 40.27259517 C44.19874545 40.16934897 30.09941698 40.08006487 16 40 C14.71111923 37.61428512 13.4257619 35.22678096 12.14233398 32.83813477 C11.77985313 32.16803627 11.41737228 31.49793777 11.04390717 30.80753326 C8.28017381 25.6542514 5.98646476 20.4635806 4.0625 14.9375 C3.77310547 14.14923828 3.48371094 13.36097656 3.18554688 12.54882812 C1.64351482 8.25342414 0.76663582 4.59981494 0 0 Z " fill="#F2EEEF" transform="translate(23,140)"/>
<path d="M0 0 C0.86375244 0.14147461 1.72750488 0.28294922 2.61743164 0.42871094 C3.76590576 0.61208008 4.91437988 0.79544922 6.09765625 0.984375 C7.22953369 1.16709961 8.36141113 1.34982422 9.52758789 1.53808594 C17.61460402 2.61385297 25.36254222 2.18650822 33.41015625 0.984375 C34.65031494 0.80100586 35.89047363 0.61763672 37.16821289 0.42871094 C38.10270264 0.28723633 39.03719238 0.14576172 40 0 C40.00808685 1.07360275 40.01617371 2.14720551 40.02450562 3.25334167 C40.10231148 13.41824909 40.19013481 23.5830283 40.28752708 33.74776745 C40.33727043 38.97236208 40.38360075 44.19693862 40.421875 49.42163086 C40.4590073 54.47271317 40.50543936 59.52363542 40.55806351 64.57457924 C40.57646015 66.49244667 40.59162116 68.41034822 40.60334396 70.32826805 C40.55107716 90.22154105 40.55107716 90.22154105 46.125 109.125 C46.58241577 110.13046875 46.58241577 110.13046875 47.04907227 111.15625 C49.96742135 117.3378507 53.58633349 122.77373985 58 128 C58.60328125 128.71542969 59.2065625 129.43085938 59.828125 130.16796875 C64.68400543 135.44210779 70.29085343 138.86434784 76.4375 142.43359375 C77.7059375 143.20896484 77.7059375 143.20896484 79 144 C79 144.33 79 144.66 79 145 C40.06 145 1.12 145 -39 145 C-35.84197953 142.47358362 -33.11356476 140.38669827 -29.75 138.3125 C-16.25094794 129.3430302 -5.92026143 114.40817154 -2.45384216 98.49235535 C-0.68347076 88.16514443 -0.64982347 77.93258672 -0.5859375 67.48046875 C-0.56719033 65.52605911 -0.54761439 63.57165727 -0.5272522 61.61726379 C-0.47629946 56.5161909 -0.43647839 51.41509187 -0.39910889 46.31390381 C-0.35883592 41.0913669 -0.30785081 35.86893523 -0.2578125 30.64648438 C-0.16149065 20.43106391 -0.07694831 10.2155835 0 0 Z " fill="#F2EEEF" transform="translate(176,347)"/>
<path d="M0 0 C7.96528178 5.09580139 13.59282453 12.17854001 16.4609375 21.22265625 C18.4836979 31.73719379 16.70354854 41.09804098 11.125 50.0625 C6.016998 57.284158 -0.77087312 62.74108166 -9.44921875 64.97265625 C-12.60014259 65.4464448 -15.62663689 65.50726537 -18.8125 65.5 C-19.95074219 65.50257813 -21.08898437 65.50515625 -22.26171875 65.5078125 C-25.125 65.375 -25.125 65.375 -27.125 64.375 C-26.58256362 60.84916354 -25.89908948 57.4025231 -25.0625 53.9375 C-24.00364242 49.2084669 -23.4067041 44.79108621 -24.8125 40.0625 C-26.61891377 37.73996802 -28.35041331 37.30388658 -31.125 36.375 C-33.72712075 36.0160326 -33.72712075 36.0160326 -36.42578125 35.9609375 C-37.40224609 35.92226562 -38.37871094 35.88359375 -39.38476562 35.84375 C-40.39216797 35.8128125 -41.39957031 35.781875 -42.4375 35.75 C-43.46423828 35.71132812 -44.49097656 35.67265625 -45.54882812 35.6328125 C-48.07404265 35.53885103 -50.59925592 35.4531846 -53.125 35.375 C-53.81152493 24.27618024 -51.86321735 15.93038951 -44.8125 7.1875 C-32.85812123 -5.65238831 -15.34988394 -8.51999591 0 0 Z " fill="#FCD78D" transform="translate(415.125,84.625)"/>
<path d="M0 0 C4.15132171 0.31616026 6.66810634 0.77227556 10.234375 3.0546875 C12.5467856 6.75454446 12.51491886 8.75980585 11.73828125 12.96484375 C10.79141563 16.11126057 9.95175087 17.34926198 7.109375 19.0546875 C4.0350743 19.97985089 1.3124268 20.36871219 -1.890625 20.0546875 C-5.10480029 18.04582794 -6.42403929 16.50686998 -7.5859375 12.890625 C-8.03236952 10.46365822 -8.21004824 8.50359899 -7.890625 6.0546875 C-5.515625 3.0546875 -5.515625 3.0546875 -2.890625 1.0546875 C-1.890625 0.0546875 -1.890625 0.0546875 0 0 Z " fill="#080606" transform="translate(193.890625,179.9453125)"/>
</svg>
