<?xml version="1.0" encoding="UTF-8"?>
<svg version="1.1" xmlns="http://www.w3.org/2000/svg" width="512" height="512">
<path d="M0 0 C1.27859894 -0.0112793 2.55719788 -0.02255859 3.87454224 -0.03417969 C5.28412093 -0.02640313 6.69369737 -0.0182105 8.10327148 -0.00964355 C9.59342126 -0.01506596 11.08356567 -0.0221893 12.57369995 -0.03088379 C16.61506693 -0.04910622 20.65602508 -0.04205427 24.69739914 -0.02936745 C28.92848556 -0.01923411 33.15953719 -0.02863405 37.390625 -0.03491211 C44.49575072 -0.04218755 51.60071009 -0.03260357 58.70581055 -0.0135498 C66.91806527 0.00821882 75.12992276 0.00116737 83.34216785 -0.02085543 C90.39540155 -0.03901241 97.44851573 -0.04156631 104.50176525 -0.03110075 C108.71333006 -0.02486743 112.9247082 -0.02402565 117.13626099 -0.0372467 C121.09595441 -0.04880902 125.05513613 -0.040773 129.01477432 -0.01766968 C130.46719641 -0.01238455 131.91966162 -0.01389308 133.3720665 -0.02272034 C135.35593875 -0.03366524 137.33990521 -0.01750053 139.32373047 0 C140.43352768 0.0015081 141.54332489 0.0030162 142.68675232 0.00457001 C146.37187866 0.62806299 148.03207923 1.89453039 150.66186523 4.50793457 C152.35990844 9.16424121 151.64471102 12.10335395 149.69702148 16.46496582 C148.7229939 18.42525582 147.73067799 20.37652067 146.72436523 22.32043457 C145.603838 24.56551248 144.48546291 26.81166542 143.36889648 29.05871582 C143.07091156 29.65286285 142.77292664 30.24700989 142.46591187 30.85916138 C139.15513083 37.47075879 136.03541481 44.1695545 132.90988159 50.87014771 C124.67714879 68.50495691 116.19612867 86.01749676 107.66186523 103.50793457 C108.63768555 103.61750488 109.61350586 103.7270752 110.61889648 103.83996582 C111.89120117 103.99852051 113.16350586 104.1570752 114.47436523 104.32043457 C115.73893555 104.47125488 117.00350586 104.6220752 118.30639648 104.77746582 C121.58980435 105.49224728 122.77360108 105.81193185 124.66186523 108.50793457 C125.58872887 111.8512641 126.25290791 115.32584921 124.66186523 118.50793457 C125.48428711 118.74254395 126.30670898 118.97715332 127.15405273 119.21887207 C131.35177239 120.76146392 134.96476341 122.83441232 138.78686523 125.13293457 C139.53895264 125.58168945 140.29104004 126.03044434 141.06591797 126.49279785 C165.88394388 141.40639438 187.87307029 159.70593559 208.38656616 180.05740356 C209.80745526 181.46637608 211.23228312 182.87137304 212.65722656 184.27624512 C218.76350961 190.37489735 224.30252545 196.74812695 229.66186523 203.50793457 C230.56702693 204.60756284 231.47413743 205.70559473 232.38452148 206.80090332 C270.15937315 253.53072817 294.5125032 310.53016513 301.41186523 370.19543457 C301.53835449 371.28710938 301.66484375 372.37878418 301.79516602 373.50354004 C302.28971899 378.03937677 302.72609217 382.51292005 302.71264648 387.07824707 C302.70895524 391.86466599 302.70895524 391.86466599 303.66186523 396.50793457 C306.00940665 398.46346811 308.16064404 399.39891304 311.02124023 400.45324707 C317.42096405 403.00934978 321.1036192 408.56837457 323.93530273 414.61340332 C326.97291972 422.53407127 327.01036735 432.90210925 324.16186523 440.88293457 C319.78670314 450.07689407 313.10877824 455.90911057 303.66186523 459.50793457 C299.83196914 460.76467791 295.9965062 460.64909109 292.01082325 460.63936234 C291.23225235 460.64141497 290.45368144 460.6434676 289.65151748 460.64558244 C287.02700605 460.6512638 284.40254691 460.64979379 281.7780304 460.64837646 C279.88358362 460.65095945 277.9891374 460.65397242 276.09469193 460.65737987 C270.87637818 460.66546097 265.65807817 460.66724006 260.4397589 460.66797733 C254.81656056 460.66982596 249.19336938 460.67737234 243.57017517 460.68411255 C231.26854814 460.69770432 218.96692436 460.70372192 206.66529107 460.70812321 C198.98655328 460.71088423 191.30781676 460.71512133 183.62907982 460.71962738 C162.37605127 460.7318212 141.12302405 460.74215564 119.86999226 460.74550247 C118.49555121 460.7457241 117.12111017 460.74594589 115.74666912 460.74616782 C114.36890696 460.74638846 112.9911448 460.74660895 111.61338264 460.74682927 C108.84935145 460.74727182 106.08532025 460.74771894 103.32128906 460.74816895 C102.29331017 460.74833303 102.29331017 460.74833303 101.24456403 460.74850043 C79.02335686 460.75213102 56.80218232 460.76805102 34.58098765 460.79135931 C11.08770164 460.81595687 -12.40555911 460.82966855 -35.89886028 460.83087039 C-48.70549194 460.8317877 -61.51208088 460.83755411 -74.31870079 460.85569 C-85.22340927 460.87107791 -96.12806185 460.87621919 -107.03277912 460.8679519 C-112.59737122 460.86404076 -118.16185069 460.86499772 -123.72642899 460.87900925 C-128.82102059 460.89172013 -133.91541459 460.89057531 -139.01000581 460.87841853 C-140.85256634 460.87645666 -142.69514074 460.87956253 -144.53768178 460.8882629 C-157.14069407 460.94400335 -167.65168474 460.56088259 -177.33813477 451.50793457 C-185.0348912 443.09722561 -186.95217213 435.54014832 -186.68188477 424.19934082 C-185.84674875 415.23111881 -181.97040828 408.5251182 -175.33813477 402.50793457 C-171.83196884 399.91698107 -168.47919405 397.88828767 -164.33813477 396.50793457 C-164.29849609 395.85123779 -164.25885742 395.19454102 -164.21801758 394.51794434 C-161.66821374 353.85843431 -153.24098397 315.10190872 -136.41430664 277.89074707 C-135.4093644 275.6656481 -134.42696936 273.4318328 -133.44750977 271.19543457 C-117.11686607 234.55074756 -91.76569506 203.00699765 -63.72531128 174.72088623 C-62.32047054 173.30318092 -60.91920783 171.88193281 -59.51806641 170.46057129 C-53.43774031 164.37313754 -47.09931327 158.82545646 -40.33813477 153.50793457 C-39.60651123 152.92769531 -38.8748877 152.34745605 -38.12109375 151.74963379 C-24.99464327 141.41554585 -11.50518703 132.21566911 2.97436523 123.88293457 C3.90087891 123.34918213 4.82739258 122.81542969 5.78198242 122.26550293 C6.64597656 121.77573975 7.5099707 121.28597656 8.40014648 120.78137207 C9.56090698 120.1227417 9.56090698 120.1227417 10.74511719 119.45080566 C12.66186523 118.50793457 12.66186523 118.50793457 14.66186523 118.50793457 C14.43499023 117.45605957 14.20811523 116.40418457 13.97436523 115.32043457 C13.66186523 111.50793457 13.66186523 111.50793457 14.78686523 108.69543457 C18.21435112 104.69670103 21.81456297 104.43436366 26.84545898 103.96105957 C27.74707764 103.87501465 28.64869629 103.78896973 29.57763672 103.70031738 C30.26543213 103.63683105 30.95322754 103.57334473 31.66186523 103.50793457 C31.15437744 102.47313965 30.64688965 101.43834473 30.12402344 100.37219238 C12.29145254 63.98906362 12.29145254 63.98906362 4.19580078 46.29138184 C1.60606109 40.64062102 -1.04899192 35.03800221 -3.83422852 29.48059082 C-4.68416382 27.77008545 -4.68416382 27.77008545 -5.55126953 26.02502441 C-6.62656441 23.87064339 -7.71601498 21.72324528 -8.82226562 19.58459473 C-10.92920959 15.34508612 -12.31030834 12.33536151 -12.47094727 7.55871582 C-10.21264938 1.47688599 -6.16849647 0.00838236 0 0 Z " fill="#E8B163" transform="translate(186.338134765625,25.4920654296875)"/>
<path d="M0 0 C1.27859894 -0.0112793 2.55719788 -0.02255859 3.87454224 -0.03417969 C5.28412093 -0.02640313 6.69369737 -0.0182105 8.10327148 -0.00964355 C9.59342126 -0.01506596 11.08356567 -0.0221893 12.57369995 -0.03088379 C16.61506693 -0.04910622 20.65602508 -0.04205427 24.69739914 -0.02936745 C28.92848556 -0.01923411 33.15953719 -0.02863405 37.390625 -0.03491211 C44.49575072 -0.04218755 51.60071009 -0.03260357 58.70581055 -0.0135498 C66.91806527 0.00821882 75.12992276 0.00116737 83.34216785 -0.02085543 C90.39540155 -0.03901241 97.44851573 -0.04156631 104.50176525 -0.03110075 C108.71333006 -0.02486743 112.9247082 -0.02402565 117.13626099 -0.0372467 C121.09595441 -0.04880902 125.05513613 -0.040773 129.01477432 -0.01766968 C130.46719641 -0.01238455 131.91966162 -0.01389308 133.3720665 -0.02272034 C135.35593875 -0.03366524 137.33990521 -0.01750053 139.32373047 0 C140.43352768 0.0015081 141.54332489 0.0030162 142.68675232 0.00457001 C146.37187866 0.62806299 148.03207923 1.89453039 150.66186523 4.50793457 C152.35990844 9.16424121 151.64471102 12.10335395 149.69702148 16.46496582 C148.7229939 18.42525582 147.73067799 20.37652067 146.72436523 22.32043457 C145.603838 24.56551248 144.48546291 26.81166542 143.36889648 29.05871582 C143.07091156 29.65286285 142.77292664 30.24700989 142.46591187 30.85916138 C139.15513083 37.47075879 136.03541481 44.1695545 132.90988159 50.87014771 C124.67714879 68.50495691 116.19612867 86.01749676 107.66186523 103.50793457 C108.63768555 103.61750488 109.61350586 103.7270752 110.61889648 103.83996582 C111.89120117 103.99852051 113.16350586 104.1570752 114.47436523 104.32043457 C115.73893555 104.47125488 117.00350586 104.6220752 118.30639648 104.77746582 C121.58980435 105.49224728 122.77360108 105.81193185 124.66186523 108.50793457 C125.58872887 111.8512641 126.25290791 115.32584921 124.66186523 118.50793457 C125.48428711 118.74254395 126.30670898 118.97715332 127.15405273 119.21887207 C131.35177239 120.76146392 134.96476341 122.83441232 138.78686523 125.13293457 C139.53895264 125.58168945 140.29104004 126.03044434 141.06591797 126.49279785 C165.88394388 141.40639438 187.87307029 159.70593559 208.38656616 180.05740356 C209.80745526 181.46637608 211.23228312 182.87137304 212.65722656 184.27624512 C218.76350961 190.37489735 224.30252545 196.74812695 229.66186523 203.50793457 C230.56702693 204.60756284 231.47413743 205.70559473 232.38452148 206.80090332 C270.15937315 253.53072817 294.5125032 310.53016513 301.41186523 370.19543457 C301.53835449 371.28710938 301.66484375 372.37878418 301.79516602 373.50354004 C302.28971899 378.03937677 302.72609217 382.51292005 302.71264648 387.07824707 C302.70895524 391.86466599 302.70895524 391.86466599 303.66186523 396.50793457 C306.00940665 398.46346811 308.16064404 399.39891304 311.02124023 400.45324707 C317.42096405 403.00934978 321.1036192 408.56837457 323.93530273 414.61340332 C326.97291972 422.53407127 327.01036735 432.90210925 324.16186523 440.88293457 C319.78670314 450.07689407 313.10877824 455.90911057 303.66186523 459.50793457 C299.83196914 460.76467791 295.9965062 460.64909109 292.01082325 460.63936234 C291.23225235 460.64141497 290.45368144 460.6434676 289.65151748 460.64558244 C287.02700605 460.6512638 284.40254691 460.64979379 281.7780304 460.64837646 C279.88358362 460.65095945 277.9891374 460.65397242 276.09469193 460.65737987 C270.87637818 460.66546097 265.65807817 460.66724006 260.4397589 460.66797733 C254.81656056 460.66982596 249.19336938 460.67737234 243.57017517 460.68411255 C231.26854814 460.69770432 218.96692436 460.70372192 206.66529107 460.70812321 C198.98655328 460.71088423 191.30781676 460.71512133 183.62907982 460.71962738 C162.37605127 460.7318212 141.12302405 460.74215564 119.86999226 460.74550247 C118.49555121 460.7457241 117.12111017 460.74594589 115.74666912 460.74616782 C114.36890696 460.74638846 112.9911448 460.74660895 111.61338264 460.74682927 C108.84935145 460.74727182 106.08532025 460.74771894 103.32128906 460.74816895 C102.29331017 460.74833303 102.29331017 460.74833303 101.24456403 460.74850043 C79.02335686 460.75213102 56.80218232 460.76805102 34.58098765 460.79135931 C11.08770164 460.81595687 -12.40555911 460.82966855 -35.89886028 460.83087039 C-48.70549194 460.8317877 -61.51208088 460.83755411 -74.31870079 460.85569 C-85.22340927 460.87107791 -96.12806185 460.87621919 -107.03277912 460.8679519 C-112.59737122 460.86404076 -118.16185069 460.86499772 -123.72642899 460.87900925 C-128.82102059 460.89172013 -133.91541459 460.89057531 -139.01000581 460.87841853 C-140.85256634 460.87645666 -142.69514074 460.87956253 -144.53768178 460.8882629 C-157.14069407 460.94400335 -167.65168474 460.56088259 -177.33813477 451.50793457 C-185.0348912 443.09722561 -186.95217213 435.54014832 -186.68188477 424.19934082 C-185.84674875 415.23111881 -181.97040828 408.5251182 -175.33813477 402.50793457 C-171.83196884 399.91698107 -168.47919405 397.88828767 -164.33813477 396.50793457 C-164.29849609 395.85123779 -164.25885742 395.19454102 -164.21801758 394.51794434 C-161.66821374 353.85843431 -153.24098397 315.10190872 -136.41430664 277.89074707 C-135.4093644 275.6656481 -134.42696936 273.4318328 -133.44750977 271.19543457 C-117.11686607 234.55074756 -91.76569506 203.00699765 -63.72531128 174.72088623 C-62.32047054 173.30318092 -60.91920783 171.88193281 -59.51806641 170.46057129 C-53.43774031 164.37313754 -47.09931327 158.82545646 -40.33813477 153.50793457 C-39.60651123 152.92769531 -38.8748877 152.34745605 -38.12109375 151.74963379 C-24.99464327 141.41554585 -11.50518703 132.21566911 2.97436523 123.88293457 C3.90087891 123.34918213 4.82739258 122.81542969 5.78198242 122.26550293 C6.64597656 121.77573975 7.5099707 121.28597656 8.40014648 120.78137207 C9.56090698 120.1227417 9.56090698 120.1227417 10.74511719 119.45080566 C12.66186523 118.50793457 12.66186523 118.50793457 14.66186523 118.50793457 C14.43499023 117.45605957 14.20811523 116.40418457 13.97436523 115.32043457 C13.66186523 111.50793457 13.66186523 111.50793457 14.78686523 108.69543457 C18.21435112 104.69670103 21.81456297 104.43436366 26.84545898 103.96105957 C27.74707764 103.87501465 28.64869629 103.78896973 29.57763672 103.70031738 C30.26543213 103.63683105 30.95322754 103.57334473 31.66186523 103.50793457 C31.15437744 102.47313965 30.64688965 101.43834473 30.12402344 100.37219238 C12.29145254 63.98906362 12.29145254 63.98906362 4.19580078 46.29138184 C1.60606109 40.64062102 -1.04899192 35.03800221 -3.83422852 29.48059082 C-4.68416382 27.77008545 -4.68416382 27.77008545 -5.55126953 26.02502441 C-6.62656441 23.87064339 -7.71601498 21.72324528 -8.82226562 19.58459473 C-10.92920959 15.34508612 -12.31030834 12.33536151 -12.47094727 7.55871582 C-10.21264938 1.47688599 -6.16849647 0.00838236 0 0 Z M27.09155273 130.04943848 C24.56784007 131.56437612 21.99810793 132.92396655 19.38061523 134.26965332 C9.65564414 139.32425711 0.38978147 145.00056594 -8.58666992 151.28283691 C-10.34354082 152.51171594 -12.11165466 153.72304029 -13.88110352 154.93371582 C-22.5259829 160.91145616 -30.49483865 167.52056759 -38.33813477 174.50793457 C-39.79799805 175.7995752 -39.79799805 175.7995752 -41.28735352 177.11730957 C-53.81160541 188.39426216 -66.04131833 200.13744159 -76.33813477 213.50793457 C-77.20054973 214.58259496 -78.06526546 215.65541173 -78.93188477 216.72668457 C-100.41986787 243.41810411 -117.53269799 273.33022801 -129.33813477 305.50793457 C-129.64203125 306.33051758 -129.94592773 307.15310059 -130.2590332 308.00061035 C-140.25290116 335.4277517 -147.80937809 366.16480386 -146.33813477 395.50793457 C-145.38551758 395.56852051 -144.43290039 395.62910645 -143.45141602 395.69152832 C-142.1971582 395.77531738 -140.94290039 395.85910645 -139.65063477 395.94543457 C-138.40926758 396.02664551 -137.16790039 396.10785645 -135.88891602 396.19152832 C-132.9563314 396.45284774 -130.2037186 396.85591836 -127.33813477 397.50793457 C-126.15362167 401.06147386 -126.07171582 403.77806935 -126.33813477 407.50793457 C-128.16928683 410.1238661 -129.24781843 410.47782912 -132.33813477 411.50793457 C-134.33238614 411.61178507 -136.32957036 411.66295735 -138.32641602 411.68371582 C-139.5078418 411.70756348 -140.68926758 411.73141113 -141.90649414 411.75598145 C-144.39069762 411.79874551 -146.87512511 411.83010669 -149.35961914 411.84973145 C-158.16329037 411.98516273 -158.16329037 411.98516273 -165.33813477 416.50793457 C-168.76730549 420.2078293 -169.63783225 423.08716947 -169.83813477 428.00793457 C-169.65173779 432.90751211 -168.69026164 435.78334915 -165.33813477 439.50793457 C-160.80747061 443.48942731 -156.6741722 443.65360158 -150.86423016 443.63936234 C-150.0926678 443.64141497 -149.32110545 443.6434676 -148.52616242 443.64558244 C-145.91950001 443.65127383 -143.31289009 443.64979256 -140.70622253 443.64837646 C-138.82699994 443.65095887 -136.94777789 443.65397168 -135.06855661 443.65737987 C-129.88779794 443.66546768 -124.7070531 443.66724043 -119.52628887 443.66797733 C-113.94539381 443.66982478 -108.364506 443.67737052 -102.78361511 443.68411255 C-90.57303649 443.69770874 -78.36246114 443.70372251 -66.15187621 443.70812321 C-58.53196311 443.71088329 -50.91205129 443.7151202 -43.29213905 443.71962738 C-22.20728099 443.73182142 -1.12242377 443.74215606 19.96243763 443.74550247 C21.32619116 443.74572411 22.68994469 443.74594589 24.05369822 443.74616782 C25.42076815 443.74638846 26.78783808 443.74660895 28.154908 443.74682927 C30.89754283 443.74727183 33.64017767 443.74771894 36.3828125 443.74816895 C37.06282755 443.74827834 37.74284261 443.74838773 38.44346418 443.74850043 C60.4983166 443.75213194 82.55313617 443.76805536 104.60797601 443.79135931 C127.9187585 443.81594536 151.22951965 443.829668 174.54031771 443.83087039 C187.25017671 443.83178829 199.95999269 443.8375696 212.66983986 443.85569 C223.49084951 443.87106281 234.31180286 443.87622813 245.13282136 443.8679519 C250.65652977 443.86403547 256.1801247 443.86502332 261.70381927 443.87900925 C266.75758514 443.89168863 271.81115153 443.89060336 276.86491688 443.87841853 C278.69601391 443.87645116 280.52712478 443.87958762 282.35820232 443.8882629 C284.84252472 443.89929062 287.3261351 443.89191352 289.8104372 443.87987137 C290.5253991 443.88746656 291.240361 443.89506176 291.9769884 443.90288711 C296.59774135 443.85435953 299.73422985 442.93055317 303.66186523 440.50793457 C308.33363867 435.33110455 309.00969934 432.11439959 308.94702148 425.27355957 C308.45077003 420.46060028 306.12371939 417.79259428 302.59936523 414.69543457 C298.93279512 412.44818192 295.84134573 412.37558868 291.63842773 412.33215332 C290.45249023 412.30830566 289.26655273 412.28445801 288.04467773 412.2598877 C285.54745369 412.21705589 283.05000472 412.18573117 280.55249023 412.1661377 C279.36397461 412.13842285 278.17545898 412.11070801 276.95092773 412.08215332 C275.86505371 412.0675708 274.77917969 412.05298828 273.66040039 412.03796387 C269.96400966 411.3845797 268.26505941 410.18004209 265.66186523 407.50793457 C265.26145632 403.70404984 265.45410317 401.13122076 266.66186523 397.50793457 C270.31129571 395.99938286 274.50502665 396.17068708 278.41186523 395.94543457 C279.10924805 395.90225098 279.80663086 395.85906738 280.52514648 395.8145752 C282.23718446 395.70903861 283.94950084 395.60803547 285.66186523 395.50793457 C289.3339288 341.32459665 263.91083075 281.14863542 233.66186523 237.50793457 C233.1554248 236.77236328 232.64898437 236.03679199 232.12719727 235.27893066 C225.05894802 225.07358834 217.51138907 215.47818763 209.21264648 206.24743652 C207.57145042 204.40651682 205.96582166 202.53748924 204.35717773 200.66809082 C200.23032454 195.94779682 195.84638159 191.50050974 191.41186523 187.07043457 C190.57067139 186.23004639 189.72947754 185.3896582 188.86279297 184.52380371 C183.82316604 179.53372299 178.76279964 174.80403662 173.15795898 170.45324707 C170.44284976 168.33724645 167.88065363 166.08317844 165.28686523 163.82043457 C130.8309414 135.14421409 95.03972021 118.25769388 50.18115234 121.25012207 C41.66673991 122.1214487 34.34490686 125.66426949 27.09155273 130.04943848 Z " fill="#34150C" transform="translate(186.338134765625,25.4920654296875)"/>
<path d="M0 0 C0.66 -0.0103125 1.32 -0.020625 2 -0.03125 C5.08443366 0.78805269 6.16316821 1.88292107 8 4.5 C8.48010966 7.43433483 8.3777621 10.28690217 8.25 13.25 C8.23195313 14.04277344 8.21390625 14.83554688 8.1953125 15.65234375 C8.14833082 17.60208348 8.07659044 19.55119878 8 21.5 C8.64324219 21.52578125 9.28648437 21.5515625 9.94921875 21.578125 C25.81979552 22.57428103 39.85422233 28.2287957 50.8359375 39.85546875 C57.11287412 47.52602127 60.93143198 57.48710626 60 67.5 C58.79293121 70.84265205 58.07943151 71.44704566 55 73.5 C48.859073 74.16991931 48.859073 74.16991931 45.87109375 71.83984375 C43.67581987 69.09460564 43.16961098 67.11925627 42.5 63.6875 C40.91345788 56.71350203 38.87695374 51.21559693 32.94921875 46.69140625 C24.95495043 41.80513002 17.26895738 40.18526498 8 38.5 C8.33 56.98 8.66 75.46 9 94.5 C15.6 96.15 22.2 97.8 29 99.5 C40.10002408 103.50834203 50.84581276 108.91291009 56.22265625 120.02734375 C61.28794265 132.3909998 61.0995026 143.43612304 56.00390625 155.9453125 C49.88181254 168.10476506 39.31381325 174.71892176 27 179.5 C20.60660066 181.50550842 14.70736804 182.65922535 8 182.5 C8.04640625 183.68078125 8.0928125 184.8615625 8.140625 186.078125 C8.17814949 187.63539134 8.21454893 189.19268508 8.25 190.75 C8.28351563 191.52730469 8.31703125 192.30460938 8.3515625 193.10546875 C8.41605275 196.8781481 8.44963781 198.85936559 6.234375 202.015625 C3.89264953 203.57131675 2.77627453 204.04337929 0 204 C-0.99 204.01546875 -0.99 204.01546875 -2 204.03125 C-5.08443366 203.21194731 -6.16316821 202.11707893 -8 199.5 C-8.48010966 196.56566517 -8.3777621 193.71309783 -8.25 190.75 C-8.23195312 189.95722656 -8.21390625 189.16445313 -8.1953125 188.34765625 C-8.14833082 186.39791652 -8.07659044 184.44880122 -8 182.5 C-8.72703125 182.47421875 -9.4540625 182.4484375 -10.203125 182.421875 C-26.10643944 181.52476495 -39.93190953 175.65546077 -50.90625 164.00390625 C-56.76446882 156.9980886 -59.49074494 148.10180564 -60.3125 139.0625 C-59.98510455 136.37785735 -59.5159569 134.73404175 -58 132.5 C-54.2794164 130.01961093 -52.40203429 130.03662797 -48 130.5 C-43.82742193 133.60625256 -43.20770218 136.78468101 -42.1875 141.75 C-40.57003151 148.47449795 -38.68676881 153.31445862 -33 157.5 C-24.58546001 162.50597633 -17.97265262 163.83789123 -8 165.5 C-8 146.69 -8 127.88 -8 108.5 C-11.63 108.17 -15.26 107.84 -19 107.5 C-21.80020482 106.83206124 -24.41270994 106.15042942 -27.125 105.25 C-28.15282593 104.91512573 -28.15282593 104.91512573 -29.20141602 104.57348633 C-40.12278582 100.89161678 -50.42144356 95.03065321 -55.9375 84.5 C-61.11400544 72.79038769 -61.35303681 61.63922341 -57 49.5 C-55.32548143 46.18747884 -53.34357466 43.3715524 -51 40.5 C-50.47019531 39.82324219 -49.94039062 39.14648438 -49.39453125 38.44921875 C-40.39524699 28.21824437 -26.20600956 23.15722473 -13 21.5 C-11.33372173 21.46402098 -9.66593284 21.45054745 -8 21.5 C-8.04640625 20.31921875 -8.0928125 19.1384375 -8.140625 17.921875 C-8.17814949 16.36460866 -8.21454893 14.80731492 -8.25 13.25 C-8.28351563 12.47269531 -8.31703125 11.69539062 -8.3515625 10.89453125 C-8.41605275 7.1218519 -8.44963781 5.14063441 -6.234375 1.984375 C-3.89264953 0.42868325 -2.77627453 -0.04337929 0 0 Z " fill="#35160C" transform="translate(256,185.5)"/>
<path d="M0 0 C9.24 0 18.48 0 28 0 C28.1953125 3.48307292 28.390625 6.96614583 28.5859375 10.44921875 C28.96709921 13.71786024 29.53042764 16.07694549 31 19 C33.50077914 20.9648979 34.8623513 21.00280916 38.0625 20.9375 C41.66141262 20.14520227 41.66141262 20.14520227 44 15 C44.33 10.05 44.66 5.1 45 0 C69.75 0 94.5 0 120 0 C109.66947247 22.95672784 109.66947247 22.95672784 105.9140625 30.55078125 C105.48985016 31.41588318 105.06563782 32.28098511 104.62857056 33.17230225 C103.74436879 34.97477204 102.85878793 36.776566 101.97180176 38.57766724 C99.6700109 43.251713 97.37861964 47.93085646 95.0859375 52.609375 C94.64145264 53.51571182 94.19696777 54.42204865 93.73901367 55.35585022 C89.01965385 64.98545875 84.38212778 74.65303213 79.79003906 84.34399414 C79.20577892 85.5686655 78.6068245 86.786351 78 88 C66.12 88 54.24 88 42 88 C35.5465148 75.26512253 29.31974197 62.47575957 23.35986328 49.50366211 C17.67440787 37.18517539 11.71486176 25.00223398 5.73999023 12.82202148 C5.35864929 12.04303497 4.97730835 11.26404846 4.58441162 10.4614563 C3.86220572 8.98659821 3.1382752 7.51258308 2.41241455 6.03952026 C0 1.1120725 0 1.1120725 0 0 Z " fill="#E8B163" transform="translate(196,43)"/>
<path d="M0 0 C0 17.49 0 34.98 0 53 C-13.0344478 51.69655522 -24.15774891 49.3159596 -33 39 C-36.05714742 33.03128361 -36.09909836 25.11118439 -34.3828125 18.69140625 C-30.55988203 10.01369239 -22.89391013 5.55994409 -14.515625 1.9453125 C-9.09208912 -0.09272428 -6.37642361 0 0 0 Z " fill="#E6AF62" transform="translate(248,224)"/>
<path d="M0 0 C13.17149207 1.31714921 23.98572699 3.73374463 33 14 C35.98585602 20.149193 35.9865334 26.94772038 34.3828125 33.53515625 C31.61625028 40.67190747 26.74231496 45.14803388 19.953125 48.5078125 C12.74739057 51.58343085 7.92586585 53 0 53 C0 35.51 0 18.02 0 0 Z " fill="#E6B062" transform="translate(264,298)"/>
<path d="M0 0 C0.66525696 -0.0049649 1.33051392 -0.00992981 2.01593018 -0.01504517 C4.22116118 -0.02967341 6.4263202 -0.03647045 8.6315918 -0.04199219 C10.16375226 -0.04774386 11.6959127 -0.05350159 13.22807312 -0.05926514 C16.44355607 -0.06977753 19.659014 -0.07561838 22.87451172 -0.07910156 C26.99042945 -0.0845816 31.10601558 -0.10859786 35.22182941 -0.13707352 C38.38831032 -0.1557197 41.55471174 -0.16090658 44.7212429 -0.16243744 C46.23827105 -0.16546091 47.75529789 -0.17347917 49.27227211 -0.18662262 C51.39791504 -0.20372238 53.52275325 -0.20179363 55.6484375 -0.1953125 C56.85707962 -0.19895813 58.06572174 -0.20260376 59.31098938 -0.20635986 C62.82715849 0.1965204 64.70694512 1.04882297 67.51831055 3.16113281 C69.0641793 6.25287033 68.81190576 8.75542834 68.51831055 12.16113281 C66.6512255 14.52610721 65.19769624 15.82143997 62.51831055 17.16113281 C60.3543253 17.26326564 58.18713526 17.29956773 56.02075195 17.30639648 C55.02045708 17.3114344 55.02045708 17.3114344 53.99995422 17.3165741 C51.78990834 17.32609229 49.57993817 17.32802772 47.36987305 17.32910156 C45.83531666 17.33231385 44.30076057 17.3356779 42.76620483 17.33918762 C39.54652191 17.34518128 36.32686584 17.34702731 33.10717773 17.34643555 C28.98226753 17.34633398 24.85752967 17.35997933 20.73266029 17.37720776 C17.56193248 17.38832952 14.39124627 17.39035469 11.22050095 17.38982582 C9.69986757 17.39100593 8.17923312 17.39542949 6.65861893 17.40315819 C4.53050956 17.41296051 2.40277364 17.41007913 0.2746582 17.40405273 C-0.93620453 17.40547775 -2.14706726 17.40690277 -3.3946228 17.40837097 C-6.39367636 17.16818164 -8.02652022 16.8515011 -10.48168945 15.16113281 C-12.96207852 11.44054921 -12.94506148 9.56316711 -12.48168945 5.16113281 C-8.6946202 0.36417843 -5.91814634 0.03349964 0 0 Z " fill="#37170D" transform="translate(365.481689453125,420.8388671875)"/>
</svg>
