<?xml version="1.0" encoding="UTF-8"?>
<svg version="1.1" xmlns="http://www.w3.org/2000/svg" width="512" height="512">
<path d="M0 0 C14.35546434 11.70990834 26.06794902 27.89121936 28.30664062 46.72021484 C29.71043452 67.61334732 27.4303759 87.75798563 13.41210938 104.25927734 C10.80642238 107.18052167 8.09063407 109.96902941 5.30664062 112.72021484 C4.64664063 113.38021484 3.98664063 114.04021484 3.30664062 114.72021484 C7.25052201 116.2360754 11.17278466 117.71319706 15.21679688 118.93896484 C24.28500638 121.71035305 32.86245349 125.15334205 41.43164062 129.22021484 C42.39078369 129.67074219 43.34992676 130.12126953 44.33813477 130.58544922 C58.73225435 137.5714423 58.73225435 137.5714423 61.30664062 142.72021484 C61.43945312 144.59521484 61.43945312 144.59521484 61.43164062 146.72021484 C61.43421875 147.42146484 61.43679688 148.12271484 61.43945312 148.84521484 C61.30664062 150.72021484 61.30664062 150.72021484 60.30664062 152.72021484 C60.83257812 152.94451172 61.35851562 153.16880859 61.90039062 153.39990234 C65.7866112 155.53227662 69.11548726 158.45317704 72.52929688 161.26318359 C75.82601345 163.88678866 76.94779273 164.72021484 81.30664062 164.72021484 C82.69882812 164.37990234 82.69882812 164.37990234 84.11914062 164.03271484 C88.38867918 163.61413263 90.62400225 164.56621881 94.30664062 166.72021484 C96.87244139 170.24819089 97.37000365 171.98520373 96.99414062 176.34521484 C96.65382813 178.01583984 96.65382813 178.01583984 96.30664062 179.72021484 C96.30664062 183.95045327 96.40302262 184.33038983 98.93164062 187.32177734 C99.47304688 187.97662109 100.01445312 188.63146484 100.57226562 189.30615234 C101.14460938 189.97904297 101.71695312 190.65193359 102.30664062 191.34521484 C103.43584117 192.68804792 104.56105911 194.03424342 105.68164062 195.38427734 C106.43574219 196.27300537 106.43574219 196.27300537 107.20507812 197.1796875 C108.30664062 198.72021484 108.30664062 198.72021484 108.30664062 200.72021484 C108.96664063 200.39021484 109.62664062 200.06021484 110.30664062 199.72021484 C117.30341363 199.14670886 117.30341363 199.14670886 120.70507812 201.09130859 C124.49702055 204.92310627 126.68297423 209.31847198 129.11914062 214.09521484 C129.6432251 215.11671631 130.16730957 216.13821777 130.70727539 217.19067383 C139.25835961 234.24430873 144.91845426 251.95866687 148.30664062 270.72021484 C148.49210449 271.73937988 148.67756836 272.75854492 148.86865234 273.80859375 C150.51562957 283.90936842 150.7064804 293.88858612 150.68164062 304.09521484 C150.68076447 304.97661133 150.67988831 305.85800781 150.6789856 306.76611328 C150.63217191 321.07781865 149.76535545 334.77680816 146.30664062 348.72021484 C146.06526367 349.70828125 145.82388672 350.69634766 145.57519531 351.71435547 C135.9584077 389.915381 114.23819935 427.69572463 83.30664062 452.72021484 C81.85257812 453.93064453 81.85257812 453.93064453 80.36914062 455.16552734 C54.31141847 476.52634896 23.52187081 490.89719902 -9.69335938 496.72021484 C-10.67272461 496.89681641 -11.65208984 497.07341797 -12.66113281 497.25537109 C-22.80524955 498.90818034 -32.8098751 499.12018082 -43.06835938 499.09521484 C-43.94975586 499.09433868 -44.83115234 499.09346252 -45.73925781 499.09255981 C-60.05096318 499.04574613 -73.74995269 498.17892967 -87.69335938 494.72021484 C-88.68142578 494.47883789 -89.66949219 494.23746094 -90.6875 493.98876953 C-116.72603592 487.43378661 -140.31150675 475.88183711 -161.69335938 459.72021484 C-162.99853516 458.73601562 -162.99853516 458.73601562 -164.33007812 457.73193359 C-174.22634643 450.03483603 -183.817551 441.50063048 -191.69335938 431.72021484 C-192.52222656 430.71732422 -193.35109375 429.71443359 -194.20507812 428.68115234 C-201.15706942 420.15486981 -207.16943299 411.22913061 -212.69335938 401.72021484 C-213.27730469 400.71716309 -213.27730469 400.71716309 -213.87304688 399.69384766 C-223.72681177 382.52415832 -230.45801881 364.03369615 -234.69335938 344.72021484 C-234.85707031 344.01864258 -235.02078125 343.31707031 -235.18945312 342.59423828 C-240.95615678 316.96576809 -239.98641186 286.08992431 -233.69335938 260.72021484 C-233.45198242 259.73214844 -233.21060547 258.74408203 -232.96191406 257.72607422 C-224.93458841 225.83891143 -209.36370684 196.58373849 -186.69335938 172.72021484 C-185.54099762 171.37159934 -184.39466101 170.01780021 -183.25585938 168.65771484 C-161.15123304 143.42459151 -129.25674516 127.27680802 -97.76855469 117.39648438 C-95.36249391 116.61239163 -93.02138784 115.71178252 -90.69335938 114.72021484 C-91.33402344 114.12595703 -91.9746875 113.53169922 -92.63476562 112.91943359 C-101.79378799 104.1426059 -108.12822269 94.55947043 -112.69335938 82.72021484 C-113.01433594 81.89005859 -113.3353125 81.05990234 -113.66601562 80.20458984 C-119.37802694 62.03242362 -116.62420113 40.76099743 -108.13085938 24.03271484 C-98.31204028 5.98870699 -81.63429724 -6.10979517 -62.25585938 -12.21728516 C-40.94019993 -16.83856634 -17.54585144 -13.26057573 0 0 Z M-82.07226562 23.72412109 C-92.6698693 36.77321863 -96.10460242 49.78418727 -94.95947266 66.3359375 C-93.78413261 76.86655301 -88.61762276 85.84825978 -81.69335938 93.72021484 C-81.03335938 94.05021484 -80.37335938 94.38021484 -79.69335938 94.72021484 C-79.68401367 94.03507812 -79.67466797 93.34994141 -79.66503906 92.64404297 C-79.61094028 89.50207049 -79.52737114 86.36152417 -79.44335938 83.22021484 C-79.42208984 81.60373047 -79.42208984 81.60373047 -79.40039062 79.95458984 C-79.15681494 71.96530723 -78.15852689 66.0163498 -72.13085938 60.28271484 C-68.75691448 58.11992965 -66.16305613 57.59211963 -62.24121094 57.54321289 C-60.8940097 57.52396004 -60.8940097 57.52396004 -59.51959229 57.50431824 C-58.06646637 57.49323784 -58.06646637 57.49323784 -56.58398438 57.48193359 C-55.58381287 57.47386185 -54.58364136 57.4657901 -53.55316162 57.45747375 C-51.43487274 57.44363999 -49.31656164 57.43291467 -47.19824219 57.42504883 C-43.96961844 57.40785469 -40.74202373 57.36396377 -37.51367188 57.31982422 C-35.45378356 57.3096953 -33.39388655 57.30117982 -31.33398438 57.29443359 C-30.37333069 57.27692551 -29.412677 57.25941742 -28.4229126 57.24137878 C-22.29884184 57.26105106 -18.68396873 58.09896008 -13.69335938 61.72021484 C-9.9378171 66.56288777 -8.6009681 70.21477926 -8.37695312 76.26318359 C-8.33505859 77.33632812 -8.29316406 78.40947266 -8.25 79.51513672 C-8.21068359 80.6346875 -8.17136719 81.75423828 -8.13085938 82.90771484 C-8.08767578 84.03886719 -8.04449219 85.17001953 -8 86.33544922 C-7.89386839 89.13024838 -7.79181553 91.92513646 -7.69335938 94.72021484 C2.05590209 85.23489278 7.29990033 75.0712008 7.77954102 61.35009766 C7.93813284 45.95954676 3.70135737 33.43179235 -6.94335938 21.97021484 C-19.19725416 10.58964886 -32.54966781 6.75939665 -48.90820312 7.34130859 C-61.60977274 8.13406944 -73.42502598 14.4133043 -82.07226562 23.72412109 Z " fill="#FCCA67" transform="translate(299.693359375,13.27978515625)"/>
<path d="M0 0 C0.05607422 1.86205078 0.05607422 1.86205078 0.11328125 3.76171875 C0.1789595 5.40367511 0.2454062 7.04560087 0.3125 8.6875 C0.33505859 9.50412109 0.35761719 10.32074219 0.38085938 11.16210938 C0.59056243 15.87089606 0.93684233 19.19469961 4 23 C7.48804095 25.32536063 8.90140754 25.33457898 13 25 C15.60769998 24.13076667 16.6592303 23.56421265 18.08349609 21.20605469 C19.07476243 18.82004439 19.30974367 17.02632288 19.4140625 14.453125 C19.47207031 13.18662109 19.47207031 13.18662109 19.53125 11.89453125 C19.5621875 11.02183594 19.593125 10.14914063 19.625 9.25 C19.68300781 7.91775391 19.68300781 7.91775391 19.7421875 6.55859375 C19.83620873 4.3726002 19.92186143 2.18660938 20 0 C50.62364952 -0.33984321 79.30742129 15.23129602 101 36 C101.74636719 36.68320313 102.49273437 37.36640625 103.26171875 38.0703125 C122.8684057 56.61625373 137.29156066 85.30229309 139.2421875 112.359375 C139.24844457 114.57437946 139.1426076 116.78958217 139 119 C137.68644531 119.02578125 136.37289062 119.0515625 135.01953125 119.078125 C133.2838215 119.13441829 131.5481457 119.19176535 129.8125 119.25 C128.94818359 119.26417969 128.08386719 119.27835937 127.19335938 119.29296875 C121.90653165 119.4955292 118.7974008 119.95146849 115 124 C113.57337781 126.85324437 113.68966132 128.83454549 114 132 C115.79993774 134.69990662 117.083773 136.5418865 120 138 C121.4465242 138.15067214 122.8987934 138.24861036 124.3515625 138.31640625 C125.20234375 138.35830078 126.053125 138.40019531 126.9296875 138.44335938 C127.81914062 138.48267578 128.70859375 138.52199219 129.625 138.5625 C130.97078125 138.62727539 130.97078125 138.62727539 132.34375 138.69335938 C134.56234283 138.79956861 136.7810488 138.90161194 139 139 C139.2314422 145.73905223 138.49666725 151.59282967 136.875 158.125 C136.65126709 159.04079834 136.42753418 159.95659668 136.19702148 160.90014648 C134.15174153 168.95515361 131.43828865 176.43399721 128 184 C127.55011719 185.0209375 127.10023438 186.041875 126.63671875 187.09375 C120.84809313 199.48630063 112.41814376 210.16289967 103 220 C101.97519531 221.11955078 101.97519531 221.11955078 100.9296875 222.26171875 C94.66722196 228.88236958 87.55651738 233.97963336 80 239 C79.06671875 239.6290625 78.1334375 240.258125 77.171875 240.90625 C65.12665611 248.47753045 51.07930262 253.36177824 37.25 256.5 C36.1978833 256.74012817 36.1978833 256.74012817 35.12451172 256.98510742 C30.0263105 258.03430774 25.20106115 258.12237791 20 258 C19.9906543 257.41508789 19.98130859 256.83017578 19.97167969 256.22753906 C19.91786721 253.5675142 19.83424551 250.90922778 19.75 248.25 C19.73582031 247.32960938 19.72164062 246.40921875 19.70703125 245.4609375 C19.5789809 240.06342434 19.5789809 240.06342434 17.078125 235.421875 C13.51796946 232.9859791 11.34104352 232.5744075 7 233 C4.30009338 234.79993774 2.4581135 236.083773 1 239 C0.84932786 240.4465242 0.75138964 241.8987934 0.68359375 243.3515625 C0.64169922 244.20234375 0.59980469 245.053125 0.55664062 245.9296875 C0.51732422 246.81914062 0.47800781 247.70859375 0.4375 248.625 C0.37272461 249.97078125 0.37272461 249.97078125 0.30664062 251.34375 C0.20043139 253.56234283 0.09838806 255.7810488 0 258 C-6.94774467 258.26576577 -13.19195817 257.66207575 -19.9375 256 C-20.84137451 255.77852295 -21.74524902 255.5570459 -22.67651367 255.32885742 C-54.59190866 247.08356007 -82.21941808 226.68624176 -100 199 C-100.70898438 197.90171875 -101.41796875 196.8034375 -102.1484375 195.671875 C-109.53866285 183.49640796 -114.26181511 170.22564766 -117.4375 156.375 C-117.6015332 155.66569336 -117.76556641 154.95638672 -117.93457031 154.22558594 C-119.01499624 149.08449881 -119.1289352 144.2502412 -119 139 C-118.41508789 138.9906543 -117.83017578 138.98130859 -117.22753906 138.97167969 C-114.5675142 138.91786721 -111.90922778 138.83424551 -109.25 138.75 C-108.32960937 138.73582031 -107.40921875 138.72164062 -106.4609375 138.70703125 C-101.06342434 138.5789809 -101.06342434 138.5789809 -96.421875 136.078125 C-93.79080825 132.23271975 -93.52301055 129.69039627 -94 125 C-96.06463194 122.05543137 -97.68981178 120.28193392 -101.28613281 119.50805664 C-103.97088367 119.28398829 -106.61861013 119.20463428 -109.3125 119.1875 C-110.70952148 119.14979492 -110.70952148 119.14979492 -112.13476562 119.11132812 C-114.42360186 119.05264002 -116.71053426 119.01622832 -119 119 C-119.26577542 112.05200291 -118.66134365 105.80836689 -117 99.0625 C-116.66995972 97.70995117 -116.66995972 97.70995117 -116.33325195 96.33007812 C-108.13239794 64.4944129 -87.68491175 36.64249872 -60 19 C-58.89140625 18.29230469 -57.7828125 17.58460938 -56.640625 16.85546875 C-40.07076507 6.87155545 -19.6398697 -1.26708837 0 0 Z " fill="#FEFEFE" transform="translate(246,189)"/>
<path d="M0 0 C14.35546434 11.70990834 26.06794902 27.89121936 28.30664062 46.72021484 C29.71043452 67.61334732 27.4303759 87.75798563 13.41210938 104.25927734 C10.80642238 107.18052167 8.09063407 109.96902941 5.30664062 112.72021484 C4.64664063 113.38021484 3.98664063 114.04021484 3.30664062 114.72021484 C7.25052201 116.2360754 11.17278466 117.71319706 15.21679688 118.93896484 C24.28500638 121.71035305 32.86245349 125.15334205 41.43164062 129.22021484 C42.39078369 129.67074219 43.34992676 130.12126953 44.33813477 130.58544922 C58.73225435 137.5714423 58.73225435 137.5714423 61.30664062 142.72021484 C62.20426007 149.45236067 62.20426007 149.45236067 59.99023438 152.57958984 C57.00811243 155.38158362 55.25606866 156.58921928 51.10742188 157.16162109 C46.14242214 156.58500756 42.82853534 154.63934666 38.55664062 152.15771484 C29.76649982 147.29269872 20.89415885 143.61060993 11.37988281 140.41796875 C9.59005176 139.81559744 7.81050678 139.18282071 6.03320312 138.54443359 C-35.7723946 124.33491941 -82.98442511 130.64431467 -122.00976562 149.86083984 C-137.43510841 157.69096308 -151.22412009 167.73365579 -163.69335938 179.72021484 C-164.16193359 180.16300781 -164.63050781 180.60580078 -165.11328125 181.06201172 C-176.63064056 191.98028862 -185.79483535 203.91014517 -193.69335938 217.72021484 C-194.23259033 218.64713135 -194.23259033 218.64713135 -194.78271484 219.59277344 C-217.01359167 258.14236766 -222.57706531 304.02719462 -212.00585938 347.15771484 C-211.2703846 349.69718434 -210.50914703 352.20716661 -209.69335938 354.72021484 C-209.4292627 355.53570801 -209.16516602 356.35120117 -208.89306641 357.19140625 C-202.5444007 376.40585884 -194.08303371 393.6959683 -181.69335938 409.72021484 C-180.67048828 411.07759766 -180.67048828 411.07759766 -179.62695312 412.46240234 C-153.28017405 446.15828298 -114.77747552 468.63496306 -72.69335938 475.72021484 C-71.7589502 475.8894043 -70.82454102 476.05859375 -69.86181641 476.23291016 C-61.52398325 477.65368404 -53.39491274 478.1064586 -44.94335938 478.09521484 C-44.27682343 478.09500336 -43.61028748 478.09479187 -42.92355347 478.09457397 C-23.91220647 478.03499321 -5.58207382 475.20963147 12.30664062 468.72021484 C13.59258784 468.28510758 14.87905674 467.8515394 16.16601562 467.41943359 C32.63038066 461.74009528 47.52565775 453.30330297 61.30664062 442.72021484 C62.12648438 442.12337891 62.94632812 441.52654297 63.79101562 440.91162109 C98.97915579 414.40243497 122.12675493 372.06833389 128.30664062 328.72021484 C133.23786417 291.05746818 126.57951042 252.39159211 107.15112305 219.60205078 C104.3847423 214.72069821 103.68749591 211.33969018 104.30664062 205.72021484 C105.69711432 202.89713189 107.59348025 201.2918976 110.30664062 199.72021484 C114.12940162 198.75148399 117.22969598 199.09170289 120.68945312 201.11083984 C124.51051423 204.92049479 126.68143983 209.31546339 129.11914062 214.09521484 C129.6432251 215.11671631 130.16730957 216.13821777 130.70727539 217.19067383 C139.25835961 234.24430873 144.91845426 251.95866687 148.30664062 270.72021484 C148.49210449 271.73937988 148.67756836 272.75854492 148.86865234 273.80859375 C150.51562957 283.90936842 150.7064804 293.88858612 150.68164062 304.09521484 C150.68076447 304.97661133 150.67988831 305.85800781 150.6789856 306.76611328 C150.63217191 321.07781865 149.76535545 334.77680816 146.30664062 348.72021484 C146.06526367 349.70828125 145.82388672 350.69634766 145.57519531 351.71435547 C135.9584077 389.915381 114.23819935 427.69572463 83.30664062 452.72021484 C81.85257812 453.93064453 81.85257812 453.93064453 80.36914062 455.16552734 C54.31141847 476.52634896 23.52187081 490.89719902 -9.69335938 496.72021484 C-10.67272461 496.89681641 -11.65208984 497.07341797 -12.66113281 497.25537109 C-22.80524955 498.90818034 -32.8098751 499.12018082 -43.06835938 499.09521484 C-43.94975586 499.09433868 -44.83115234 499.09346252 -45.73925781 499.09255981 C-60.05096318 499.04574613 -73.74995269 498.17892967 -87.69335938 494.72021484 C-88.68142578 494.47883789 -89.66949219 494.23746094 -90.6875 493.98876953 C-116.72603592 487.43378661 -140.31150675 475.88183711 -161.69335938 459.72021484 C-162.99853516 458.73601562 -162.99853516 458.73601562 -164.33007812 457.73193359 C-174.22634643 450.03483603 -183.817551 441.50063048 -191.69335938 431.72021484 C-192.52222656 430.71732422 -193.35109375 429.71443359 -194.20507812 428.68115234 C-201.15706942 420.15486981 -207.16943299 411.22913061 -212.69335938 401.72021484 C-213.27730469 400.71716309 -213.27730469 400.71716309 -213.87304688 399.69384766 C-223.72681177 382.52415832 -230.45801881 364.03369615 -234.69335938 344.72021484 C-234.85707031 344.01864258 -235.02078125 343.31707031 -235.18945312 342.59423828 C-240.95615678 316.96576809 -239.98641186 286.08992431 -233.69335938 260.72021484 C-233.45198242 259.73214844 -233.21060547 258.74408203 -232.96191406 257.72607422 C-224.93458841 225.83891143 -209.36370684 196.58373849 -186.69335938 172.72021484 C-185.54099762 171.37159934 -184.39466101 170.01780021 -183.25585938 168.65771484 C-161.15123304 143.42459151 -129.25674516 127.27680802 -97.76855469 117.39648438 C-95.36249391 116.61239163 -93.02138784 115.71178252 -90.69335938 114.72021484 C-91.33402344 114.12595703 -91.9746875 113.53169922 -92.63476562 112.91943359 C-101.79378799 104.1426059 -108.12822269 94.55947043 -112.69335938 82.72021484 C-113.01433594 81.89005859 -113.3353125 81.05990234 -113.66601562 80.20458984 C-119.37802694 62.03242362 -116.62420113 40.76099743 -108.13085938 24.03271484 C-98.31204028 5.98870699 -81.63429724 -6.10979517 -62.25585938 -12.21728516 C-40.94019993 -16.83856634 -17.54585144 -13.26057573 0 0 Z M-82.07226562 23.72412109 C-92.6698693 36.77321863 -96.10460242 49.78418727 -94.95947266 66.3359375 C-93.78413261 76.86655301 -88.61762276 85.84825978 -81.69335938 93.72021484 C-81.03335938 94.05021484 -80.37335938 94.38021484 -79.69335938 94.72021484 C-79.68401367 94.03507812 -79.67466797 93.34994141 -79.66503906 92.64404297 C-79.61094028 89.50207049 -79.52737114 86.36152417 -79.44335938 83.22021484 C-79.42208984 81.60373047 -79.42208984 81.60373047 -79.40039062 79.95458984 C-79.15681494 71.96530723 -78.15852689 66.0163498 -72.13085938 60.28271484 C-68.75691448 58.11992965 -66.16305613 57.59211963 -62.24121094 57.54321289 C-60.8940097 57.52396004 -60.8940097 57.52396004 -59.51959229 57.50431824 C-58.06646637 57.49323784 -58.06646637 57.49323784 -56.58398438 57.48193359 C-55.58381287 57.47386185 -54.58364136 57.4657901 -53.55316162 57.45747375 C-51.43487274 57.44363999 -49.31656164 57.43291467 -47.19824219 57.42504883 C-43.96961844 57.40785469 -40.74202373 57.36396377 -37.51367188 57.31982422 C-35.45378356 57.3096953 -33.39388655 57.30117982 -31.33398438 57.29443359 C-30.37333069 57.27692551 -29.412677 57.25941742 -28.4229126 57.24137878 C-22.29884184 57.26105106 -18.68396873 58.09896008 -13.69335938 61.72021484 C-9.9378171 66.56288777 -8.6009681 70.21477926 -8.37695312 76.26318359 C-8.33505859 77.33632812 -8.29316406 78.40947266 -8.25 79.51513672 C-8.21068359 80.6346875 -8.17136719 81.75423828 -8.13085938 82.90771484 C-8.08767578 84.03886719 -8.04449219 85.17001953 -8 86.33544922 C-7.89386839 89.13024838 -7.79181553 91.92513646 -7.69335938 94.72021484 C2.05590209 85.23489278 7.29990033 75.0712008 7.77954102 61.35009766 C7.93813284 45.95954676 3.70135737 33.43179235 -6.94335938 21.97021484 C-19.19725416 10.58964886 -32.54966781 6.75939665 -48.90820312 7.34130859 C-61.60977274 8.13406944 -73.42502598 14.4133043 -82.07226562 23.72412109 Z " fill="#000000" transform="translate(299.693359375,13.27978515625)"/>
<path d="M0 0 C38.3157419 -1.50542504 75.49740882 11.40161616 104.22167969 36.91552734 C107.44002393 39.90884914 110.59162944 42.95475209 113.65917969 46.10302734 C114.51189453 46.88806641 114.51189453 46.88806641 115.38183594 47.68896484 C141.14902198 71.9705676 154.50445199 109.74652499 155.97558594 144.39990234 C157.02213864 183.97082854 143.69440904 221.94987428 116.61230469 251.06787109 C114.32707504 253.44908038 112.02313195 255.79968924 109.65917969 258.10302734 C108.92634766 258.9209375 108.92634766 258.9209375 108.17871094 259.75537109 C84.60135379 285.2064255 46.68943367 298.86571457 12.74902344 300.40771484 C-27.45940782 301.58827327 -65.69887475 288.59287346 -95.30566406 261.05615234 C-97.68687335 258.7709227 -100.03748221 256.46697961 -102.34082031 254.10302734 C-102.90929687 253.57966797 -103.47777344 253.05630859 -104.06347656 252.51708984 C-128.52798533 229.46305972 -143.50437174 191.44206575 -144.62207031 158.26318359 C-144.68808809 153.67337614 -144.60312874 149.09646383 -144.43066406 144.50976562 C-144.35131558 142.38417505 -144.31178042 140.257179 -144.27832031 138.13037109 C-143.00879681 101.67124303 -123.99411312 67.09854341 -98.34082031 42.10302734 C-97.81746094 41.53455078 -97.29410156 40.96607422 -96.75488281 40.38037109 C-72.30512432 14.4347413 -34.7660055 1.53016837 0 0 Z M-24.27832031 23.10302734 C-25.18219482 23.32450439 -26.08606934 23.54598145 -27.01733398 23.77416992 C-61.62223893 32.71429839 -89.78276843 55.51451259 -107.9309082 85.96850586 C-114.42364485 97.21702518 -118.7816528 108.84036576 -121.71582031 121.47802734 C-121.96779175 122.54706299 -121.96779175 122.54706299 -122.22485352 123.63769531 C-123.40458473 129.15585462 -123.51149453 134.47369572 -123.34082031 140.10302734 C-122.47130737 140.10919067 -122.47130737 140.10919067 -121.58422852 140.11547852 C-118.93957922 140.14852011 -116.29720192 140.21916999 -113.65332031 140.29052734 C-112.28530273 140.29922852 -112.28530273 140.29922852 -110.88964844 140.30810547 C-106.29055979 140.4586211 -103.99848687 140.61183778 -100.22363281 143.43115234 C-97.77096824 146.91169709 -97.80919108 148.92594053 -98.34082031 153.10302734 C-99.52849887 156.48334323 -100.23907256 157.03519551 -103.34082031 159.10302734 C-105.51733398 159.421875 -105.51733398 159.421875 -108.00878906 159.51708984 C-108.90146484 159.55576172 -109.79414063 159.59443359 -110.71386719 159.63427734 C-112.10702148 159.68068359 -112.10702148 159.68068359 -113.52832031 159.72802734 C-114.46869141 159.76669922 -115.4090625 159.80537109 -116.37792969 159.84521484 C-118.69869742 159.93945922 -121.01945779 160.02506759 -123.34082031 160.10302734 C-123.57145507 166.82535232 -122.84102041 172.65196837 -121.21582031 179.16552734 C-120.99063721 180.08019775 -120.7654541 180.99486816 -120.53344727 181.93725586 C-114.66811066 204.98640004 -103.72054379 223.76311318 -87.34082031 241.10302734 C-86.65503906 241.85326172 -85.96925781 242.60349609 -85.26269531 243.37646484 C-66.69449314 262.9762338 -38.04501108 277.41776436 -10.98925781 279.34130859 C-8.77170889 279.35067852 -6.55378826 279.24579947 -4.34082031 279.10302734 C-4.31503906 277.78947266 -4.28925781 276.47591797 -4.26269531 275.12255859 C-4.20640202 273.38684884 -4.14905496 271.65117304 -4.09082031 269.91552734 C-4.07664062 269.05121094 -4.06246094 268.18689453 -4.04785156 267.29638672 C-3.84529111 262.009559 -3.38935182 258.90042814 0.65917969 255.10302734 C3.43906129 253.71308654 5.57781229 253.9181453 8.65917969 254.10302734 C12.00183173 255.31009614 12.60622535 256.02359584 14.65917969 259.10302734 C14.97802734 261.27954102 14.97802734 261.27954102 15.07324219 263.77099609 C15.11191406 264.66367187 15.15058594 265.55634766 15.19042969 266.47607422 C15.23683594 267.86922852 15.23683594 267.86922852 15.28417969 269.29052734 C15.32285156 270.23089844 15.36152344 271.17126953 15.40136719 272.14013672 C15.49561156 274.46090445 15.58121994 276.78166482 15.65917969 279.10302734 C22.27154485 279.31568632 28.0555941 278.67474892 34.47167969 277.10302734 C35.82712891 276.77298706 35.82712891 276.77298706 37.20996094 276.4362793 C52.0613123 272.63448805 66.08764873 266.94238505 78.65917969 258.10302734 C79.71105469 257.36568359 80.76292969 256.62833984 81.84667969 255.86865234 C95.43963666 246.01969165 106.48936805 234.1134087 115.65917969 220.10302734 C116.20832031 219.31154297 116.75746094 218.52005859 117.32324219 217.70458984 C124.91577992 206.13307512 129.42131028 192.26920253 132.65917969 178.91552734 C132.86679932 178.06756592 133.07441895 177.21960449 133.28833008 176.34594727 C134.5354678 170.82135074 134.84124754 165.76419949 134.65917969 160.10302734 C133.345625 160.07724609 132.03207031 160.05146484 130.67871094 160.02490234 C128.94300119 159.96860905 127.20732539 159.91126199 125.47167969 159.85302734 C124.60736328 159.83884766 123.74304688 159.82466797 122.85253906 159.81005859 C117.56571134 159.60749814 114.45658048 159.15155885 110.65917969 155.10302734 C109.2325575 152.24978297 109.34884101 150.26848185 109.65917969 147.10302734 C111.45911743 144.40312073 112.74295269 142.56114084 115.65917969 141.10302734 C117.10570388 140.9523552 118.55797309 140.85441699 120.01074219 140.78662109 C120.86152344 140.74472656 121.71230469 140.70283203 122.58886719 140.65966797 C123.47832031 140.62035156 124.36777344 140.58103516 125.28417969 140.54052734 C126.18136719 140.49734375 127.07855469 140.45416016 128.00292969 140.40966797 C130.22152251 140.30345874 132.44022848 140.2014154 134.65917969 140.10302734 C134.92494546 133.15528267 134.32125544 126.91106917 132.65917969 120.16552734 C132.43770264 119.26165283 132.21622559 118.35777832 131.98803711 117.42651367 C123.70637455 85.37035848 103.29850088 58.10149008 75.65917969 40.10302734 C74.73105469 39.47912109 73.80292969 38.85521484 72.84667969 38.21240234 C60.75010992 30.58331573 44.98621216 24.36300873 30.84667969 21.97802734 C29.41388672 21.72666016 29.41388672 21.72666016 27.95214844 21.47021484 C23.83930299 21.01160574 19.79229666 21.03042554 15.65917969 21.10302734 C15.63936035 21.65764648 15.61954102 22.21226562 15.59912109 22.78369141 C15.50360317 25.30726428 15.39403402 27.83003958 15.28417969 30.35302734 C15.25324219 31.22572266 15.22230469 32.09841797 15.19042969 32.99755859 C15.13242187 34.2640625 15.13242187 34.2640625 15.07324219 35.55615234 C15.04182129 36.33120117 15.01040039 37.10625 14.97802734 37.90478516 C14.62411674 40.34476304 13.93007958 41.99879742 12.65917969 44.10302734 C9.43624683 46.40512224 6.53921645 46.57813389 2.65917969 46.10302734 C-0.67843076 43.95212283 -2.07552964 42.89889935 -3.34082031 39.10302734 C-3.48574155 37.69637808 -3.58710963 36.28491405 -3.65722656 34.87255859 C-3.69912109 34.07011719 -3.74101562 33.26767578 -3.78417969 32.44091797 C-3.82349609 31.60753906 -3.8628125 30.77416016 -3.90332031 29.91552734 C-3.94650391 29.07054687 -3.9896875 28.22556641 -4.03417969 27.35498047 C-4.14013549 25.27118301 -4.24097051 23.18712631 -4.34082031 21.10302734 C-11.28856498 20.83726158 -17.53277848 21.4409516 -24.27832031 23.10302734 Z " fill="#030202" transform="translate(250.3408203125,167.89697265625)"/>
<path d="M0 0 C2.07229211 -0.00436681 4.14244072 -0.04069138 6.21435547 -0.07861328 C8.18855469 -0.08441406 8.18855469 -0.08441406 10.20263672 -0.09033203 C11.40259277 -0.0985498 12.60254883 -0.10676758 13.83886719 -0.11523438 C18.45561812 0.55003241 21.73993365 2.51647715 24.64794922 6.18310547 C25.5237027 9.58881347 25.10181687 11.98340839 24.21044922 15.37060547 C21.96044922 18.30810547 21.96044922 18.30810547 19.21044922 20.37060547 C16.39794922 20.68310547 16.39794922 20.68310547 14.21044922 20.37060547 C14.21044922 21.03060547 14.21044922 21.69060547 14.21044922 22.37060547 C14.76224854 22.59208252 15.31404785 22.81355957 15.88256836 23.04174805 C18.91504571 24.77282033 21.08711999 27.11495449 23.45654297 29.63232422 C24.46832383 30.67911773 25.48071208 31.72532445 26.49365234 32.77099609 C28.07806293 34.41747282 29.65734137 36.06804967 31.22631836 37.72924805 C32.74799278 39.33547313 34.28785691 40.92228227 35.83154297 42.50732422 C36.29628525 43.00930832 36.76102753 43.51129242 37.23985291 44.02848816 C38.72032106 45.59968806 38.72032106 45.59968806 41.21044922 47.37060547 C43.86150337 47.36886212 43.86150337 47.36886212 46.21044922 46.37060547 C54.83795488 43.49477025 63.50490028 45.10594016 71.55029297 48.89013672 C79.27294243 53.18805764 84.10338137 59.00382291 87.33154297 67.22607422 C88.25377842 70.52562773 88.47715019 73.2635809 88.46044922 76.68310547 C88.46818359 78.25511719 88.46818359 78.25511719 88.47607422 79.85888672 C88.24998219 82.84795635 87.74580423 84.8427988 86.86230469 87.64086914 C86.27190275 90.27457763 85.9617867 91.76431132 86.99365234 94.28022766 C88.37931497 96.19720846 89.86629009 97.8619424 91.51513672 99.55810547 C92.09707291 100.18745499 92.67900909 100.8168045 93.27857971 101.46522522 C95.17653002 103.47466601 97.12154555 105.42569582 99.08544922 107.37060547 C99.74038361 108.03446259 100.39531799 108.6983197 101.07009888 109.3822937 C108.40823694 116.71257833 114.7248579 122.86033105 125.54492188 123.55224609 C129.3840122 123.40484436 133.13483122 122.95850718 136.93652344 122.421875 C140.75419642 122.33579906 142.44541908 123.84835847 145.21044922 126.37060547 C146.81131549 129.57233801 146.70962011 132.89637606 146.21044922 136.37060547 C144.41681011 139.18064007 143.19163987 140.88001015 140.21044922 142.37060547 C138.7619634 142.45402706 137.30974053 142.47793408 135.85888672 142.46826172 C135.00810547 142.46503906 134.15732422 142.46181641 133.28076172 142.45849609 C132.39130859 142.45011719 131.50185547 142.44173828 130.58544922 142.43310547 C129.68826172 142.42859375 128.79107422 142.42408203 127.86669922 142.41943359 C125.64788274 142.40763138 123.42919903 142.39116702 121.21044922 142.37060547 C121.25685547 143.68416016 121.30326172 144.99771484 121.35107422 146.35107422 C121.38860188 148.08672851 121.42500097 149.82240746 121.46044922 151.55810547 C121.49396484 152.42242187 121.52748047 153.28673828 121.56201172 154.17724609 C121.62721538 158.43178487 121.60875633 160.72788263 119.31982422 164.42138672 C116.07211179 167.42251357 113.68840528 167.76226333 109.24951172 167.72998047 C105.83038223 167.12737527 104.27855869 165.0027448 102.21044922 162.37060547 C100.93038057 159.81046817 101.40368341 158.73839264 101.91357422 155.94482422 C102.92290502 147.28590742 102.82597848 139.61263768 97.46630859 132.36425781 C93.97736174 128.0621471 90.15146803 124.13159851 86.21044922 120.24560547 C85.55693481 119.58579681 84.90342041 118.92598816 84.23010254 118.2461853 C82.32179447 116.34668399 80.37467404 114.50327166 78.39794922 112.67529297 C77.81309753 112.10675095 77.22824585 111.53820892 76.62567139 110.95243835 C74.03127004 108.6841384 72.41794744 107.31320267 68.8795166 107.48141479 C66.59969725 107.99004995 64.43300573 108.65807104 62.21044922 109.37060547 C54.00882278 110.17948147 47.31102607 109.69034804 40.21044922 105.37060547 C39.51177734 104.95810547 38.81310547 104.54560547 38.09326172 104.12060547 C30.72876866 99.22947046 26.52734031 91.79856252 24.21044922 83.37060547 C23.94482422 80.11669922 23.94482422 80.11669922 23.96044922 76.80810547 C23.95271484 75.16648437 23.95271484 75.16648437 23.94482422 73.49169922 C24.21044922 70.37060547 24.21044922 70.37060547 25.28857422 67.71826172 C26.40915091 64.86458972 26.35242734 64.18944389 25.21044922 61.37060547 C23.47591042 59.40483139 21.7491646 57.60770564 19.86279297 55.80029297 C19.06585777 55.01684006 19.06585777 55.01684006 18.25282288 54.21755981 C16.55818802 52.55291477 14.85399896 50.89854392 13.14794922 49.24560547 C11.43925001 47.58465673 9.73285743 45.92157824 8.03236389 44.25222778 C6.97457995 43.21427961 5.91188944 42.18130438 4.84397888 41.15377808 C3.59480768 39.930346 2.39717922 38.65469528 1.21044922 37.37060547 C1.21044922 36.71060547 1.21044922 36.05060547 1.21044922 35.37060547 C0.55044922 35.37060547 -0.10955078 35.37060547 -0.78955078 35.37060547 C-0.83080078 36.44310547 -0.87205078 37.51560547 -0.91455078 38.62060547 C-1.78955078 42.37060547 -1.78955078 42.37060547 -4.41455078 44.87060547 C-8.56483244 46.7151751 -10.46629933 46.70688319 -14.78955078 45.37060547 C-17.3725286 43.1806895 -19.27370922 41.40228859 -20.78955078 38.37060547 C-21.04773524 34.16130844 -21.06060451 29.94813963 -21.0847168 25.73193359 C-21.1018746 23.64206499 -21.14575297 21.55380213 -21.18994141 19.46435547 C-21.20007389 18.1258254 -21.20858826 16.7872819 -21.21533203 15.44873047 C-21.22991455 14.23604492 -21.24449707 13.02335938 -21.25952148 11.77392578 C-20.69119043 7.65832324 -19.42659514 5.55231662 -16.78955078 2.37060547 C-12.1164713 -1.08959464 -5.54240552 -0.00130933 0 0 Z " fill="#040404" transform="translate(199.78955078125,240.62939453125)"/>
<path d="M0 0 C10.56 0 21.12 0 32 0 C32 9.24 32 18.48 32 28 C21.44 28 10.88 28 0 28 C0 18.76 0 9.52 0 0 Z " fill="#F9C866" transform="translate(240,90)"/>
<path d="M0 0 C4.08998175 1.80720124 6.66247347 4.19069751 9 8 C9.62819266 13.0255413 9.03320735 15.95572354 6 20 C3.24705395 23.21177039 0.96958591 23.86947882 -3.25 24.4375 C-8.1843364 23.86182742 -10.79803186 21.71753928 -14 18 C-15.23534045 14.29397865 -15.45528745 11.90246386 -15 8 C-10.91704021 1.64314568 -7.65816344 -0.51919752 0 0 Z " fill="#F9C866" transform="translate(259,306)"/>
<path d="M0 0 C3.14727914 2.84270374 3.74484475 5.83246418 4 10 C3.20858379 13.69327563 2.16910722 14.8577962 -0.75 17.3125 C-4.36420623 19.18910708 -6.00785693 19.74852683 -10 19 C-12.91817239 17.15658574 -15.43102312 15.13795376 -17 12 C-17.43964729 8.13110388 -17.12635224 6.24334506 -15.3125 2.75 C-10.70512536 -2.72904011 -6.30111738 -2.65166328 0 0 Z " fill="#040301" transform="translate(393,179)"/>
</svg>
