<?xml version="1.0" encoding="UTF-8"?>
<svg version="1.1" xmlns="http://www.w3.org/2000/svg" width="512" height="512">
<path d="M0 0 C34.99786712 15.71787162 80.63464552 14.90143217 116.5625 2.8125 C119.64725998 1.54616117 122.65527596 0.23815961 125.62890625 -1.26953125 C133.8179418 -3.83201241 142.16498797 -1.64751423 150.3125 0.125 C188.06204445 7.75174449 227.35915176 8.49645555 265.23022461 1.22338867 C273.71294615 -0.271055 281.80509236 1.60442244 288.875 6.5 C297.79530257 13.93059409 299.53549801 23.87204268 301.5625 34.8125 C301.79066406 36.029375 302.01882813 37.24625 302.25390625 38.5 C309.94123374 90.10723352 296.87669508 144.20674459 277.5625 191.8125 C277.15902344 192.82183594 276.75554687 193.83117187 276.33984375 194.87109375 C276.08332031 195.51175781 275.82679688 196.15242187 275.5625 196.8125 C276.48361572 196.81866333 276.48361572 196.81866333 277.42333984 196.82495117 C301.34122603 197.10567754 301.34122603 197.10567754 309.59375 204.67578125 C316.80898147 212.2902161 318.21450349 218.70918601 317.96875 229.08203125 C317.05245317 237.49610306 313.14908349 242.95112033 306.8203125 248.33984375 C299.40355201 253.17741936 293.33802679 253.19318252 284.625 253 C283.46419922 252.98646484 282.30339844 252.97292969 281.10742188 252.95898438 C278.25862948 252.9238141 275.41081156 252.87459287 272.5625 252.8125 C272.35786133 253.731521 272.15322266 254.65054199 271.94238281 255.59741211 C268.83069726 269.30683708 265.0643182 282.82960989 261.3125 296.375 C260.65595837 298.75447684 259.9997063 301.1340336 259.34375 303.51367188 C257.75333223 309.28087215 256.15936143 315.04708076 254.5625 320.8125 C255.16922546 321.00771744 255.77595093 321.20293488 256.40106201 321.40406799 C257.20295959 321.66590378 258.00485718 321.92773956 258.83105469 322.19750977 C259.62340515 322.4546022 260.41575562 322.71169464 261.2321167 322.97657776 C264.65913728 324.20587026 267.70772429 325.86497277 270.8125 327.75 C271.44873291 328.13478516 272.08496582 328.51957031 272.74047852 328.91601562 C279.81343211 333.36262481 285.71764806 338.88453605 291.5625 344.8125 C292.31144531 345.55113281 293.06039063 346.28976562 293.83203125 347.05078125 C310.26116269 364.25762305 318.19841241 388.64827331 318 412.0625 C317.99170166 413.33375732 317.98340332 414.60501465 317.97485352 415.91479492 C317.51198949 441.76435064 307.3764975 463.14866042 289.5625 481.8125 C288.77166016 482.71548828 288.77166016 482.71548828 287.96484375 483.63671875 C273.81354459 499.16333599 250.98713108 508.61845945 230.30615234 510.03564453 C200.76555702 511.34536655 175.48535373 504.827753 153.16015625 484.8125 C136.47897522 469.24983987 126.24115083 449.27283398 122.5625 426.8125 C122.5625 424.5025 122.5625 422.1925 122.5625 419.8125 C82.3025 419.8125 42.0425 419.8125 0.5625 419.8125 C0.5625 422.1225 0.5625 424.4325 0.5625 426.8125 C-2.96736183 448.36438934 -12.36288823 466.01873244 -27.4375 481.8125 C-28.22833984 482.71548828 -28.22833984 482.71548828 -29.03515625 483.63671875 C-42.81817123 498.75925948 -65.54896544 508.67296651 -85.74462891 510.03564453 C-114.77858832 511.28538587 -139.52441355 505.93551943 -161.75 486.25 C-163.31803155 484.77669849 -164.88107344 483.298056 -166.4375 481.8125 C-167.03949219 481.28527344 -167.64148438 480.75804687 -168.26171875 480.21484375 C-183.38425948 466.43182877 -193.29796651 443.70103456 -194.66064453 423.50537109 C-195.90779497 394.53160341 -190.5611326 369.99921015 -171.125 347.6875 C-163.99064957 340.09130065 -156.73287687 333.30221549 -147.8125 327.875 C-146.91700439 327.32670532 -146.91700439 327.32670532 -146.00341797 326.76733398 C-142.66440855 324.82132182 -139.38206124 323.38472568 -135.70166016 322.19311523 C-134.49976547 321.80131325 -134.49976547 321.80131325 -133.27359009 321.40159607 C-132.66768036 321.20719437 -132.06177063 321.01279266 -131.4375 320.8125 C-131.76959473 319.59481934 -132.10168945 318.37713867 -132.44384766 317.12255859 C-134.51074219 309.54394531 -136.57763672 301.96533203 -138.64453125 294.38671875 C-138.90538513 293.43041565 -139.16623901 292.47411255 -139.43499756 291.48883057 C-139.96352621 289.55056614 -140.49172345 287.61221131 -141.01959229 285.67376709 C-142.39685727 280.61789488 -143.78057579 275.56391805 -145.17480469 270.51269531 C-145.5928688 268.9933287 -145.5928688 268.9933287 -146.01937866 267.44326782 C-146.55362697 265.50224751 -147.08986365 263.56177312 -147.62832642 261.62191772 C-147.86618866 260.75620148 -148.1040509 259.89048523 -148.34912109 258.99853516 C-148.55991302 258.23610504 -148.77070496 257.47367493 -148.98788452 256.68814087 C-149.4375 254.8125 -149.4375 254.8125 -149.4375 252.8125 C-150.14245605 252.83868408 -150.84741211 252.86486816 -151.57373047 252.8918457 C-154.81975312 252.99685626 -158.06541702 253.06115286 -161.3125 253.125 C-162.97539062 253.1878418 -162.97539062 253.1878418 -164.671875 253.25195312 C-173.32039551 253.37913725 -180.09399605 251.81884149 -186.5793457 245.83691406 C-193.73439844 238.26841504 -195.08749584 231.83107425 -194.84375 221.54296875 C-193.92745317 213.12889694 -190.02408349 207.67387967 -183.6953125 202.28515625 C-176.8502379 197.82046226 -171.03187231 197.30789885 -163 197.125 C-161.98228516 197.09083984 -160.96457031 197.05667969 -159.91601562 197.02148438 C-157.42328734 196.93956373 -154.93088598 196.87023351 -152.4375 196.8125 C-152.72882813 196.07539795 -153.02015625 195.3382959 -153.3203125 194.57885742 C-169.25440566 154.03272847 -180.62495846 112.65066012 -180.75 68.8125 C-180.75376648 68.08963806 -180.75753296 67.36677612 -180.76141357 66.62200928 C-180.88097328 21.50429093 -180.88097328 21.50429093 -168.4375 8.8125 C-161.26194236 2.68864747 -153.88945212 0.20350397 -144.4375 0.8125 C-140.19194568 1.35907449 -135.97300941 2.05220142 -131.75 2.75 C-117.81523345 5.04408897 -104.17058558 6.05109617 -90.0625 6.0625 C-88.92399094 6.06351212 -88.92399094 6.06351212 -87.76248169 6.06454468 C-66.23639533 6.0345105 -45.09653306 4.02116066 -24.03295898 -0.5612793 C-15.86155528 -2.30699738 -7.7473985 -3.92808816 0 0 Z M-89.4375 370.8125 C-89.4375 378.0725 -89.4375 385.3325 -89.4375 392.8125 C-83.54328217 387.76836645 -83.54328217 387.76836645 -78 382.4375 C-77.32066406 381.74914062 -76.64132813 381.06078125 -75.94140625 380.3515625 C-75.44511719 379.84367187 -74.94882813 379.33578125 -74.4375 378.8125 C-75.10155912 375.73490131 -75.10155912 375.73490131 -77.328125 374.6796875 C-78.10671875 374.35226562 -78.8853125 374.02484375 -79.6875 373.6875 C-80.45578125 373.35492188 -81.2240625 373.02234375 -82.015625 372.6796875 C-84.8171773 371.61009824 -84.8171773 371.61009824 -89.4375 370.8125 Z M227.5625 370.8125 C227.5625 378.0725 227.5625 385.3325 227.5625 392.8125 C233.45671783 387.76836645 233.45671783 387.76836645 239 382.4375 C239.67933594 381.74914062 240.35867188 381.06078125 241.05859375 380.3515625 C241.55488281 379.84367187 242.05117188 379.33578125 242.5625 378.8125 C241.89844088 375.73490131 241.89844088 375.73490131 239.671875 374.6796875 C238.89328125 374.35226562 238.1146875 374.02484375 237.3125 373.6875 C236.54421875 373.35492188 235.7759375 373.02234375 234.984375 372.6796875 C232.1828227 371.61009824 232.1828227 371.61009824 227.5625 370.8125 Z M-110.8125 372.6875 C-112.27816406 373.20957031 -112.27816406 373.20957031 -113.7734375 373.7421875 C-116.59696624 374.77109699 -116.59696624 374.77109699 -119.4375 376.8125 C-117.77580526 381.11827504 -114.60669694 383.90261855 -111.375 387.0625 C-110.82005859 387.61679687 -110.26511719 388.17109375 -109.69335938 388.7421875 C-107.43278704 391.52994318 -107.43278704 391.52994318 -104.4375 392.8125 C-104.4375 385.5525 -104.4375 378.2925 -104.4375 370.8125 C-106.59625474 370.8125 -108.81720511 371.97003176 -110.8125 372.6875 Z M206.1875 372.6875 C204.72183594 373.20957031 204.72183594 373.20957031 203.2265625 373.7421875 C200.40303376 374.77109699 200.40303376 374.77109699 197.5625 376.8125 C199.22419474 381.11827504 202.39330306 383.90261855 205.625 387.0625 C206.17994141 387.61679687 206.73488281 388.17109375 207.30664062 388.7421875 C209.56721296 391.52994318 209.56721296 391.52994318 212.5625 392.8125 C212.5625 385.5525 212.5625 378.2925 212.5625 370.8125 C210.40374526 370.8125 208.18279489 371.97003176 206.1875 372.6875 Z M-132.4375 389.8125 C-133.25761312 391.37101755 -134.06826213 392.93451716 -134.875 394.5 C-135.55369141 395.80517578 -135.55369141 395.80517578 -136.24609375 397.13671875 C-137.68743849 400.11016388 -137.68743849 400.11016388 -138.4375 404.8125 C-131.1775 404.8125 -123.9175 404.8125 -116.4375 404.8125 C-121.43806013 398.95381416 -121.43806013 398.95381416 -126.6875 393.375 C-127.35265625 392.69566406 -128.0178125 392.01632812 -128.703125 391.31640625 C-130.3067398 389.59412505 -130.3067398 389.59412505 -132.4375 389.8125 Z M-64.94970703 391.08178711 C-65.52575684 391.6619458 -66.10180664 392.24210449 -66.6953125 392.83984375 C-67.32050781 393.46697266 -67.94570312 394.09410156 -68.58984375 394.74023438 C-69.24082031 395.40345703 -69.89179687 396.06667969 -70.5625 396.75 C-71.22121094 397.40935547 -71.87992187 398.06871094 -72.55859375 398.74804688 C-75.75897524 401.40006401 -75.75897524 401.40006401 -77.4375 404.8125 C-70.1775 404.8125 -62.9175 404.8125 -55.4375 404.8125 C-57.54479056 396.65914818 -57.54479056 396.65914818 -61.4375 389.8125 C-63.51123465 389.59819836 -63.51123465 389.59819836 -64.94970703 391.08178711 Z M184.5625 389.8125 C183.74238688 391.37101755 182.93173787 392.93451716 182.125 394.5 C181.44630859 395.80517578 181.44630859 395.80517578 180.75390625 397.13671875 C179.31256151 400.11016388 179.31256151 400.11016388 178.5625 404.8125 C185.8225 404.8125 193.0825 404.8125 200.5625 404.8125 C195.56193987 398.95381416 195.56193987 398.95381416 190.3125 393.375 C189.64734375 392.69566406 188.9821875 392.01632812 188.296875 391.31640625 C186.6932602 389.59412505 186.6932602 389.59412505 184.5625 389.8125 Z M252.05029297 391.08178711 C251.47424316 391.6619458 250.89819336 392.24210449 250.3046875 392.83984375 C249.67949219 393.46697266 249.05429687 394.09410156 248.41015625 394.74023438 C247.75917969 395.40345703 247.10820312 396.06667969 246.4375 396.75 C245.77878906 397.40935547 245.12007813 398.06871094 244.44140625 398.74804688 C241.24102476 401.40006401 241.24102476 401.40006401 239.5625 404.8125 C246.8225 404.8125 254.0825 404.8125 261.5625 404.8125 C259.45520944 396.65914818 259.45520944 396.65914818 255.5625 389.8125 C253.48876535 389.59819836 253.48876535 389.59819836 252.05029297 391.08178711 Z M-138.4375 419.8125 C-136.21637795 428.01556435 -136.21637795 428.01556435 -132.4375 434.8125 C-128.13172496 433.15080526 -125.34738145 429.98169694 -122.1875 426.75 C-121.63320312 426.19505859 -121.07890625 425.64011719 -120.5078125 425.06835938 C-117.72005682 422.80778704 -117.72005682 422.80778704 -116.4375 419.8125 C-123.6975 419.8125 -130.9575 419.8125 -138.4375 419.8125 Z M-77.4375 419.8125 C-72.39336645 425.70671783 -72.39336645 425.70671783 -67.0625 431.25 C-66.37414062 431.92933594 -65.68578125 432.60867188 -64.9765625 433.30859375 C-64.46867188 433.80488281 -63.96078125 434.30117188 -63.4375 434.8125 C-60.35990131 434.14844088 -60.35990131 434.14844088 -59.3046875 431.921875 C-58.97726563 431.14328125 -58.64984375 430.3646875 -58.3125 429.5625 C-57.97992188 428.79421875 -57.64734375 428.0259375 -57.3046875 427.234375 C-56.23509824 424.4328227 -56.23509824 424.4328227 -55.4375 419.8125 C-62.6975 419.8125 -69.9575 419.8125 -77.4375 419.8125 Z M178.5625 419.8125 C180.78362205 428.01556435 180.78362205 428.01556435 184.5625 434.8125 C188.86827504 433.15080526 191.65261855 429.98169694 194.8125 426.75 C195.36679687 426.19505859 195.92109375 425.64011719 196.4921875 425.06835938 C199.27994318 422.80778704 199.27994318 422.80778704 200.5625 419.8125 C193.3025 419.8125 186.0425 419.8125 178.5625 419.8125 Z M239.5625 419.8125 C244.60663355 425.70671783 244.60663355 425.70671783 249.9375 431.25 C250.62585938 431.92933594 251.31421875 432.60867188 252.0234375 433.30859375 C252.53132813 433.80488281 253.03921875 434.30117188 253.5625 434.8125 C256.64009869 434.14844088 256.64009869 434.14844088 257.6953125 431.921875 C258.02273438 431.14328125 258.35015625 430.3646875 258.6875 429.5625 C259.02007812 428.79421875 259.35265625 428.0259375 259.6953125 427.234375 C260.76490176 424.4328227 260.76490176 424.4328227 261.5625 419.8125 C254.3025 419.8125 247.0425 419.8125 239.5625 419.8125 Z M-106.83618164 433.09765625 C-107.41746826 433.68417969 -107.99875488 434.27070313 -108.59765625 434.875 C-109.5402832 435.82246094 -109.5402832 435.82246094 -110.50195312 436.7890625 C-111.49098633 437.79066406 -111.49098633 437.79066406 -112.5 438.8125 C-113.16322266 439.48023438 -113.82644531 440.14796875 -114.50976562 440.8359375 C-116.15458714 442.49259226 -117.79703887 444.15152916 -119.4375 445.8125 C-118.77344088 448.89009869 -118.77344088 448.89009869 -116.546875 449.9453125 C-115.76828125 450.27273438 -114.9896875 450.60015625 -114.1875 450.9375 C-113.41921875 451.27007812 -112.6509375 451.60265625 -111.859375 451.9453125 C-109.0578227 453.01490176 -109.0578227 453.01490176 -104.4375 453.8125 C-104.4375 446.5525 -104.4375 439.2925 -104.4375 431.8125 C-105.63134972 431.69973477 -105.63134972 431.69973477 -106.83618164 433.09765625 Z M-89.4375 431.8125 C-89.4375 439.0725 -89.4375 446.3325 -89.4375 453.8125 C-81.23443565 451.59137795 -81.23443565 451.59137795 -74.4375 447.8125 C-76.09919474 443.50672496 -79.26830306 440.72238145 -82.5 437.5625 C-83.33241211 436.73105469 -83.33241211 436.73105469 -84.18164062 435.8828125 C-86.44221296 433.09505682 -86.44221296 433.09505682 -89.4375 431.8125 Z M210.16381836 433.09765625 C209.58253174 433.68417969 209.00124512 434.27070313 208.40234375 434.875 C207.4597168 435.82246094 207.4597168 435.82246094 206.49804688 436.7890625 C205.50901367 437.79066406 205.50901367 437.79066406 204.5 438.8125 C203.83677734 439.48023438 203.17355469 440.14796875 202.49023438 440.8359375 C200.84541286 442.49259226 199.20296113 444.15152916 197.5625 445.8125 C198.22655912 448.89009869 198.22655912 448.89009869 200.453125 449.9453125 C201.23171875 450.27273438 202.0103125 450.60015625 202.8125 450.9375 C203.58078125 451.27007812 204.3490625 451.60265625 205.140625 451.9453125 C207.9421773 453.01490176 207.9421773 453.01490176 212.5625 453.8125 C212.5625 446.5525 212.5625 439.2925 212.5625 431.8125 C211.36865028 431.69973477 211.36865028 431.69973477 210.16381836 433.09765625 Z M227.5625 431.8125 C227.5625 439.0725 227.5625 446.3325 227.5625 453.8125 C235.76556435 451.59137795 235.76556435 451.59137795 242.5625 447.8125 C240.90080526 443.50672496 237.73169694 440.72238145 234.5 437.5625 C233.66758789 436.73105469 233.66758789 436.73105469 232.81835938 435.8828125 C230.55778704 433.09505682 230.55778704 433.09505682 227.5625 431.8125 Z " fill="#010101" transform="translate(194.4375,2.1875)"/>
<path d="M0 0 C4.49764034 0.95633757 8.96887728 1.96067179 13.40234375 3.18359375 C14.14935547 3.38919922 14.89636719 3.59480469 15.66601562 3.80664062 C17.14670264 4.21787184 18.62596132 4.63429192 20.10351562 5.05664062 C36.0217748 9.39798404 51.63240679 10.57558877 68.0625 10.5 C69.54077774 10.49835342 69.54077774 10.49835342 71.04891968 10.49667358 C91.32599492 10.43196541 109.74368162 7.68198534 128.890625 0.8203125 C132.10261954 -0.02707299 133.85830234 0.04331763 137 1 C144.67381922 27.1236399 144.67381922 27.1236399 146.41015625 39.86328125 C147.1138682 42.41248945 147.85736192 43.46092194 150 45 C155.04565002 44.80862516 155.04565002 44.80862516 159 42 C160.65739065 29.3650869 156.66828094 16.38319253 152.76953125 4.51171875 C152 2 152 2 152 0 C158.33090984 0.74397133 164.57973164 1.75043432 170.84960938 2.89453125 C184.76966239 5.31434731 198.79393323 5.21613133 212.87915039 5.24023438 C216.26669545 5.24986972 219.65361398 5.28094112 223.04101562 5.3125 C239.06488046 5.38889367 254.62194717 4.08699215 270.4230957 1.42285156 C276.23407946 0.46931069 281.3421866 0.11041719 286.47851562 3.42944336 C292.16039871 9.29458358 292.90849696 19.88366921 293.75 27.625 C293.87068848 28.70330078 293.99137695 29.78160156 294.11572266 30.89257812 C296.1934118 51.14637388 295.13420446 70.91868205 292 91 C291.83902832 92.03705078 291.67805664 93.07410156 291.51220703 94.14257812 C286.69161971 124.05707773 277.57985871 154.84028257 264 182 C226.71 182 189.42 182 151 182 C152.1220722 170.77927804 152.1220722 170.77927804 153.0859375 165.70703125 C153.29307373 164.59424805 153.50020996 163.48146484 153.71362305 162.33496094 C153.93187744 161.17254883 154.15013184 160.01013672 154.375 158.8125 C156.66750115 146.24619742 158.60392221 133.69723912 160 121 C160.10441406 120.06865234 160.20882812 119.13730469 160.31640625 118.17773438 C161.60758854 106.25472833 162.2264079 94.3379664 162.35147095 82.34985352 C162.36705579 80.95898239 162.3887648 79.56816532 162.4168396 78.17749023 C162.4525094 76.22797271 162.45732945 74.27796548 162.4609375 72.328125 C162.46915527 71.2030957 162.47737305 70.07806641 162.48583984 68.91894531 C161.88970567 65.33734723 160.86781111 64.16397036 158 62 C154.89169365 61.55595624 152.97717534 61.32581807 150.34179688 63.14404297 C148.40809165 65.8187204 148.61461259 67.85217004 148.59375 71.1328125 C148.57425293 72.39593262 148.55475586 73.65905273 148.53466797 74.96044922 C148.52965271 75.63686462 148.52463745 76.31328003 148.51947021 77.01019287 C148.48587829 80.65886563 148.38776923 84.30571647 148.2890625 87.953125 C148.2688504 88.7083847 148.24863831 89.46364441 148.22781372 90.24179077 C147.32625068 121.17014817 142.0565826 151.71708699 136 182 C91.12 182 46.24 182 0 182 C-5.88235294 151.41176471 -5.88235294 151.41176471 -8 136 C-8.13148438 135.07058594 -8.26296875 134.14117187 -8.3984375 133.18359375 C-14.30443974 91.34012503 -14.15986525 48.96650288 -3.18359375 7.984375 C-3.00368896 7.31116211 -2.82378418 6.63794922 -2.63842773 5.94433594 C-1.94741683 3.83985761 -1.03435115 1.9558045 0 0 Z " fill="#F1D0A4" transform="translate(188,18)"/>
<path d="M0 0 C6.33090984 0.74397133 12.57973164 1.75043432 18.84960938 2.89453125 C32.76966239 5.31434731 46.79393323 5.21613133 60.87915039 5.24023438 C64.26669545 5.24986972 67.65361398 5.28094112 71.04101562 5.3125 C87.06488046 5.38889367 102.62194717 4.08699215 118.4230957 1.42285156 C124.23407946 0.46931069 129.3421866 0.11041719 134.47851562 3.42944336 C140.16039871 9.29458358 140.90849696 19.88366921 141.75 27.625 C141.87068848 28.70330078 141.99137695 29.78160156 142.11572266 30.89257812 C144.1934118 51.14637388 143.13420446 70.91868205 140 91 C139.83902832 92.03705078 139.67805664 93.07410156 139.51220703 94.14257812 C134.69161971 124.05707773 125.57985871 154.84028257 112 182 C74.71 182 37.42 182 -1 182 C0.1220722 170.77927804 0.1220722 170.77927804 1.0859375 165.70703125 C1.29307373 164.59424805 1.50020996 163.48146484 1.71362305 162.33496094 C2.04100464 160.59134277 2.04100464 160.59134277 2.375 158.8125 C4.66750115 146.24619742 6.60392221 133.69723912 8 121 C8.15662109 119.60297852 8.15662109 119.60297852 8.31640625 118.17773438 C9.60758854 106.25472833 10.2264079 94.3379664 10.35147095 82.34985352 C10.36705579 80.95898239 10.3887648 79.56816532 10.4168396 78.17749023 C10.4525094 76.22797271 10.45732945 74.27796548 10.4609375 72.328125 C10.46915527 71.2030957 10.47737305 70.07806641 10.48583984 68.91894531 C9.88767251 65.32513194 8.80454582 64.24693537 6 62 C5.01 61.34 4.02 60.68 3 60 C2.3125 56.8828125 2.3125 56.8828125 2 53.125 C1.87625 51.89007813 1.7525 50.65515625 1.625 49.3828125 C2 46 2 46 4.46875 43.88671875 C5.3040625 43.26410156 6.139375 42.64148437 7 42 C9.80546242 30.24289764 4.40952422 15.59529285 0.76953125 4.51171875 C0 2 0 2 0 0 Z " fill="#FEE3C1" transform="translate(340,18)"/>
<path d="M0 0 C-0.17015625 0.56203125 -0.3403125 1.1240625 -0.515625 1.703125 C-16.67163725 57.73355047 -11.78801677 118.64088019 0.66577148 174.91308594 C1 177 1 177 1 182 C-36.29 182 -73.58 182 -112 182 C-118.75181518 167.37106711 -118.75181518 167.37106711 -120.6328125 162.02734375 C-121.04660156 160.86009766 -121.46039063 159.69285156 -121.88671875 158.49023438 C-122.29535156 157.31783203 -122.70398438 156.14542969 -123.125 154.9375 C-123.54136719 153.76123047 -123.95773438 152.58496094 -124.38671875 151.37304688 C-125.60458635 147.91987682 -126.80531935 144.46125252 -128 141 C-128.35932617 139.97165039 -128.71865234 138.94330078 -129.08886719 137.88378906 C-131.46475959 130.95917957 -133.37179424 124.01107296 -135 116.875 C-135.25418701 115.76697021 -135.50837402 114.65894043 -135.77026367 113.51733398 C-140.16254748 93.81242472 -143.21656805 73.83670689 -143.125 53.625 C-143.12089111 52.5222876 -143.11678223 51.4195752 -143.11254883 50.28344727 C-142.87559748 15.81339622 -142.87559748 15.81339622 -135 4 C-131.46279876 0.76598744 -128.16049417 0.59149718 -123.55729675 0.77970886 C-121.08324992 0.99282867 -118.78680249 1.41362923 -116.36450195 1.95043945 C-111.04573411 3.04554658 -105.76331281 3.65229647 -100.35546875 4.10546875 C-98.86783272 4.23129585 -98.86783272 4.23129585 -97.35014343 4.35966492 C-86.33954802 5.22332066 -75.35183306 5.3500412 -64.3125 5.3125 C-63.27593262 5.31167419 -62.23936523 5.31084839 -61.17138672 5.30999756 C-34.12346676 5.34127725 -34.12346676 5.34127725 -7.53125 0.8984375 C-4 0 -4 0 0 0 Z " fill="#F0D0A4" transform="translate(172,18)"/>
<path d="M0 0 C0.495 1.98 0.495 1.98 1 4 C1.99 4.12375 1.99 4.12375 3 4.25 C7.0058711 5.25146778 10.72374331 6.41307391 14 9 C14.6875 12.5 14.6875 12.5 15 16 C18.17948774 18.88477586 21.73206936 21.23420626 25.25 23.6875 C42.34712419 36.11968305 55.28871846 55.61917748 58.71875 76.71582031 C61.39821478 98.47716797 57.23896648 120.8059168 43.90234375 138.63671875 C29.01552947 157.13060507 10.75647621 169.50468055 -13 173 C-36.27430725 175.26792374 -56.99507496 169.32406528 -75.54296875 155.05859375 C-92.59297447 140.77345382 -104.06926299 120.55481116 -106.27050781 98.26025391 C-107.82482777 73.33469287 -100.09539207 52.26391393 -83.765625 33.421875 C-70.52601371 19.31692964 -50.57605816 8.44288653 -30.98657227 7.79492188 C-26.76002045 7.74382286 -22.53758393 7.83121161 -18.3125 7.9375 C-16.13788436 7.98543935 -13.96354434 8.02861746 -11.78862 8.05970764 C-9.84496413 8.08827571 -7.9015719 8.13338004 -5.95825195 8.17944336 C-2.87873449 8.32073187 -2.87873449 8.32073187 -1 6 C-0.60235737 4.01178687 -0.26224651 2.01055661 0 0 Z M-16 49 C-16 56.26 -16 63.52 -16 71 C-10.10578217 65.95586645 -10.10578217 65.95586645 -4.5625 60.625 C-3.88316406 59.93664062 -3.20382813 59.24828125 -2.50390625 58.5390625 C-2.00761719 58.03117187 -1.51132813 57.52328125 -1 57 C-1.66405912 53.92240131 -1.66405912 53.92240131 -3.890625 52.8671875 C-4.66921875 52.53976562 -5.4478125 52.21234375 -6.25 51.875 C-7.01828125 51.54242188 -7.7865625 51.20984375 -8.578125 50.8671875 C-11.3796773 49.79759824 -11.3796773 49.79759824 -16 49 Z M-37.375 50.875 C-38.84066406 51.39707031 -38.84066406 51.39707031 -40.3359375 51.9296875 C-43.15946624 52.95859699 -43.15946624 52.95859699 -46 55 C-44.33830526 59.30577504 -41.16919694 62.09011855 -37.9375 65.25 C-37.38255859 65.80429687 -36.82761719 66.35859375 -36.25585938 66.9296875 C-33.99528704 69.71744318 -33.99528704 69.71744318 -31 71 C-31 63.74 -31 56.48 -31 49 C-33.15875474 49 -35.37970511 50.15753176 -37.375 50.875 Z M-59 68 C-59.82011312 69.55851755 -60.63076213 71.12201716 -61.4375 72.6875 C-62.11619141 73.99267578 -62.11619141 73.99267578 -62.80859375 75.32421875 C-64.24993849 78.29766388 -64.24993849 78.29766388 -65 83 C-57.74 83 -50.48 83 -43 83 C-48.00056013 77.14131416 -48.00056013 77.14131416 -53.25 71.5625 C-53.91515625 70.88316406 -54.5803125 70.20382812 -55.265625 69.50390625 C-56.8692398 67.78162505 -56.8692398 67.78162505 -59 68 Z M8.48779297 69.26928711 C7.91174316 69.8494458 7.33569336 70.42960449 6.7421875 71.02734375 C6.11699219 71.65447266 5.49179688 72.28160156 4.84765625 72.92773438 C4.19667969 73.59095703 3.54570313 74.25417969 2.875 74.9375 C2.21628906 75.59685547 1.55757813 76.25621094 0.87890625 76.93554688 C-2.32147524 79.58756401 -2.32147524 79.58756401 -4 83 C3.26 83 10.52 83 18 83 C15.89270944 74.84664818 15.89270944 74.84664818 12 68 C9.92626535 67.78569836 9.92626535 67.78569836 8.48779297 69.26928711 Z M-65 98 C-62.77887795 106.20306435 -62.77887795 106.20306435 -59 113 C-54.69422496 111.33830526 -51.90988145 108.16919694 -48.75 104.9375 C-48.19570312 104.38255859 -47.64140625 103.82761719 -47.0703125 103.25585938 C-44.28255682 100.99528704 -44.28255682 100.99528704 -43 98 C-50.26 98 -57.52 98 -65 98 Z M-4 98 C1.04413355 103.89421783 1.04413355 103.89421783 6.375 109.4375 C7.06335938 110.11683594 7.75171875 110.79617188 8.4609375 111.49609375 C8.96882813 111.99238281 9.47671875 112.48867188 10 113 C13.07759869 112.33594088 13.07759869 112.33594088 14.1328125 110.109375 C14.46023437 109.33078125 14.78765625 108.5521875 15.125 107.75 C15.45757812 106.98171875 15.79015625 106.2134375 16.1328125 105.421875 C17.20240176 102.6203227 17.20240176 102.6203227 18 98 C10.74 98 3.48 98 -4 98 Z M-33.39868164 111.28515625 C-33.97996826 111.87167969 -34.56125488 112.45820313 -35.16015625 113.0625 C-36.1027832 114.00996094 -36.1027832 114.00996094 -37.06445312 114.9765625 C-38.05348633 115.97816406 -38.05348633 115.97816406 -39.0625 117 C-39.72572266 117.66773438 -40.38894531 118.33546875 -41.07226562 119.0234375 C-42.71708714 120.68009226 -44.35953887 122.33902916 -46 124 C-45.33594088 127.07759869 -45.33594088 127.07759869 -43.109375 128.1328125 C-42.33078125 128.46023438 -41.5521875 128.78765625 -40.75 129.125 C-39.98171875 129.45757812 -39.2134375 129.79015625 -38.421875 130.1328125 C-35.6203227 131.20240176 -35.6203227 131.20240176 -31 132 C-31 124.74 -31 117.48 -31 110 C-32.19384972 109.88723477 -32.19384972 109.88723477 -33.39868164 111.28515625 Z M-16 110 C-16 117.26 -16 124.52 -16 132 C-7.79693565 129.77887795 -7.79693565 129.77887795 -1 126 C-2.66169474 121.69422496 -5.83080306 118.90988145 -9.0625 115.75 C-9.89491211 114.91855469 -9.89491211 114.91855469 -10.74414062 114.0703125 C-13.00471296 111.28255682 -13.00471296 111.28255682 -16 110 Z " fill="#7E7668" transform="translate(121,324)"/>
<path d="M0 0 C2.70036253 2.15661606 5.27141746 4.38517974 7.80859375 6.73046875 C8.46214844 7.31570313 9.11570312 7.9009375 9.7890625 8.50390625 C24.79607839 22.61646424 33.60064504 43.4894345 34.27685547 63.87841797 C34.53939887 87.47097173 26.3326638 108.00031201 10.234375 125.2890625 C-5.81016984 141.43695385 -26.61694978 150.10439887 -49.37890625 150.29296875 C-71.87501776 149.94987381 -91.70567925 140.88173541 -107.94140625 125.35546875 C-124.00893096 108.5731965 -132.06463473 86.79825232 -131.71069336 63.72607422 C-130.81696207 41.08088284 -120.24623886 20.78328915 -104.01171875 5.14453125 C-74.37057029 -20.22697809 -31.88216952 -22.67263218 0 0 Z M-41.19140625 25.73046875 C-41.19140625 32.99046875 -41.19140625 40.25046875 -41.19140625 47.73046875 C-35.29718842 42.6863352 -35.29718842 42.6863352 -29.75390625 37.35546875 C-29.07457031 36.66710937 -28.39523437 35.97875 -27.6953125 35.26953125 C-27.19902344 34.76164062 -26.70273437 34.25375 -26.19140625 33.73046875 C-26.85546537 30.65287006 -26.85546537 30.65287006 -29.08203125 29.59765625 C-29.860625 29.27023437 -30.63921875 28.9428125 -31.44140625 28.60546875 C-32.2096875 28.27289063 -32.97796875 27.9403125 -33.76953125 27.59765625 C-36.57108355 26.52806699 -36.57108355 26.52806699 -41.19140625 25.73046875 Z M-62.56640625 27.60546875 C-64.03207031 28.12753906 -64.03207031 28.12753906 -65.52734375 28.66015625 C-68.35087249 29.68906574 -68.35087249 29.68906574 -71.19140625 31.73046875 C-69.52971151 36.03624379 -66.36060319 38.8205873 -63.12890625 41.98046875 C-62.57396484 42.53476562 -62.01902344 43.0890625 -61.44726562 43.66015625 C-59.18669329 46.44791193 -59.18669329 46.44791193 -56.19140625 47.73046875 C-56.19140625 40.47046875 -56.19140625 33.21046875 -56.19140625 25.73046875 C-58.35016099 25.73046875 -60.57111136 26.88800051 -62.56640625 27.60546875 Z M-84.19140625 44.73046875 C-85.01151937 46.2889863 -85.82216838 47.85248591 -86.62890625 49.41796875 C-87.30759766 50.72314453 -87.30759766 50.72314453 -88 52.0546875 C-89.44134474 55.02813263 -89.44134474 55.02813263 -90.19140625 59.73046875 C-82.93140625 59.73046875 -75.67140625 59.73046875 -68.19140625 59.73046875 C-73.19196638 53.87178291 -73.19196638 53.87178291 -78.44140625 48.29296875 C-79.1065625 47.61363281 -79.77171875 46.93429687 -80.45703125 46.234375 C-82.06064605 44.5120938 -82.06064605 44.5120938 -84.19140625 44.73046875 Z M-16.70361328 45.99975586 C-17.27966309 46.57991455 -17.85571289 47.16007324 -18.44921875 47.7578125 C-19.07441406 48.38494141 -19.69960938 49.01207031 -20.34375 49.65820312 C-20.99472656 50.32142578 -21.64570313 50.98464844 -22.31640625 51.66796875 C-22.97511719 52.32732422 -23.63382812 52.98667969 -24.3125 53.66601562 C-27.51288149 56.31803276 -27.51288149 56.31803276 -29.19140625 59.73046875 C-21.93140625 59.73046875 -14.67140625 59.73046875 -7.19140625 59.73046875 C-9.29869681 51.57711693 -9.29869681 51.57711693 -13.19140625 44.73046875 C-15.2651409 44.51616711 -15.2651409 44.51616711 -16.70361328 45.99975586 Z M-90.19140625 74.73046875 C-87.9702842 82.9335331 -87.9702842 82.9335331 -84.19140625 89.73046875 C-79.88563121 88.06877401 -77.1012877 84.89966569 -73.94140625 81.66796875 C-73.38710938 81.11302734 -72.8328125 80.55808594 -72.26171875 79.98632812 C-69.47396307 77.72575579 -69.47396307 77.72575579 -68.19140625 74.73046875 C-75.45140625 74.73046875 -82.71140625 74.73046875 -90.19140625 74.73046875 Z M-29.19140625 74.73046875 C-24.1472727 80.62468658 -24.1472727 80.62468658 -18.81640625 86.16796875 C-18.12804687 86.84730469 -17.4396875 87.52664063 -16.73046875 88.2265625 C-16.22257812 88.72285156 -15.7146875 89.21914063 -15.19140625 89.73046875 C-12.11380756 89.06640963 -12.11380756 89.06640963 -11.05859375 86.83984375 C-10.73117187 86.06125 -10.40375 85.28265625 -10.06640625 84.48046875 C-9.73382813 83.7121875 -9.40125 82.94390625 -9.05859375 82.15234375 C-7.98900449 79.35079145 -7.98900449 79.35079145 -7.19140625 74.73046875 C-14.45140625 74.73046875 -21.71140625 74.73046875 -29.19140625 74.73046875 Z M-58.59008789 88.015625 C-59.17137451 88.60214844 -59.75266113 89.18867188 -60.3515625 89.79296875 C-61.29418945 90.74042969 -61.29418945 90.74042969 -62.25585938 91.70703125 C-63.24489258 92.70863281 -63.24489258 92.70863281 -64.25390625 93.73046875 C-64.91712891 94.39820313 -65.58035156 95.0659375 -66.26367188 95.75390625 C-67.90849339 97.41056101 -69.55094512 99.06949791 -71.19140625 100.73046875 C-70.52734713 103.80806744 -70.52734713 103.80806744 -68.30078125 104.86328125 C-67.5221875 105.19070313 -66.74359375 105.518125 -65.94140625 105.85546875 C-65.173125 106.18804687 -64.40484375 106.520625 -63.61328125 106.86328125 C-60.81172895 107.93287051 -60.81172895 107.93287051 -56.19140625 108.73046875 C-56.19140625 101.47046875 -56.19140625 94.21046875 -56.19140625 86.73046875 C-57.38525597 86.61770352 -57.38525597 86.61770352 -58.59008789 88.015625 Z M-41.19140625 86.73046875 C-41.19140625 93.99046875 -41.19140625 101.25046875 -41.19140625 108.73046875 C-32.9883419 106.5093467 -32.9883419 106.5093467 -26.19140625 102.73046875 C-27.85310099 98.42469371 -31.02220931 95.6403502 -34.25390625 92.48046875 C-35.08631836 91.64902344 -35.08631836 91.64902344 -35.93554688 90.80078125 C-38.19611921 88.01302557 -38.19611921 88.01302557 -41.19140625 86.73046875 Z " fill="#7E7668" transform="translate(463.19140625,347.26953125)"/>
<path d="M0 0 C120.78 0 241.56 0 366 0 C364.875 7.875 364.875 7.875 364.02734375 10.96484375 C363.85009766 11.61904297 363.67285156 12.27324219 363.49023438 12.94726562 C363.30783203 13.60404297 363.12542969 14.26082031 362.9375 14.9375 C362.75123047 15.62134766 362.56496094 16.30519531 362.37304688 17.00976562 C361.91910943 18.67420293 361.46009084 20.33725312 361 22 C360.08992188 21.84144531 359.17984375 21.68289063 358.2421875 21.51953125 C342.86346425 19.3473734 326.74818526 20.09146091 312 25 C311.3591748 25.20898926 310.71834961 25.41797852 310.05810547 25.63330078 C300.21047059 28.94728933 288.23440465 33.90622862 281.31554317 41.96100521 C277.41085659 46.27259187 274.14795168 48.4227226 268.24848092 48.93071473 C264.30590921 49.09743052 260.37509868 49.0877658 256.42993164 49.05102539 C254.6517225 49.06351767 252.8735344 49.07939112 251.09538269 49.09837341 C246.28505573 49.13898227 241.47607799 49.12913377 236.6656754 49.1075356 C232.64233641 49.09431061 228.61923859 49.106474 224.59590906 49.11874098 C215.10089804 49.14752099 205.60653437 49.13601774 196.11157227 49.09790039 C186.33226874 49.05921746 176.55451718 49.08209588 166.77532297 49.13642889 C158.36303998 49.18134711 149.95123172 49.19108816 141.53884977 49.17215914 C136.52155075 49.16102168 131.50508674 49.16226953 126.48787117 49.19609261 C121.76832122 49.22611404 117.05088481 49.2118764 112.3314991 49.16431618 C110.60543989 49.15406323 108.87921023 49.15893675 107.15325546 49.18051529 C92.52675912 49.34785197 92.52675912 49.34785197 86.22190857 43.65086365 C85.51440177 42.86724677 84.80689497 42.08362989 84.07794857 41.27626705 C79.94026961 36.74368987 74.62865322 33.43014325 68.5625 32.4375 C65.68232417 33.06973372 64.93592262 33.88346652 63 36 C60.76981089 35.27118003 58.54412114 34.53315292 56.32421875 33.7734375 C54.61066691 33.20321353 52.87245766 32.70585852 51.125 32.25 C49 31 49 31 47.5625 27.5 C46.36120847 23.80412952 46.36120847 23.80412952 43.1875 22.625 C42.135625 22.41875 41.08375 22.2125 40 22 C38.75476563 21.73703125 38.75476563 21.73703125 37.484375 21.46875 C32.66769679 20.82076638 27.91665485 20.85559632 23.0625 20.875 C22.09892578 20.87113281 21.13535156 20.86726563 20.14257812 20.86328125 C14.98652624 20.87032985 10.08033682 21.10970453 5 22 C4.15820605 19.27318889 3.32636931 16.54398557 2.5 13.8125 C2.26152344 13.04357422 2.02304688 12.27464844 1.77734375 11.48242188 C1.55175781 10.73154297 1.32617188 9.98066406 1.09375 9.20703125 C0.88427734 8.5210083 0.67480469 7.83498535 0.45898438 7.12817383 C0 5 0 5 0 0 Z " fill="#D89567" transform="translate(73,297)"/>
<path d="M0 0 C0.78568866 -0.00436032 1.57137732 -0.00872064 2.38087472 -0.0132131 C5.02370611 -0.0241948 7.66601856 -0.01373383 10.30884647 -0.00342751 C12.21867089 -0.00688292 14.12849331 -0.0116467 16.03831154 -0.01760924 C21.29441381 -0.03016495 26.55035325 -0.02392807 31.80645621 -0.01465058 C37.47185073 -0.00787908 43.13721672 -0.01833191 48.80260563 -0.02659035 C59.90456461 -0.03995044 71.00646285 -0.03703973 82.10842424 -0.02835242 C91.12952204 -0.0215849 100.15060278 -0.02065512 109.17170238 -0.02392387 C111.09557609 -0.02461342 111.09557609 -0.02461342 113.05831592 -0.0253169 C115.66364487 -0.02627605 118.26897381 -0.02724869 120.87430275 -0.02823468 C144.62417372 -0.03655115 168.37400786 -0.02791756 192.12387297 -0.01220688 C213.80851916 0.00202856 235.49311249 0.00075783 257.17775822 -0.01358986 C281.53426243 -0.02965147 305.89073067 -0.0359696 330.2472406 -0.02675307 C332.84343977 -0.0257974 335.43963895 -0.02485428 338.03583813 -0.02392387 C339.95203389 -0.02322963 339.95203389 -0.02322963 341.90694068 -0.02252137 C350.91910494 -0.01992861 359.93125047 -0.02430866 368.94341183 -0.03136253 C379.92358153 -0.03976763 390.90368688 -0.03751831 401.8838492 -0.0215203 C407.48857577 -0.01362402 413.09319496 -0.0105691 418.6979208 -0.02046776 C423.82563249 -0.02938712 428.95313694 -0.02452735 434.08082975 -0.0085351 C435.93878074 -0.00517557 437.79674914 -0.00690756 439.65468901 -0.01416247 C442.17521521 -0.02325193 444.69502656 -0.01396208 447.21551514 0 C447.94113576 -0.0070235 448.66675638 -0.014047 449.4143655 -0.02128333 C454.06145578 0.03035675 457.22641519 0.92536921 461.17067814 3.37752342 C463.96013213 6.60741751 465.0658684 8.64385522 465.67067814 12.87752342 C464.95398922 17.89434584 463.04113595 20.9465147 459.01645559 24.02562863 C455.40850635 25.73959533 452.23614339 25.79395332 448.32573891 25.75784016 C447.53836187 25.76250008 446.75098484 25.76715999 445.9397479 25.77196112 C443.29117898 25.78394863 440.64311949 25.77450131 437.99454594 25.76520348 C436.08059626 25.76937475 434.16664906 25.77485112 432.25270647 25.78152329 C426.98520762 25.79602369 421.71786463 25.79171884 416.45035708 25.78435647 C410.77268879 25.77963846 405.09505488 25.79212251 399.4173975 25.80237389 C388.29137899 25.81959397 377.16541687 25.82039527 366.03938849 25.81516098 C356.99874378 25.8111241 347.95811579 25.8125571 338.91747189 25.81790924 C336.98943514 25.81903187 336.98943514 25.81903187 335.02244816 25.82017719 C332.41148222 25.82170862 329.80051627 25.82324697 327.18955033 25.82479215 C309.65190775 25.83462507 292.11427519 25.83878027 274.57663155 25.83116627 C273.54768289 25.83072051 273.54768289 25.83072051 272.49794739 25.83026574 C266.92720067 25.82781673 261.35645403 25.82520518 255.78570739 25.82258161 C234.05405697 25.81247839 212.3224838 25.82083512 190.59084415 25.84407616 C166.18159857 25.87013847 141.7724106 25.88294995 117.36314863 25.87588841 C104.43645482 25.87239058 91.50982446 25.87466537 78.58314037 25.89213943 C67.57916923 25.90682954 56.57530624 25.90753869 45.57133729 25.89006852 C39.95442739 25.88152992 34.33771093 25.87947862 28.72081089 25.89472008 C23.58194477 25.90849205 18.44343919 25.90390097 13.30459433 25.88448084 C11.44260467 25.88069742 9.58058665 25.88370965 7.7186221 25.89409249 C5.19246272 25.90718067 2.66756282 25.89575292 0.14145851 25.87809467 C-0.58576645 25.88774519 -1.31299142 25.8973957 -2.0622535 25.90733865 C-7.09974483 25.83476448 -9.93661992 24.51849018 -13.82932186 21.37752342 C-16.20234353 18.4507967 -16.78898812 16.69443138 -17.26682186 12.94002342 C-16.74166015 8.66370663 -15.58944395 6.65983077 -12.82932186 3.37752342 C-8.68606673 0.20879291 -5.04586633 -0.04868337 0 0 Z " fill="#FEF1DD" transform="translate(31.82932186126709,214.6224765777588)"/>
<path d="M0 0 C128.7 0 257.4 0 390 0 C387.87049524 9.05039524 385.67163146 18.09456179 383 27 C258.92 27 134.84 27 7 27 C0 2 0 2 0 0 Z " fill="#E2A57A" transform="translate(61,255)"/>
<path d="M0 0 C11.21201581 9.6273388 19.66550196 22.97687408 21.1328125 37.89453125 C22.16288639 55.77367083 18.0385737 70.75009808 6.24609375 84.65234375 C-4.28364139 95.82437327 -18.03245506 102.15400338 -33.23828125 103.10546875 C-49.97290982 103.58202991 -63.83154412 98.08130483 -76.46875 87.1640625 C-87.14846931 77.05833462 -93.65512395 62.78615456 -94.14648438 48.17871094 C-94.40664781 31.75015535 -89.06497893 16.15783516 -77.51171875 4.2109375 C-54.93530223 -15.56426929 -24.43935385 -17.94660998 0 0 Z M-28.8671875 3.89453125 C-28.8671875 11.15453125 -28.8671875 18.41453125 -28.8671875 25.89453125 C-22.97296967 20.8503977 -22.97296967 20.8503977 -17.4296875 15.51953125 C-16.75035156 14.83117187 -16.07101562 14.1428125 -15.37109375 13.43359375 C-14.87480469 12.92570312 -14.37851562 12.4178125 -13.8671875 11.89453125 C-14.53124662 8.81693256 -14.53124662 8.81693256 -16.7578125 7.76171875 C-17.53640625 7.43429687 -18.315 7.106875 -19.1171875 6.76953125 C-19.88546875 6.43695313 -20.65375 6.104375 -21.4453125 5.76171875 C-24.2468648 4.69212949 -24.2468648 4.69212949 -28.8671875 3.89453125 Z M-50.2421875 5.76953125 C-51.70785156 6.29160156 -51.70785156 6.29160156 -53.203125 6.82421875 C-56.02665374 7.85312824 -56.02665374 7.85312824 -58.8671875 9.89453125 C-57.20549276 14.20030629 -54.03638444 16.9846498 -50.8046875 20.14453125 C-50.24974609 20.69882812 -49.69480469 21.253125 -49.12304688 21.82421875 C-46.86247454 24.61197443 -46.86247454 24.61197443 -43.8671875 25.89453125 C-43.8671875 18.63453125 -43.8671875 11.37453125 -43.8671875 3.89453125 C-46.02594224 3.89453125 -48.24689261 5.05206301 -50.2421875 5.76953125 Z M-71.8671875 22.89453125 C-72.68730062 24.4530488 -73.49794963 26.01654841 -74.3046875 27.58203125 C-74.98337891 28.88720703 -74.98337891 28.88720703 -75.67578125 30.21875 C-77.11712599 33.19219513 -77.11712599 33.19219513 -77.8671875 37.89453125 C-70.6071875 37.89453125 -63.3471875 37.89453125 -55.8671875 37.89453125 C-60.86774763 32.03584541 -60.86774763 32.03584541 -66.1171875 26.45703125 C-66.78234375 25.77769531 -67.4475 25.09835937 -68.1328125 24.3984375 C-69.7364273 22.6761563 -69.7364273 22.6761563 -71.8671875 22.89453125 Z M-4.37939453 24.16381836 C-4.95544434 24.74397705 -5.53149414 25.32413574 -6.125 25.921875 C-6.75019531 26.54900391 -7.37539063 27.17613281 -8.01953125 27.82226562 C-8.67050781 28.48548828 -9.32148438 29.14871094 -9.9921875 29.83203125 C-10.65089844 30.49138672 -11.30960937 31.15074219 -11.98828125 31.83007812 C-15.18866274 34.48209526 -15.18866274 34.48209526 -16.8671875 37.89453125 C-9.6071875 37.89453125 -2.3471875 37.89453125 5.1328125 37.89453125 C3.02552194 29.74117943 3.02552194 29.74117943 -0.8671875 22.89453125 C-2.94092215 22.68022961 -2.94092215 22.68022961 -4.37939453 24.16381836 Z M-77.8671875 52.89453125 C-75.64606545 61.0975956 -75.64606545 61.0975956 -71.8671875 67.89453125 C-67.56141246 66.23283651 -64.77706895 63.06372819 -61.6171875 59.83203125 C-61.06289063 59.27708984 -60.50859375 58.72214844 -59.9375 58.15039062 C-57.14974432 55.88981829 -57.14974432 55.88981829 -55.8671875 52.89453125 C-63.1271875 52.89453125 -70.3871875 52.89453125 -77.8671875 52.89453125 Z M-16.8671875 52.89453125 C-11.82305395 58.78874908 -11.82305395 58.78874908 -6.4921875 64.33203125 C-5.80382812 65.01136719 -5.11546875 65.69070313 -4.40625 66.390625 C-3.89835937 66.88691406 -3.39046875 67.38320313 -2.8671875 67.89453125 C0.21041119 67.23047213 0.21041119 67.23047213 1.265625 65.00390625 C1.59304688 64.2253125 1.92046875 63.44671875 2.2578125 62.64453125 C2.59039062 61.87625 2.92296875 61.10796875 3.265625 60.31640625 C4.33521426 57.51485395 4.33521426 57.51485395 5.1328125 52.89453125 C-2.1271875 52.89453125 -9.3871875 52.89453125 -16.8671875 52.89453125 Z M-46.26586914 66.1796875 C-46.84715576 66.76621094 -47.42844238 67.35273438 -48.02734375 67.95703125 C-48.9699707 68.90449219 -48.9699707 68.90449219 -49.93164062 69.87109375 C-50.92067383 70.87269531 -50.92067383 70.87269531 -51.9296875 71.89453125 C-52.59291016 72.56226563 -53.25613281 73.23 -53.93945312 73.91796875 C-55.58427464 75.57462351 -57.22672637 77.23356041 -58.8671875 78.89453125 C-58.20312838 81.97212994 -58.20312838 81.97212994 -55.9765625 83.02734375 C-55.19796875 83.35476563 -54.419375 83.6821875 -53.6171875 84.01953125 C-52.84890625 84.35210937 -52.080625 84.6846875 -51.2890625 85.02734375 C-48.4875102 86.09693301 -48.4875102 86.09693301 -43.8671875 86.89453125 C-43.8671875 79.63453125 -43.8671875 72.37453125 -43.8671875 64.89453125 C-45.06103722 64.78176602 -45.06103722 64.78176602 -46.26586914 66.1796875 Z M-28.8671875 64.89453125 C-28.8671875 72.15453125 -28.8671875 79.41453125 -28.8671875 86.89453125 C-20.66412315 84.6734092 -20.66412315 84.6734092 -13.8671875 80.89453125 C-15.52888224 76.58875621 -18.69799056 73.8044127 -21.9296875 70.64453125 C-22.76209961 69.81308594 -22.76209961 69.81308594 -23.61132812 68.96484375 C-25.87190046 66.17708807 -25.87190046 66.17708807 -28.8671875 64.89453125 Z " fill="#000000" transform="translate(450.8671875,369.10546875)"/>
<path d="M0 0 C11.21201581 9.6273388 19.66550196 22.97687408 21.1328125 37.89453125 C22.16288639 55.77367083 18.0385737 70.75009808 6.24609375 84.65234375 C-4.28364139 95.82437327 -18.03245506 102.15400338 -33.23828125 103.10546875 C-49.97290982 103.58202991 -63.83154412 98.08130483 -76.46875 87.1640625 C-87.14846931 77.05833462 -93.65512395 62.78615456 -94.14648438 48.17871094 C-94.40664781 31.75015535 -89.06497893 16.15783516 -77.51171875 4.2109375 C-54.93530223 -15.56426929 -24.43935385 -17.94660998 0 0 Z M-28.8671875 3.89453125 C-28.8671875 11.15453125 -28.8671875 18.41453125 -28.8671875 25.89453125 C-22.97296967 20.8503977 -22.97296967 20.8503977 -17.4296875 15.51953125 C-16.75035156 14.83117187 -16.07101563 14.1428125 -15.37109375 13.43359375 C-14.87480469 12.92570312 -14.37851563 12.4178125 -13.8671875 11.89453125 C-14.53124662 8.81693256 -14.53124662 8.81693256 -16.7578125 7.76171875 C-17.53640625 7.43429687 -18.315 7.106875 -19.1171875 6.76953125 C-19.88546875 6.43695313 -20.65375 6.104375 -21.4453125 5.76171875 C-24.2468648 4.69212949 -24.2468648 4.69212949 -28.8671875 3.89453125 Z M-50.2421875 5.76953125 C-51.70785156 6.29160156 -51.70785156 6.29160156 -53.203125 6.82421875 C-56.02665374 7.85312824 -56.02665374 7.85312824 -58.8671875 9.89453125 C-57.20549276 14.20030629 -54.03638444 16.9846498 -50.8046875 20.14453125 C-50.24974609 20.69882812 -49.69480469 21.253125 -49.12304688 21.82421875 C-46.86247454 24.61197443 -46.86247454 24.61197443 -43.8671875 25.89453125 C-43.8671875 18.63453125 -43.8671875 11.37453125 -43.8671875 3.89453125 C-46.02594224 3.89453125 -48.24689261 5.05206301 -50.2421875 5.76953125 Z M-71.8671875 22.89453125 C-72.68730062 24.4530488 -73.49794963 26.01654841 -74.3046875 27.58203125 C-74.98337891 28.88720703 -74.98337891 28.88720703 -75.67578125 30.21875 C-77.11712599 33.19219513 -77.11712599 33.19219513 -77.8671875 37.89453125 C-70.6071875 37.89453125 -63.3471875 37.89453125 -55.8671875 37.89453125 C-60.86774763 32.03584541 -60.86774763 32.03584541 -66.1171875 26.45703125 C-66.78234375 25.77769531 -67.4475 25.09835937 -68.1328125 24.3984375 C-69.7364273 22.6761563 -69.7364273 22.6761563 -71.8671875 22.89453125 Z M-4.37939453 24.16381836 C-4.95544434 24.74397705 -5.53149414 25.32413574 -6.125 25.921875 C-6.75019531 26.54900391 -7.37539062 27.17613281 -8.01953125 27.82226562 C-8.67050781 28.48548828 -9.32148437 29.14871094 -9.9921875 29.83203125 C-10.65089844 30.49138672 -11.30960937 31.15074219 -11.98828125 31.83007812 C-15.18866274 34.48209526 -15.18866274 34.48209526 -16.8671875 37.89453125 C-9.6071875 37.89453125 -2.3471875 37.89453125 5.1328125 37.89453125 C3.02552194 29.74117943 3.02552194 29.74117943 -0.8671875 22.89453125 C-2.94092215 22.68022961 -2.94092215 22.68022961 -4.37939453 24.16381836 Z M-77.8671875 52.89453125 C-75.64606545 61.0975956 -75.64606545 61.0975956 -71.8671875 67.89453125 C-67.56141246 66.23283651 -64.77706895 63.06372819 -61.6171875 59.83203125 C-61.06289062 59.27708984 -60.50859375 58.72214844 -59.9375 58.15039062 C-57.14974432 55.88981829 -57.14974432 55.88981829 -55.8671875 52.89453125 C-63.1271875 52.89453125 -70.3871875 52.89453125 -77.8671875 52.89453125 Z M-16.8671875 52.89453125 C-11.82305395 58.78874908 -11.82305395 58.78874908 -6.4921875 64.33203125 C-5.80382812 65.01136719 -5.11546875 65.69070313 -4.40625 66.390625 C-3.89835937 66.88691406 -3.39046875 67.38320313 -2.8671875 67.89453125 C0.21041119 67.23047213 0.21041119 67.23047213 1.265625 65.00390625 C1.59304687 64.2253125 1.92046875 63.44671875 2.2578125 62.64453125 C2.59039062 61.87625 2.92296875 61.10796875 3.265625 60.31640625 C4.33521426 57.51485395 4.33521426 57.51485395 5.1328125 52.89453125 C-2.1271875 52.89453125 -9.3871875 52.89453125 -16.8671875 52.89453125 Z M-46.26586914 66.1796875 C-46.84715576 66.76621094 -47.42844238 67.35273438 -48.02734375 67.95703125 C-48.9699707 68.90449219 -48.9699707 68.90449219 -49.93164062 69.87109375 C-50.92067383 70.87269531 -50.92067383 70.87269531 -51.9296875 71.89453125 C-52.59291016 72.56226563 -53.25613281 73.23 -53.93945312 73.91796875 C-55.58427464 75.57462351 -57.22672637 77.23356041 -58.8671875 78.89453125 C-58.20312838 81.97212994 -58.20312838 81.97212994 -55.9765625 83.02734375 C-55.19796875 83.35476563 -54.419375 83.6821875 -53.6171875 84.01953125 C-52.84890625 84.35210937 -52.080625 84.6846875 -51.2890625 85.02734375 C-48.4875102 86.09693301 -48.4875102 86.09693301 -43.8671875 86.89453125 C-43.8671875 79.63453125 -43.8671875 72.37453125 -43.8671875 64.89453125 C-45.06103722 64.78176602 -45.06103722 64.78176602 -46.26586914 66.1796875 Z M-28.8671875 64.89453125 C-28.8671875 72.15453125 -28.8671875 79.41453125 -28.8671875 86.89453125 C-20.66412315 84.6734092 -20.66412315 84.6734092 -13.8671875 80.89453125 C-15.52888224 76.58875621 -18.69799056 73.8044127 -21.9296875 70.64453125 C-22.76209961 69.81308594 -22.76209961 69.81308594 -23.61132812 68.96484375 C-25.87190046 66.17708807 -25.87190046 66.17708807 -28.8671875 64.89453125 Z " fill="#000000" transform="translate(133.8671875,369.10546875)"/>
<path d="M0 0 C-0.17015625 0.56203125 -0.3403125 1.1240625 -0.515625 1.703125 C-12.65384501 43.79950504 -13.82964901 91.04223854 -6.45898438 134.1652832 C-5.98039325 137.12109252 -5.90102065 139.88369308 -5.9375 142.875 C-5.94652344 143.84179688 -5.95554687 144.80859375 -5.96484375 145.8046875 C-5.97644531 146.52914062 -5.98804688 147.25359375 -6 148 C-20.65247761 141.39833426 -32.48505393 132.07595986 -44 121 C-44.69351563 120.38125 -45.38703125 119.7625 -46.1015625 119.125 C-68.04243108 98.89967258 -80.37721715 67.07249641 -84 38 C-84.08756313 35.68222048 -84.13056794 33.36240062 -84.1328125 31.04296875 C-84.13410156 29.76615234 -84.13539062 28.48933594 -84.13671875 27.17382812 C-84.13285156 25.85833984 -84.12898438 24.54285156 -84.125 23.1875 C-84.12856567 21.83919176 -84.13246903 20.49088438 -84.13671875 19.14257812 C-84.13542969 17.87220703 -84.13414063 16.60183594 -84.1328125 15.29296875 C-84.13168457 14.1330542 -84.13055664 12.97313965 -84.12939453 11.77807617 C-84 9 -84 9 -83 7 C-82.12827148 6.9906543 -81.25654297 6.98130859 -80.35839844 6.97167969 C-62.91919866 6.74000498 -45.65019373 6.03091282 -28.3125 4.0625 C-27.16521423 3.93445984 -27.16521423 3.93445984 -25.99475098 3.80383301 C-17.43066055 2.83522842 -8.47776419 0 0 0 Z " fill="#FEE3C1" transform="translate(172,18)"/>
<path d="M0 0 C50.82 0 101.64 0 154 0 C152.41117867 3.97205333 150.69385183 7.49531941 148.6875 11.25 C145.94236464 16.58461502 143.86913387 21.92966851 142.1875 27.6875 C141.99309326 28.35104492 141.79868652 29.01458984 141.59838867 29.69824219 C140.00274138 35.44678072 139.07821666 41.06980837 138 47 C97.74 47 57.48 47 16 47 C14.35 39.74 12.7 32.48 11 25 C8.30730649 17.6123537 5.05157244 10.98384128 1.13671875 4.1796875 C0 2 0 2 0 0 Z " fill="#E2A57A" transform="translate(179,360)"/>
<path d="M0 0 C120.78 0 241.56 0 366 0 C366 0.33 366 0.66 366 1 C288.78 1 211.56 1 132 1 C133.98 7.435 133.98 7.435 136 14 C137.28787403 18.53189855 138.50961599 23.08017524 139.71972656 27.63330078 C140.25908795 29.65913421 140.80517867 31.6830819 141.3515625 33.70703125 C141.69831904 35.00510091 142.04468836 36.30327409 142.390625 37.6015625 C142.70032227 38.75994629 143.01001953 39.91833008 143.32910156 41.11181641 C144 44 144 44 144 47 C186.9 47 229.8 47 274 47 C274 47.33 274 47.66 274 48 C250.44305723 48.21042179 226.8862557 48.36903763 203.32856178 48.46630955 C192.38978244 48.51267918 181.45158767 48.57587522 170.51318359 48.67895508 C160.97707928 48.76877715 151.44139839 48.82675155 141.90488279 48.84679645 C136.85704134 48.85851056 131.81041102 48.88595685 126.76295853 48.95157051 C122.0069035 49.01289233 117.25255235 49.03145863 112.49613953 49.01796913 C110.75545855 49.02043494 109.01471763 49.03820337 107.27437973 49.07284927 C92.51437168 49.35214697 92.51437168 49.35214697 86.21298218 43.65879822 C85.50676413 42.87403579 84.80054607 42.08927336 84.07292747 41.28073025 C79.94583658 36.73991483 74.62650166 33.42979118 68.5625 32.4375 C65.68232417 33.06973372 64.93592262 33.88346652 63 36 C60.76981089 35.27118003 58.54412114 34.53315292 56.32421875 33.7734375 C54.61066691 33.20321353 52.87245766 32.70585852 51.125 32.25 C49 31 49 31 47.5625 27.5 C46.36120847 23.80412952 46.36120847 23.80412952 43.1875 22.625 C42.135625 22.41875 41.08375 22.2125 40 22 C38.75476563 21.73703125 38.75476563 21.73703125 37.484375 21.46875 C32.66769679 20.82076638 27.91665485 20.85559632 23.0625 20.875 C22.09892578 20.87113281 21.13535156 20.86726563 20.14257812 20.86328125 C14.98652624 20.87032985 10.08033682 21.10970453 5 22 C4.15820605 19.27318889 3.32636931 16.54398557 2.5 13.8125 C2.26152344 13.04357422 2.02304688 12.27464844 1.77734375 11.48242188 C1.55175781 10.73154297 1.32617188 9.98066406 1.09375 9.20703125 C0.88427734 8.5210083 0.67480469 7.83498535 0.45898438 7.12817383 C0 5 0 5 0 0 Z " fill="#C98553" transform="translate(73,297)"/>
<path d="M0 0 C-0.350625 1.134375 -0.70125 2.26875 -1.0625 3.4375 C-2.56349295 9.49507867 -1.9593613 14.70587516 0.4375 20.4375 C1.89170988 23.04877657 1.89170988 23.04877657 4 25 C3.21238281 25.25652344 2.42476563 25.51304687 1.61328125 25.77734375 C-15.05556656 31.63609854 -26.57347288 41.0449188 -34.35473633 57.01391602 C-40.05056119 69.27210518 -41.2825555 84.21292585 -37.10546875 97.21484375 C-30.98500543 112.63495099 -22.49225914 124.60613487 -7.13916016 131.88183594 C-3.4891379 133.43945839 0.22800726 134.77147863 4 136 C3.65066406 136.4846875 3.30132812 136.969375 2.94140625 137.46875 C-0.90464329 143.13431872 -2.69318977 147.64377804 -1.6015625 154.50390625 C-1.12909818 156.69162146 -0.60355032 158.84517573 0 161 C-17.65243353 159.30265062 -34.63179956 146.90269137 -46 134 C-61.17251005 115.30416649 -67.19858018 92.78214694 -65 69 C-62.43520121 48.60875352 -50.42987178 29.20728637 -35 16 C-25.60975108 8.82873914 -12.14780032 0 0 0 Z " fill="#6E675A" transform="translate(397,334)"/>
<path d="M0 0 C-0.350625 1.134375 -0.70125 2.26875 -1.0625 3.4375 C-2.56349295 9.49507867 -1.9593613 14.70587516 0.4375 20.4375 C1.89170988 23.04877657 1.89170988 23.04877657 4 25 C3.21238281 25.25652344 2.42476563 25.51304687 1.61328125 25.77734375 C-15.05556656 31.63609854 -26.57347288 41.0449188 -34.35473633 57.01391602 C-40.05056119 69.27210518 -41.2825555 84.21292585 -37.10546875 97.21484375 C-30.98500543 112.63495099 -22.49225914 124.60613487 -7.13916016 131.88183594 C-3.4891379 133.43945839 0.22800726 134.77147863 4 136 C3.65066406 136.4846875 3.30132812 136.969375 2.94140625 137.46875 C-0.90464329 143.13431872 -2.69318977 147.64377804 -1.6015625 154.50390625 C-1.12909818 156.69162146 -0.60355032 158.84517573 0 161 C-17.65243353 159.30265062 -34.63179956 146.90269137 -46 134 C-61.17251005 115.30416649 -67.19858018 92.78214694 -65 69 C-62.43520121 48.60875352 -50.42987178 29.20728637 -35 16 C-25.60975108 8.82873914 -12.14780032 0 0 0 Z " fill="#6E675A" transform="translate(80,334)"/>
<path d="M0 0 C1.19326904 -0.00412399 2.38653809 -0.00824799 3.6159668 -0.01249695 C4.91644455 -0.00171112 6.2169223 0.00907471 7.55680847 0.02018738 C8.94669069 0.02103403 10.33657425 0.02055776 11.72645569 0.01885986 C15.49268641 0.01799997 19.25862984 0.03562452 23.02479386 0.05658174 C26.96324086 0.07534967 30.90169462 0.07709907 34.84017944 0.08065796 C42.29513749 0.08997809 49.74996337 0.11459141 57.20486325 0.14470643 C65.69331173 0.17825145 74.18176656 0.1947367 82.67026484 0.20979273 C100.12886035 0.24114102 117.58732727 0.29390087 135.04582214 0.36076355 C134.55903992 1.28437683 134.07225769 2.20799011 133.57072449 3.15959167 C131.88903007 6.68991142 131.64308474 8.97752707 131.67082214 12.86076355 C131.66308777 13.94357605 131.65535339 15.02638855 131.64738464 16.14201355 C132.09529049 19.76039019 133.35787615 22.1580802 135.04582214 25.36076355 C116.76537112 25.45423036 98.48498217 25.52475421 80.2043438 25.56801224 C71.71620061 25.58863212 63.22820594 25.61674165 54.74015808 25.66252136 C47.34143764 25.70240682 39.94282476 25.72820054 32.54399979 25.73711753 C28.62680692 25.74232943 24.70992179 25.75456699 20.79282761 25.78368378 C17.10412796 25.8108801 13.41586214 25.81920018 9.72707176 25.81319427 C7.73145382 25.81481546 5.73588288 25.8363162 3.74038696 25.85844421 C-7.19261406 25.80812224 -7.19261406 25.80812224 -11.95417786 21.36076355 C-14.32719952 18.43403683 -14.91384412 16.67767151 -15.39167786 12.92326355 C-14.86651614 8.64694676 -13.71429995 6.6430709 -10.95417786 3.36076355 C-7.19868945 0.63499223 -4.61029036 -0.012316 0 0 Z " fill="#FEE3C1" transform="translate(29.954177856445313,214.6392364501953)"/>
<path d="M0 0 C43.89 0 87.78 0 133 0 C135.31 8.91 137.62 17.82 140 27 C96.11 27 52.22 27 7 27 C0 2 0 2 0 0 Z " fill="#D89567" transform="translate(61,255)"/>
<path d="M0 0 C2.64 0.99 5.28 1.98 8 3 C23.77297465 7.5799339 39.92784899 7.60382008 56.20703125 7.609375 C58.75535614 7.62439442 61.30367144 7.64112928 63.85197449 7.65948486 C69.81178312 7.69835618 75.77149208 7.72027493 81.73139828 7.73345876 C88.53233487 7.74948814 95.33309155 7.78796762 102.13392222 7.82805204 C116.08922038 7.90981686 130.04451317 7.96430177 144 8 C143.88204476 9.45892004 143.75508849 10.91711177 143.625 12.375 C143.55539062 13.18710938 143.48578125 13.99921875 143.4140625 14.8359375 C142.83518767 19.25941495 141.87491206 23.62543971 141 28 C96.12 28 51.24 28 5 28 C3.35 18.76 1.7 9.52 0 0 Z " fill="#F1BA87" transform="translate(183,172)"/>
<path d="M0 0 C58.41 0.495 58.41 0.495 118 1 C115 10 115 10 110 21 C72.71 21 35.42 21 -3 21 C-2 11 -2 11 0 0 Z " fill="#F1D0A4" transform="translate(342,179)"/>
<path d="M0 0 C14.19 0 28.38 0 43 0 C46.6875 13.9375 46.6875 13.9375 47.81518555 18.27709961 C51.00344112 30.06714867 55.38596768 38.38596768 64 47 C48.16 47 32.32 47 16 47 C14.35 39.74 12.7 32.48 11 25 C8.30730649 17.6123537 5.05157244 10.98384128 1.13671875 4.1796875 C0 2 0 2 0 0 Z " fill="#D89567" transform="translate(179,360)"/>
</svg>
